M48
; DRILL file {KiCad 9.0.4} date 2025-08-25T12:37:34+0300
; FORMAT={-:-/ absolute / metric / decimal}
; #@! TF.CreationDate,2025-08-25T12:37:34+03:00
; #@! TF.GenerationSoftware,Kicad,Pcbnew,9.0.4
; #@! TF.FileFunction,Plated,1,4,PTH
FMAT,2
METRIC
; #@! TA.AperFunction,Plated,PTH,ViaDrill
T1C0.300
; #@! TA.AperFunction,Plated,PTH,ComponentDrill
T2C0.762
; #@! TA.AperFunction,Plated,PTH,ComponentDrill
T3C0.800
; #@! TA.AperFunction,Plated,PTH,ComponentDrill
T4C0.900
; #@! TA.AperFunction,Plated,PTH,ComponentDrill
T5C0.962
; #@! TA.AperFunction,Plated,PTH,ComponentDrill
T6C1.000
; #@! TA.AperFunction,Plated,PTH,ComponentDrill
T7C1.100
%
G90
G05
T1
X135.7Y-112.3
X139.3Y-109.2
T2
X95.52Y-110.62
X98.06Y-110.62
X100.6Y-110.62
X103.14Y-110.62
X105.68Y-110.62
T3
X146.6Y-116.08
X146.6Y-123.7
X146.98Y-76.2
X147.6Y-91.39
X147.6Y-99.01
X147.6Y-103.08
X147.6Y-110.7
X151.6Y-117.7
X151.6Y-122.7
X152.1Y-104.7
X152.1Y-109.7
X152.6Y-91.7
X152.6Y-96.7
X154.6Y-76.2
T4
X160.06Y-77.2
X162.6Y-77.2
T5
X102.79Y-77.27
X105.33Y-77.27
X107.87Y-77.27
X110.41Y-77.27
T6
X124.97Y-81.19
X124.97Y-83.73
X124.97Y-86.27
X124.97Y-88.81
X124.97Y-91.35
X124.97Y-93.89
X124.97Y-96.43
X124.97Y-98.97
X124.97Y-101.51
X124.97Y-104.05
X124.97Y-106.59
X124.97Y-109.13
X124.97Y-111.67
X124.97Y-114.21
X124.97Y-116.75
X140.21Y-81.19
X140.21Y-83.73
X140.21Y-86.27
X140.21Y-88.81
X140.21Y-91.35
X140.21Y-93.89
X140.21Y-96.43
X140.21Y-98.97
X140.21Y-101.51
X140.21Y-104.05
X140.21Y-106.59
X140.21Y-109.13
X140.21Y-111.67
X140.21Y-114.21
X140.21Y-116.75
T7
X156.6Y-92.2
X156.6Y-96.7
X156.6Y-105.2
X156.6Y-109.7
X156.6Y-118.2
X156.6Y-122.7
X163.1Y-92.2
X163.1Y-96.7
X163.1Y-105.2
X163.1Y-109.7
X163.1Y-118.2
X163.1Y-122.7
M30
