G04 #@! TF.GenerationSoftware,KiCad,Pcbnew,9.0.4*
G04 #@! TF.CreationDate,2025-08-25T12:39:34+03:00*
G04 #@! TF.ProjectId,power supply,706f7765-7220-4737-9570-706c792e6b69,rev?*
G04 #@! TF.SameCoordinates,Original*
G04 #@! TF.FileFunction,Copper,L1,Top*
G04 #@! TF.FilePolarity,Positive*
%FSLAX46Y46*%
G04 Gerber Fmt 4.6, Leading zero omitted, Abs format (unit mm)*
G04 Created by KiCad (PCBNEW 9.0.4) date 2025-08-25 12:39:34*
%MOMM*%
%LPD*%
G01*
G04 APERTURE LIST*
G04 #@! TA.AperFunction,ComponentPad*
%ADD10C,1.600000*%
G04 #@! TD*
G04 #@! TA.AperFunction,ComponentPad*
%ADD11C,1.800000*%
G04 #@! TD*
G04 #@! TA.AperFunction,ComponentPad*
%ADD12R,1.800000X1.800000*%
G04 #@! TD*
G04 #@! TA.AperFunction,ComponentPad*
%ADD13C,2.000000*%
G04 #@! TD*
G04 #@! TA.AperFunction,ComponentPad*
%ADD14R,1.924000X1.924000*%
G04 #@! TD*
G04 #@! TA.AperFunction,ComponentPad*
%ADD15C,1.924000*%
G04 #@! TD*
G04 #@! TA.AperFunction,ComponentPad*
%ADD16R,1.524000X1.524000*%
G04 #@! TD*
G04 #@! TA.AperFunction,ComponentPad*
%ADD17C,1.524000*%
G04 #@! TD*
G04 #@! TA.AperFunction,ComponentPad*
%ADD18R,1.600000X1.600000*%
G04 #@! TD*
G04 #@! TA.AperFunction,ComponentPad*
%ADD19O,1.600000X1.600000*%
G04 #@! TD*
G04 #@! TA.AperFunction,ViaPad*
%ADD20C,0.600000*%
G04 #@! TD*
G04 #@! TA.AperFunction,Conductor*
%ADD21C,0.200000*%
G04 #@! TD*
G04 APERTURE END LIST*
D10*
X154600000Y-76200000D03*
X146980000Y-76200000D03*
D11*
X160060000Y-77200000D03*
D12*
X162600000Y-77200000D03*
D10*
X152100000Y-109700000D03*
X152100000Y-104700000D03*
D13*
X156600000Y-105200000D03*
X163100000Y-105200000D03*
X156600000Y-109700000D03*
X163100000Y-109700000D03*
D10*
X147600000Y-103080000D03*
X147600000Y-110700000D03*
D13*
X156600000Y-92200000D03*
X163100000Y-92200000D03*
X156600000Y-96700000D03*
X163100000Y-96700000D03*
D10*
X152600000Y-96700000D03*
X152600000Y-91700000D03*
X147600000Y-91390000D03*
X147600000Y-99010000D03*
X151600000Y-117700000D03*
X151600000Y-122700000D03*
X146600000Y-123700000D03*
X146600000Y-116080000D03*
D13*
X163100000Y-122700000D03*
X156600000Y-122700000D03*
X163100000Y-118200000D03*
X156600000Y-118200000D03*
D14*
X102790000Y-77270000D03*
D15*
X105330000Y-77270000D03*
X107870000Y-77270000D03*
X110410000Y-77270000D03*
D16*
X95520000Y-110620000D03*
D17*
X98060000Y-110620000D03*
X100600000Y-110620000D03*
X103140000Y-110620000D03*
X105680000Y-110620000D03*
D18*
X140210000Y-116750000D03*
D19*
X140210000Y-114210000D03*
X140210000Y-111670000D03*
X140210000Y-109130000D03*
X140210000Y-106590000D03*
X140210000Y-104050000D03*
X140210000Y-101510000D03*
X140210000Y-98970000D03*
X140210000Y-96430000D03*
X140210000Y-93890000D03*
X140210000Y-91350000D03*
X140210000Y-88810000D03*
X140210000Y-86270000D03*
X140210000Y-83730000D03*
X140210000Y-81190000D03*
X124970000Y-81190000D03*
X124970000Y-83730000D03*
X124970000Y-86270000D03*
X124970000Y-88810000D03*
X124970000Y-91350000D03*
X124970000Y-93890000D03*
X124970000Y-96430000D03*
X124970000Y-98970000D03*
X124970000Y-101510000D03*
X124970000Y-104050000D03*
X124970000Y-106590000D03*
X124970000Y-109130000D03*
X124970000Y-111670000D03*
X124970000Y-114210000D03*
X124970000Y-116750000D03*
D20*
X139300000Y-109200000D03*
X135700000Y-112300000D03*
D21*
X159060000Y-76200000D02*
X160060000Y-77200000D01*
X154600000Y-76200000D02*
X159060000Y-76200000D01*
X121380000Y-110620000D02*
X124970000Y-114210000D01*
X105680000Y-110620000D02*
X121380000Y-110620000D01*
X103140000Y-110620000D02*
X112250000Y-101510000D01*
X112250000Y-101510000D02*
X124970000Y-101510000D01*
X112250000Y-98970000D02*
X124970000Y-98970000D01*
X100600000Y-110620000D02*
X112250000Y-98970000D01*
X146088188Y-103022000D02*
X147766188Y-104700000D01*
X139784188Y-103022000D02*
X146088188Y-103022000D01*
X139182000Y-103624188D02*
X139784188Y-103022000D01*
X139182000Y-108102000D02*
X139182000Y-103624188D01*
X147766188Y-104700000D02*
X152100000Y-104700000D01*
X140210000Y-109130000D02*
X139182000Y-108102000D01*
X133790000Y-114210000D02*
X135700000Y-112300000D01*
X124970000Y-114210000D02*
X133790000Y-114210000D01*
X141162000Y-110642000D02*
X126482000Y-110642000D01*
X126482000Y-110642000D02*
X124970000Y-109130000D01*
X146600000Y-116080000D02*
X141162000Y-110642000D01*
X156600000Y-122700000D02*
X163100000Y-122700000D01*
X151600000Y-122700000D02*
X156600000Y-122700000D01*
X146600000Y-123700000D02*
X150600000Y-123700000D01*
X150600000Y-123700000D02*
X151600000Y-122700000D01*
X156600000Y-105200000D02*
X163100000Y-105200000D01*
X156100000Y-104700000D02*
X156600000Y-105200000D01*
X152100000Y-104700000D02*
X156100000Y-104700000D01*
X152100000Y-118200000D02*
X151600000Y-117700000D01*
X156600000Y-118200000D02*
X152100000Y-118200000D01*
X163100000Y-118200000D02*
X156600000Y-118200000D01*
X140950000Y-104050000D02*
X140210000Y-104050000D01*
X147600000Y-110700000D02*
X140950000Y-104050000D01*
X148600000Y-109700000D02*
X147600000Y-110700000D01*
X152100000Y-109700000D02*
X148600000Y-109700000D01*
X156600000Y-109700000D02*
X152100000Y-109700000D01*
X163100000Y-109700000D02*
X156600000Y-109700000D01*
X147600000Y-94120000D02*
X147600000Y-91390000D01*
X140210000Y-101510000D02*
X147600000Y-94120000D01*
X156600000Y-96700000D02*
X163100000Y-96700000D01*
X152600000Y-96700000D02*
X156600000Y-96700000D01*
X156600000Y-92200000D02*
X163100000Y-92200000D01*
X152600000Y-91700000D02*
X156100000Y-91700000D01*
X156100000Y-91700000D02*
X156600000Y-92200000D01*
X147600000Y-91390000D02*
X152290000Y-91390000D01*
X152290000Y-91390000D02*
X152600000Y-91700000D01*
X141990000Y-81190000D02*
X146980000Y-76200000D01*
X140210000Y-81190000D02*
X141990000Y-81190000D01*
G04 #@! TA.AperFunction,Conductor*
G36*
X166042539Y-73720185D02*
G01*
X166088294Y-73772989D01*
X166099500Y-73824500D01*
X166099500Y-125575500D01*
X166079815Y-125642539D01*
X166027011Y-125688294D01*
X165975500Y-125699500D01*
X92224500Y-125699500D01*
X92157461Y-125679815D01*
X92111706Y-125627011D01*
X92100500Y-125575500D01*
X92100500Y-123597648D01*
X145299500Y-123597648D01*
X145299500Y-123802351D01*
X145331522Y-124004534D01*
X145394781Y-124199223D01*
X145487715Y-124381613D01*
X145608028Y-124547213D01*
X145752786Y-124691971D01*
X145907749Y-124804556D01*
X145918390Y-124812287D01*
X146034607Y-124871503D01*
X146100776Y-124905218D01*
X146100778Y-124905218D01*
X146100781Y-124905220D01*
X146205137Y-124939127D01*
X146295465Y-124968477D01*
X146396557Y-124984488D01*
X146497648Y-125000500D01*
X146497649Y-125000500D01*
X146702351Y-125000500D01*
X146702352Y-125000500D01*
X146904534Y-124968477D01*
X147099219Y-124905220D01*
X147281610Y-124812287D01*
X147374590Y-124744732D01*
X147447213Y-124691971D01*
X147447215Y-124691968D01*
X147447219Y-124691966D01*
X147591966Y-124547219D01*
X147591968Y-124547215D01*
X147591971Y-124547213D01*
X147712284Y-124381614D01*
X147712285Y-124381613D01*
X147712287Y-124381610D01*
X147719117Y-124368204D01*
X147767091Y-124317409D01*
X147829602Y-124300500D01*
X150513331Y-124300500D01*
X150513347Y-124300501D01*
X150520943Y-124300501D01*
X150679054Y-124300501D01*
X150679057Y-124300501D01*
X150831785Y-124259577D01*
X150881904Y-124230639D01*
X150968716Y-124180520D01*
X151080520Y-124068716D01*
X151080520Y-124068714D01*
X151090728Y-124058507D01*
X151090730Y-124058504D01*
X151155158Y-123994075D01*
X151216479Y-123960592D01*
X151281151Y-123963825D01*
X151295466Y-123968477D01*
X151497648Y-124000500D01*
X151497649Y-124000500D01*
X151702351Y-124000500D01*
X151702352Y-124000500D01*
X151904534Y-123968477D01*
X152099219Y-123905220D01*
X152281610Y-123812287D01*
X152374590Y-123744732D01*
X152447213Y-123691971D01*
X152447215Y-123691968D01*
X152447219Y-123691966D01*
X152591966Y-123547219D01*
X152591968Y-123547215D01*
X152591971Y-123547213D01*
X152712284Y-123381614D01*
X152712283Y-123381614D01*
X152712287Y-123381610D01*
X152719117Y-123368204D01*
X152767091Y-123317409D01*
X152829602Y-123300500D01*
X155145932Y-123300500D01*
X155212971Y-123320185D01*
X155256416Y-123368203D01*
X155316657Y-123486433D01*
X155455483Y-123677510D01*
X155622490Y-123844517D01*
X155813567Y-123983343D01*
X155834634Y-123994077D01*
X156024003Y-124090566D01*
X156024005Y-124090566D01*
X156024008Y-124090568D01*
X156144412Y-124129689D01*
X156248631Y-124163553D01*
X156481903Y-124200500D01*
X156481908Y-124200500D01*
X156718097Y-124200500D01*
X156951368Y-124163553D01*
X157175992Y-124090568D01*
X157386433Y-123983343D01*
X157577510Y-123844517D01*
X157744517Y-123677510D01*
X157883343Y-123486433D01*
X157943583Y-123368204D01*
X157991558Y-123317409D01*
X158054068Y-123300500D01*
X161645932Y-123300500D01*
X161712971Y-123320185D01*
X161756416Y-123368203D01*
X161816657Y-123486433D01*
X161955483Y-123677510D01*
X162122490Y-123844517D01*
X162313567Y-123983343D01*
X162334634Y-123994077D01*
X162524003Y-124090566D01*
X162524005Y-124090566D01*
X162524008Y-124090568D01*
X162644412Y-124129689D01*
X162748631Y-124163553D01*
X162981903Y-124200500D01*
X162981908Y-124200500D01*
X163218097Y-124200500D01*
X163451368Y-124163553D01*
X163675992Y-124090568D01*
X163886433Y-123983343D01*
X164077510Y-123844517D01*
X164244517Y-123677510D01*
X164383343Y-123486433D01*
X164490568Y-123275992D01*
X164563553Y-123051368D01*
X164578642Y-122956102D01*
X164600500Y-122818097D01*
X164600500Y-122581902D01*
X164563553Y-122348631D01*
X164515513Y-122200781D01*
X164490568Y-122124008D01*
X164490566Y-122124005D01*
X164490566Y-122124003D01*
X164383342Y-121913566D01*
X164244517Y-121722490D01*
X164077510Y-121555483D01*
X163886433Y-121416657D01*
X163675996Y-121309433D01*
X163451368Y-121236446D01*
X163218097Y-121199500D01*
X163218092Y-121199500D01*
X162981908Y-121199500D01*
X162981903Y-121199500D01*
X162748631Y-121236446D01*
X162524003Y-121309433D01*
X162313566Y-121416657D01*
X162206040Y-121494780D01*
X162122490Y-121555483D01*
X162122488Y-121555485D01*
X162122487Y-121555485D01*
X161955485Y-121722487D01*
X161955485Y-121722488D01*
X161955483Y-121722490D01*
X161895862Y-121804550D01*
X161816657Y-121913566D01*
X161784060Y-121977540D01*
X161763250Y-122018385D01*
X161756417Y-122031795D01*
X161708442Y-122082591D01*
X161645932Y-122099500D01*
X158054068Y-122099500D01*
X157987029Y-122079815D01*
X157943583Y-122031795D01*
X157936751Y-122018386D01*
X157883343Y-121913567D01*
X157744517Y-121722490D01*
X157577510Y-121555483D01*
X157386433Y-121416657D01*
X157175996Y-121309433D01*
X156951368Y-121236446D01*
X156718097Y-121199500D01*
X156718092Y-121199500D01*
X156481908Y-121199500D01*
X156481903Y-121199500D01*
X156248631Y-121236446D01*
X156024003Y-121309433D01*
X155813566Y-121416657D01*
X155706040Y-121494780D01*
X155622490Y-121555483D01*
X155622488Y-121555485D01*
X155622487Y-121555485D01*
X155455485Y-121722487D01*
X155455485Y-121722488D01*
X155455483Y-121722490D01*
X155395862Y-121804550D01*
X155316657Y-121913566D01*
X155284060Y-121977540D01*
X155263250Y-122018385D01*
X155256417Y-122031795D01*
X155208442Y-122082591D01*
X155145932Y-122099500D01*
X152829602Y-122099500D01*
X152762563Y-122079815D01*
X152719117Y-122031795D01*
X152712284Y-122018385D01*
X152591971Y-121852786D01*
X152447213Y-121708028D01*
X152281613Y-121587715D01*
X152281612Y-121587714D01*
X152281610Y-121587713D01*
X152218355Y-121555483D01*
X152099223Y-121494781D01*
X151904534Y-121431522D01*
X151729995Y-121403878D01*
X151702352Y-121399500D01*
X151497648Y-121399500D01*
X151473329Y-121403351D01*
X151295465Y-121431522D01*
X151100776Y-121494781D01*
X150918386Y-121587715D01*
X150752786Y-121708028D01*
X150608028Y-121852786D01*
X150487715Y-122018386D01*
X150394781Y-122200776D01*
X150331522Y-122395465D01*
X150299500Y-122597648D01*
X150299500Y-122802351D01*
X150323852Y-122956102D01*
X150314897Y-123025395D01*
X150269901Y-123078847D01*
X150203150Y-123099487D01*
X150201379Y-123099500D01*
X147829602Y-123099500D01*
X147762563Y-123079815D01*
X147719117Y-123031795D01*
X147712284Y-123018385D01*
X147591971Y-122852786D01*
X147447213Y-122708028D01*
X147281613Y-122587715D01*
X147281612Y-122587714D01*
X147281610Y-122587713D01*
X147224653Y-122558691D01*
X147099223Y-122494781D01*
X146904534Y-122431522D01*
X146729995Y-122403878D01*
X146702352Y-122399500D01*
X146497648Y-122399500D01*
X146473329Y-122403351D01*
X146295465Y-122431522D01*
X146100776Y-122494781D01*
X145918386Y-122587715D01*
X145752786Y-122708028D01*
X145608028Y-122852786D01*
X145487715Y-123018386D01*
X145394781Y-123200776D01*
X145331522Y-123395465D01*
X145299500Y-123597648D01*
X92100500Y-123597648D01*
X92100500Y-109810135D01*
X94257500Y-109810135D01*
X94257500Y-111429870D01*
X94257501Y-111429876D01*
X94263908Y-111489483D01*
X94314202Y-111624328D01*
X94314206Y-111624335D01*
X94400452Y-111739544D01*
X94400455Y-111739547D01*
X94515664Y-111825793D01*
X94515671Y-111825797D01*
X94650517Y-111876091D01*
X94650516Y-111876091D01*
X94657444Y-111876835D01*
X94710127Y-111882500D01*
X96329872Y-111882499D01*
X96389483Y-111876091D01*
X96524331Y-111825796D01*
X96639546Y-111739546D01*
X96725796Y-111624331D01*
X96776091Y-111489483D01*
X96782500Y-111429873D01*
X96782499Y-111391197D01*
X96802182Y-111324161D01*
X96854985Y-111278405D01*
X96924143Y-111268460D01*
X96987699Y-111297483D01*
X97006817Y-111318312D01*
X97097019Y-111442464D01*
X97237536Y-111582981D01*
X97398306Y-111699787D01*
X97476333Y-111739544D01*
X97575367Y-111790005D01*
X97575370Y-111790006D01*
X97669866Y-111820709D01*
X97764364Y-111851413D01*
X97960639Y-111882500D01*
X97960640Y-111882500D01*
X98159360Y-111882500D01*
X98159361Y-111882500D01*
X98355636Y-111851413D01*
X98544632Y-111790005D01*
X98721694Y-111699787D01*
X98882464Y-111582981D01*
X99022981Y-111442464D01*
X99139787Y-111281694D01*
X99219515Y-111125218D01*
X99267490Y-111074423D01*
X99335311Y-111057628D01*
X99401446Y-111080165D01*
X99440484Y-111125218D01*
X99520213Y-111281694D01*
X99637019Y-111442464D01*
X99777536Y-111582981D01*
X99938306Y-111699787D01*
X100016333Y-111739544D01*
X100115367Y-111790005D01*
X100115370Y-111790006D01*
X100209866Y-111820709D01*
X100304364Y-111851413D01*
X100500639Y-111882500D01*
X100500640Y-111882500D01*
X100699360Y-111882500D01*
X100699361Y-111882500D01*
X100895636Y-111851413D01*
X101084632Y-111790005D01*
X101261694Y-111699787D01*
X101422464Y-111582981D01*
X101562981Y-111442464D01*
X101679787Y-111281694D01*
X101759515Y-111125218D01*
X101807490Y-111074423D01*
X101875311Y-111057628D01*
X101941446Y-111080165D01*
X101980484Y-111125218D01*
X102060213Y-111281694D01*
X102177019Y-111442464D01*
X102317536Y-111582981D01*
X102478306Y-111699787D01*
X102556333Y-111739544D01*
X102655367Y-111790005D01*
X102655370Y-111790006D01*
X102749866Y-111820709D01*
X102844364Y-111851413D01*
X103040639Y-111882500D01*
X103040640Y-111882500D01*
X103239360Y-111882500D01*
X103239361Y-111882500D01*
X103435636Y-111851413D01*
X103624632Y-111790005D01*
X103801694Y-111699787D01*
X103962464Y-111582981D01*
X104102981Y-111442464D01*
X104219787Y-111281694D01*
X104299796Y-111124667D01*
X104347769Y-111073872D01*
X104415590Y-111057077D01*
X104481725Y-111079614D01*
X104520765Y-111124668D01*
X104600641Y-111281432D01*
X104717403Y-111442139D01*
X104717403Y-111442140D01*
X104857859Y-111582596D01*
X105018567Y-111699358D01*
X105195562Y-111789542D01*
X105384473Y-111850922D01*
X105430000Y-111858133D01*
X105430000Y-110908816D01*
X105446060Y-110924876D01*
X105532939Y-110975036D01*
X105629840Y-111001000D01*
X105730160Y-111001000D01*
X105827061Y-110975036D01*
X105913940Y-110924876D01*
X105930000Y-110908816D01*
X105930000Y-111858132D01*
X105975526Y-111850922D01*
X106164437Y-111789542D01*
X106341432Y-111699358D01*
X106502139Y-111582596D01*
X106502140Y-111582596D01*
X106642596Y-111442140D01*
X106642596Y-111442139D01*
X106759358Y-111281432D01*
X106849543Y-111104435D01*
X106910925Y-110915517D01*
X106918134Y-110870000D01*
X105968816Y-110870000D01*
X105984876Y-110853940D01*
X106035036Y-110767061D01*
X106061000Y-110670160D01*
X106061000Y-110569840D01*
X106035036Y-110472939D01*
X105984876Y-110386060D01*
X105968816Y-110370000D01*
X106918135Y-110370000D01*
X106918134Y-110369999D01*
X106910925Y-110324482D01*
X106849543Y-110135564D01*
X106759358Y-109958567D01*
X106642596Y-109797860D01*
X106642596Y-109797859D01*
X106502140Y-109657403D01*
X106341432Y-109540641D01*
X106164434Y-109450456D01*
X106164436Y-109450456D01*
X105975517Y-109389074D01*
X105930000Y-109381865D01*
X105930000Y-110331184D01*
X105913940Y-110315124D01*
X105827061Y-110264964D01*
X105730160Y-110239000D01*
X105629840Y-110239000D01*
X105532939Y-110264964D01*
X105446060Y-110315124D01*
X105430000Y-110331184D01*
X105430000Y-109381865D01*
X105422713Y-109375642D01*
X105384520Y-109317135D01*
X105384020Y-109247268D01*
X105415561Y-109193673D01*
X112462417Y-102146819D01*
X112523740Y-102113334D01*
X112550098Y-102110500D01*
X123740398Y-102110500D01*
X123807437Y-102130185D01*
X123850883Y-102178205D01*
X123857715Y-102191614D01*
X123978028Y-102357213D01*
X124122786Y-102501971D01*
X124231261Y-102580781D01*
X124288390Y-102622287D01*
X124379840Y-102668883D01*
X124381080Y-102669515D01*
X124431876Y-102717490D01*
X124448671Y-102785311D01*
X124426134Y-102851446D01*
X124381080Y-102890485D01*
X124288386Y-102937715D01*
X124122786Y-103058028D01*
X123978028Y-103202786D01*
X123857715Y-103368386D01*
X123764781Y-103550776D01*
X123701522Y-103745465D01*
X123669500Y-103947648D01*
X123669500Y-104152351D01*
X123701522Y-104354534D01*
X123764781Y-104549223D01*
X123828691Y-104674653D01*
X123841607Y-104700001D01*
X123857715Y-104731613D01*
X123978028Y-104897213D01*
X124122786Y-105041971D01*
X124277749Y-105154556D01*
X124288390Y-105162287D01*
X124360504Y-105199031D01*
X124381080Y-105209515D01*
X124431876Y-105257490D01*
X124448671Y-105325311D01*
X124426134Y-105391446D01*
X124381080Y-105430485D01*
X124288386Y-105477715D01*
X124122786Y-105598028D01*
X123978028Y-105742786D01*
X123857715Y-105908386D01*
X123764781Y-106090776D01*
X123701522Y-106285465D01*
X123669500Y-106487648D01*
X123669500Y-106692351D01*
X123701522Y-106894534D01*
X123764781Y-107089223D01*
X123857715Y-107271613D01*
X123978028Y-107437213D01*
X124122786Y-107581971D01*
X124277749Y-107694556D01*
X124288390Y-107702287D01*
X124379840Y-107748883D01*
X124381080Y-107749515D01*
X124431876Y-107797490D01*
X124448671Y-107865311D01*
X124426134Y-107931446D01*
X124381080Y-107970485D01*
X124288386Y-108017715D01*
X124122786Y-108138028D01*
X123978028Y-108282786D01*
X123857715Y-108448386D01*
X123764781Y-108630776D01*
X123701522Y-108825465D01*
X123669500Y-109027648D01*
X123669500Y-109232351D01*
X123701522Y-109434534D01*
X123764781Y-109629223D01*
X123828691Y-109754653D01*
X123857582Y-109811353D01*
X123857715Y-109811613D01*
X123978028Y-109977213D01*
X124122786Y-110121971D01*
X124277749Y-110234556D01*
X124288390Y-110242287D01*
X124354540Y-110275992D01*
X124381080Y-110289515D01*
X124431876Y-110337490D01*
X124448671Y-110405311D01*
X124426134Y-110471446D01*
X124381080Y-110510485D01*
X124288386Y-110557715D01*
X124122786Y-110678028D01*
X123978028Y-110822786D01*
X123857715Y-110988386D01*
X123764781Y-111170776D01*
X123701522Y-111365465D01*
X123669500Y-111567648D01*
X123669500Y-111772351D01*
X123701522Y-111974534D01*
X123764781Y-112169223D01*
X123857715Y-112351613D01*
X123978028Y-112517213D01*
X124122786Y-112661971D01*
X124277749Y-112774556D01*
X124288390Y-112782287D01*
X124360424Y-112818990D01*
X124381629Y-112829795D01*
X124432425Y-112877770D01*
X124449220Y-112945591D01*
X124426682Y-113011726D01*
X124381629Y-113050765D01*
X124288650Y-113098140D01*
X124123105Y-113218417D01*
X124123104Y-113218417D01*
X123978417Y-113363104D01*
X123978417Y-113363105D01*
X123858140Y-113528650D01*
X123765244Y-113710970D01*
X123702009Y-113905586D01*
X123693391Y-113960000D01*
X124536988Y-113960000D01*
X124504075Y-114017007D01*
X124470000Y-114144174D01*
X124470000Y-114275826D01*
X124504075Y-114402993D01*
X124536988Y-114460000D01*
X123693391Y-114460000D01*
X123702009Y-114514413D01*
X123765244Y-114709029D01*
X123858140Y-114891349D01*
X123978417Y-115056894D01*
X123978417Y-115056895D01*
X124123104Y-115201582D01*
X124288652Y-115321861D01*
X124381628Y-115369234D01*
X124432425Y-115417208D01*
X124449220Y-115485029D01*
X124426683Y-115551164D01*
X124381630Y-115590203D01*
X124288388Y-115637713D01*
X124122786Y-115758028D01*
X123978028Y-115902786D01*
X123857715Y-116068386D01*
X123764781Y-116250776D01*
X123701522Y-116445465D01*
X123669500Y-116647648D01*
X123669500Y-116852351D01*
X123701522Y-117054534D01*
X123764781Y-117249223D01*
X123857715Y-117431613D01*
X123978028Y-117597213D01*
X124122786Y-117741971D01*
X124277526Y-117854394D01*
X124288390Y-117862287D01*
X124377212Y-117907544D01*
X124470776Y-117955218D01*
X124470778Y-117955218D01*
X124470781Y-117955220D01*
X124570769Y-117987708D01*
X124665465Y-118018477D01*
X124766557Y-118034488D01*
X124867648Y-118050500D01*
X124867649Y-118050500D01*
X125072351Y-118050500D01*
X125072352Y-118050500D01*
X125274534Y-118018477D01*
X125469219Y-117955220D01*
X125651610Y-117862287D01*
X125792549Y-117759890D01*
X125817213Y-117741971D01*
X125817215Y-117741968D01*
X125817219Y-117741966D01*
X125961966Y-117597219D01*
X125961968Y-117597215D01*
X125961971Y-117597213D01*
X126014732Y-117524590D01*
X126082287Y-117431610D01*
X126175220Y-117249219D01*
X126238477Y-117054534D01*
X126270500Y-116852352D01*
X126270500Y-116647648D01*
X126238477Y-116445466D01*
X126175220Y-116250781D01*
X126175218Y-116250778D01*
X126175218Y-116250776D01*
X126140353Y-116182351D01*
X126082287Y-116068390D01*
X126016360Y-115977648D01*
X125961971Y-115902786D01*
X125817213Y-115758028D01*
X125651611Y-115637713D01*
X125558369Y-115590203D01*
X125507574Y-115542229D01*
X125490779Y-115474407D01*
X125513317Y-115408273D01*
X125558371Y-115369234D01*
X125651347Y-115321861D01*
X125816894Y-115201582D01*
X125816895Y-115201582D01*
X125961582Y-115056895D01*
X125961582Y-115056894D01*
X126081859Y-114891349D01*
X126174755Y-114709029D01*
X126237990Y-114514413D01*
X126246609Y-114460000D01*
X125403012Y-114460000D01*
X125435925Y-114402993D01*
X125470000Y-114275826D01*
X125470000Y-114144174D01*
X125435925Y-114017007D01*
X125403012Y-113960000D01*
X126246609Y-113960000D01*
X126237990Y-113905586D01*
X126174755Y-113710970D01*
X126081859Y-113528650D01*
X125961582Y-113363105D01*
X125961582Y-113363104D01*
X125816895Y-113218417D01*
X125651349Y-113098140D01*
X125558370Y-113050765D01*
X125507574Y-113002790D01*
X125490779Y-112934969D01*
X125513316Y-112868835D01*
X125558370Y-112829795D01*
X125558920Y-112829515D01*
X125651610Y-112782287D01*
X125672770Y-112766913D01*
X125817213Y-112661971D01*
X125817215Y-112661968D01*
X125817219Y-112661966D01*
X125961966Y-112517219D01*
X125961968Y-112517215D01*
X125961971Y-112517213D01*
X126014732Y-112444590D01*
X126082287Y-112351610D01*
X126175220Y-112169219D01*
X126238477Y-111974534D01*
X126270500Y-111772352D01*
X126270500Y-111567648D01*
X126250673Y-111442465D01*
X126240719Y-111379621D01*
X126249673Y-111310328D01*
X126294670Y-111256876D01*
X126361421Y-111236236D01*
X126366978Y-111236281D01*
X126381370Y-111236720D01*
X126402943Y-111242501D01*
X126561057Y-111242501D01*
X126561061Y-111242500D01*
X138815814Y-111242500D01*
X138882853Y-111262185D01*
X138928608Y-111314989D01*
X138938552Y-111384147D01*
X138938290Y-111385874D01*
X138921880Y-111489483D01*
X138909500Y-111567648D01*
X138909500Y-111772351D01*
X138941522Y-111974534D01*
X139004781Y-112169223D01*
X139097715Y-112351613D01*
X139218028Y-112517213D01*
X139362786Y-112661971D01*
X139517749Y-112774556D01*
X139528390Y-112782287D01*
X139619840Y-112828883D01*
X139621080Y-112829515D01*
X139671876Y-112877490D01*
X139688671Y-112945311D01*
X139666134Y-113011446D01*
X139621080Y-113050485D01*
X139528386Y-113097715D01*
X139362786Y-113218028D01*
X139218028Y-113362786D01*
X139097715Y-113528386D01*
X139004781Y-113710776D01*
X138941522Y-113905465D01*
X138909500Y-114107648D01*
X138909500Y-114312351D01*
X138941522Y-114514534D01*
X139004781Y-114709223D01*
X139059276Y-114816173D01*
X139089138Y-114874781D01*
X139097715Y-114891613D01*
X139218028Y-115057213D01*
X139362784Y-115201969D01*
X139399068Y-115228330D01*
X139441735Y-115283659D01*
X139447715Y-115353273D01*
X139415109Y-115415068D01*
X139354271Y-115449426D01*
X139339440Y-115451938D01*
X139302519Y-115455907D01*
X139167671Y-115506202D01*
X139167664Y-115506206D01*
X139052455Y-115592452D01*
X139052452Y-115592455D01*
X138966206Y-115707664D01*
X138966202Y-115707671D01*
X138915908Y-115842517D01*
X138909501Y-115902116D01*
X138909501Y-115902123D01*
X138909500Y-115902135D01*
X138909500Y-117597870D01*
X138909501Y-117597876D01*
X138915908Y-117657483D01*
X138966202Y-117792328D01*
X138966206Y-117792335D01*
X139052452Y-117907544D01*
X139052455Y-117907547D01*
X139167664Y-117993793D01*
X139167671Y-117993797D01*
X139302517Y-118044091D01*
X139302516Y-118044091D01*
X139309444Y-118044835D01*
X139362127Y-118050500D01*
X141057872Y-118050499D01*
X141117483Y-118044091D01*
X141252331Y-117993796D01*
X141367546Y-117907546D01*
X141453796Y-117792331D01*
X141504091Y-117657483D01*
X141510500Y-117597873D01*
X141510500Y-117597682D01*
X150300000Y-117597682D01*
X150300000Y-117802317D01*
X150332009Y-118004417D01*
X150395244Y-118199031D01*
X150488141Y-118381350D01*
X150488147Y-118381359D01*
X150520523Y-118425921D01*
X150520524Y-118425922D01*
X151200000Y-117746446D01*
X151200000Y-117752661D01*
X151227259Y-117854394D01*
X151279920Y-117945606D01*
X151354394Y-118020080D01*
X151445606Y-118072741D01*
X151547339Y-118100000D01*
X151553553Y-118100000D01*
X150874076Y-118779474D01*
X150918650Y-118811859D01*
X151100968Y-118904755D01*
X151295582Y-118967990D01*
X151497683Y-119000000D01*
X151702317Y-119000000D01*
X151904417Y-118967990D01*
X152099031Y-118904755D01*
X152281349Y-118811859D01*
X152325921Y-118779474D01*
X151646447Y-118100000D01*
X151652661Y-118100000D01*
X151754394Y-118072741D01*
X151845606Y-118020080D01*
X151920080Y-117945606D01*
X151972741Y-117854394D01*
X152000000Y-117752661D01*
X152000000Y-117746447D01*
X152679474Y-118425921D01*
X152711859Y-118381349D01*
X152804755Y-118199031D01*
X152842799Y-118081947D01*
X155100000Y-118081947D01*
X155100000Y-118318052D01*
X155136934Y-118551247D01*
X155209897Y-118775802D01*
X155317087Y-118986174D01*
X155377338Y-119069104D01*
X155377340Y-119069105D01*
X156076212Y-118370233D01*
X156087482Y-118412292D01*
X156159890Y-118537708D01*
X156262292Y-118640110D01*
X156387708Y-118712518D01*
X156429765Y-118723787D01*
X155730893Y-119422658D01*
X155813828Y-119482914D01*
X156024197Y-119590102D01*
X156248752Y-119663065D01*
X156248751Y-119663065D01*
X156481948Y-119700000D01*
X156718052Y-119700000D01*
X156951247Y-119663065D01*
X157175802Y-119590102D01*
X157386163Y-119482918D01*
X157386169Y-119482914D01*
X157469104Y-119422658D01*
X157469105Y-119422658D01*
X156770233Y-118723787D01*
X156812292Y-118712518D01*
X156937708Y-118640110D01*
X157040110Y-118537708D01*
X157112518Y-118412292D01*
X157123787Y-118370234D01*
X157822658Y-119069105D01*
X157822658Y-119069104D01*
X157882914Y-118986169D01*
X157882918Y-118986163D01*
X157990102Y-118775802D01*
X158063065Y-118551247D01*
X158100000Y-118318052D01*
X158100000Y-118081947D01*
X161600000Y-118081947D01*
X161600000Y-118318052D01*
X161636934Y-118551247D01*
X161709897Y-118775802D01*
X161817087Y-118986174D01*
X161877338Y-119069104D01*
X161877340Y-119069105D01*
X162576212Y-118370233D01*
X162587482Y-118412292D01*
X162659890Y-118537708D01*
X162762292Y-118640110D01*
X162887708Y-118712518D01*
X162929765Y-118723787D01*
X162230893Y-119422658D01*
X162313828Y-119482914D01*
X162524197Y-119590102D01*
X162748752Y-119663065D01*
X162748751Y-119663065D01*
X162981948Y-119700000D01*
X163218052Y-119700000D01*
X163451247Y-119663065D01*
X163675802Y-119590102D01*
X163886163Y-119482918D01*
X163886169Y-119482914D01*
X163969104Y-119422658D01*
X163969105Y-119422658D01*
X163270233Y-118723787D01*
X163312292Y-118712518D01*
X163437708Y-118640110D01*
X163540110Y-118537708D01*
X163612518Y-118412292D01*
X163623787Y-118370233D01*
X164322658Y-119069105D01*
X164322658Y-119069104D01*
X164382914Y-118986169D01*
X164382918Y-118986163D01*
X164490102Y-118775802D01*
X164563065Y-118551247D01*
X164600000Y-118318052D01*
X164600000Y-118081947D01*
X164563065Y-117848752D01*
X164490102Y-117624197D01*
X164382914Y-117413828D01*
X164322658Y-117330894D01*
X164322658Y-117330893D01*
X163623787Y-118029765D01*
X163612518Y-117987708D01*
X163540110Y-117862292D01*
X163437708Y-117759890D01*
X163312292Y-117687482D01*
X163270234Y-117676212D01*
X163969105Y-116977340D01*
X163969104Y-116977338D01*
X163886174Y-116917087D01*
X163675802Y-116809897D01*
X163451247Y-116736934D01*
X163451248Y-116736934D01*
X163218052Y-116700000D01*
X162981948Y-116700000D01*
X162748752Y-116736934D01*
X162524197Y-116809897D01*
X162313830Y-116917084D01*
X162230894Y-116977340D01*
X162929766Y-117676212D01*
X162887708Y-117687482D01*
X162762292Y-117759890D01*
X162659890Y-117862292D01*
X162587482Y-117987708D01*
X162576212Y-118029765D01*
X161877340Y-117330894D01*
X161817084Y-117413830D01*
X161709897Y-117624197D01*
X161636934Y-117848752D01*
X161600000Y-118081947D01*
X158100000Y-118081947D01*
X158063065Y-117848752D01*
X157990102Y-117624197D01*
X157882914Y-117413828D01*
X157822658Y-117330894D01*
X157822658Y-117330893D01*
X157123787Y-118029765D01*
X157112518Y-117987708D01*
X157040110Y-117862292D01*
X156937708Y-117759890D01*
X156812292Y-117687482D01*
X156770234Y-117676212D01*
X157469105Y-116977340D01*
X157469104Y-116977339D01*
X157386174Y-116917087D01*
X157175802Y-116809897D01*
X156951247Y-116736934D01*
X156951248Y-116736934D01*
X156718052Y-116700000D01*
X156481948Y-116700000D01*
X156248752Y-116736934D01*
X156024197Y-116809897D01*
X155813830Y-116917084D01*
X155730894Y-116977340D01*
X156429766Y-117676212D01*
X156387708Y-117687482D01*
X156262292Y-117759890D01*
X156159890Y-117862292D01*
X156087482Y-117987708D01*
X156076212Y-118029766D01*
X155377340Y-117330894D01*
X155317084Y-117413830D01*
X155209897Y-117624197D01*
X155136934Y-117848752D01*
X155100000Y-118081947D01*
X152842799Y-118081947D01*
X152856833Y-118038756D01*
X152856833Y-118038755D01*
X152867989Y-118004421D01*
X152867989Y-118004418D01*
X152900000Y-117802317D01*
X152900000Y-117597682D01*
X152867990Y-117395582D01*
X152804755Y-117200968D01*
X152743574Y-117080894D01*
X152711859Y-117018650D01*
X152679474Y-116974077D01*
X152679474Y-116974076D01*
X152000000Y-117653551D01*
X152000000Y-117647339D01*
X151972741Y-117545606D01*
X151920080Y-117454394D01*
X151845606Y-117379920D01*
X151754394Y-117327259D01*
X151652661Y-117300000D01*
X151646446Y-117300000D01*
X152325922Y-116620524D01*
X152325921Y-116620523D01*
X152281359Y-116588147D01*
X152281350Y-116588141D01*
X152099031Y-116495244D01*
X151904417Y-116432009D01*
X151702317Y-116400000D01*
X151497683Y-116400000D01*
X151295582Y-116432009D01*
X151100968Y-116495244D01*
X150918644Y-116588143D01*
X150874077Y-116620523D01*
X150874077Y-116620524D01*
X151553554Y-117300000D01*
X151547339Y-117300000D01*
X151445606Y-117327259D01*
X151354394Y-117379920D01*
X151279920Y-117454394D01*
X151227259Y-117545606D01*
X151200000Y-117647339D01*
X151200000Y-117653553D01*
X150520524Y-116974077D01*
X150520523Y-116974077D01*
X150488143Y-117018644D01*
X150395244Y-117200968D01*
X150332009Y-117395582D01*
X150300000Y-117597682D01*
X141510500Y-117597682D01*
X141510499Y-115902128D01*
X141504091Y-115842517D01*
X141479083Y-115775468D01*
X141453797Y-115707671D01*
X141453793Y-115707664D01*
X141367547Y-115592455D01*
X141367544Y-115592452D01*
X141252335Y-115506206D01*
X141252328Y-115506202D01*
X141117482Y-115455908D01*
X141117483Y-115455908D01*
X141080560Y-115451939D01*
X141016009Y-115425201D01*
X140976160Y-115367809D01*
X140973667Y-115297984D01*
X141009319Y-115237895D01*
X141020930Y-115228331D01*
X141057219Y-115201966D01*
X141201966Y-115057219D01*
X141201968Y-115057215D01*
X141201971Y-115057213D01*
X141266995Y-114967713D01*
X141322287Y-114891610D01*
X141415220Y-114709219D01*
X141478477Y-114514534D01*
X141510500Y-114312352D01*
X141510500Y-114107648D01*
X141496144Y-114017007D01*
X141478477Y-113905465D01*
X141415218Y-113710776D01*
X141322419Y-113528650D01*
X141322287Y-113528390D01*
X141314556Y-113517749D01*
X141201971Y-113362786D01*
X141057213Y-113218028D01*
X140891614Y-113097715D01*
X140885006Y-113094348D01*
X140798917Y-113050483D01*
X140748123Y-113002511D01*
X140731328Y-112934690D01*
X140753865Y-112868555D01*
X140798917Y-112829516D01*
X140891610Y-112782287D01*
X140912770Y-112766913D01*
X141057213Y-112661971D01*
X141057215Y-112661968D01*
X141057219Y-112661966D01*
X141201966Y-112517219D01*
X141201968Y-112517215D01*
X141201971Y-112517213D01*
X141254732Y-112444590D01*
X141322287Y-112351610D01*
X141415220Y-112169219D01*
X141456859Y-112041065D01*
X141496295Y-111983393D01*
X141560654Y-111956194D01*
X141629500Y-111968108D01*
X141662470Y-111991705D01*
X145305922Y-115635157D01*
X145339407Y-115696480D01*
X145336173Y-115761155D01*
X145331522Y-115775468D01*
X145299500Y-115977648D01*
X145299500Y-116182351D01*
X145331522Y-116384534D01*
X145394781Y-116579223D01*
X145487715Y-116761613D01*
X145608028Y-116927213D01*
X145752786Y-117071971D01*
X145907749Y-117184556D01*
X145918390Y-117192287D01*
X146030125Y-117249219D01*
X146100776Y-117285218D01*
X146100778Y-117285218D01*
X146100781Y-117285220D01*
X146205137Y-117319127D01*
X146295465Y-117348477D01*
X146396557Y-117364488D01*
X146497648Y-117380500D01*
X146497649Y-117380500D01*
X146702351Y-117380500D01*
X146702352Y-117380500D01*
X146904534Y-117348477D01*
X147099219Y-117285220D01*
X147281610Y-117192287D01*
X147434931Y-117080894D01*
X147447213Y-117071971D01*
X147447215Y-117071968D01*
X147447219Y-117071966D01*
X147591966Y-116927219D01*
X147591968Y-116927215D01*
X147591971Y-116927213D01*
X147712284Y-116761614D01*
X147712285Y-116761613D01*
X147712287Y-116761610D01*
X147800671Y-116588147D01*
X147805216Y-116579228D01*
X147805218Y-116579223D01*
X147805220Y-116579219D01*
X147868477Y-116384534D01*
X147900500Y-116182352D01*
X147900500Y-115977648D01*
X147888539Y-115902128D01*
X147868477Y-115775465D01*
X147809013Y-115592455D01*
X147805220Y-115580781D01*
X147805218Y-115580778D01*
X147805218Y-115580776D01*
X147754645Y-115481523D01*
X147712287Y-115398390D01*
X147679508Y-115353273D01*
X147591971Y-115232786D01*
X147447213Y-115088028D01*
X147281613Y-114967715D01*
X147281612Y-114967714D01*
X147281610Y-114967713D01*
X147224653Y-114938691D01*
X147099223Y-114874781D01*
X146904534Y-114811522D01*
X146729995Y-114783878D01*
X146702352Y-114779500D01*
X146497648Y-114779500D01*
X146459599Y-114785526D01*
X146295468Y-114811522D01*
X146286717Y-114814365D01*
X146281154Y-114816173D01*
X146211313Y-114818167D01*
X146155157Y-114785922D01*
X141649590Y-110280355D01*
X141649588Y-110280352D01*
X141530717Y-110161481D01*
X141530716Y-110161480D01*
X141443904Y-110111360D01*
X141393785Y-110082423D01*
X141334856Y-110066633D01*
X141327082Y-110063368D01*
X141306264Y-110046423D01*
X141283339Y-110032450D01*
X141279574Y-110024700D01*
X141272893Y-110019262D01*
X141264539Y-109993748D01*
X141252810Y-109969602D01*
X141253832Y-109961048D01*
X141251152Y-109952861D01*
X141257918Y-109926881D01*
X141261105Y-109900227D01*
X141268040Y-109888014D01*
X141268761Y-109885247D01*
X141270546Y-109883600D01*
X141274776Y-109876153D01*
X141321859Y-109811350D01*
X141414755Y-109629029D01*
X141477990Y-109434413D01*
X141486609Y-109380000D01*
X140643012Y-109380000D01*
X140675925Y-109322993D01*
X140710000Y-109195826D01*
X140710000Y-109064174D01*
X140675925Y-108937007D01*
X140643012Y-108880000D01*
X141486609Y-108880000D01*
X141477990Y-108825586D01*
X141414755Y-108630970D01*
X141321859Y-108448650D01*
X141201582Y-108283105D01*
X141201582Y-108283104D01*
X141056895Y-108138417D01*
X140891349Y-108018140D01*
X140798370Y-107970765D01*
X140747574Y-107922790D01*
X140730779Y-107854969D01*
X140753316Y-107788835D01*
X140798370Y-107749795D01*
X140798920Y-107749515D01*
X140891610Y-107702287D01*
X140912770Y-107686913D01*
X141057213Y-107581971D01*
X141057215Y-107581968D01*
X141057219Y-107581966D01*
X141201966Y-107437219D01*
X141201968Y-107437215D01*
X141201971Y-107437213D01*
X141254732Y-107364590D01*
X141322287Y-107271610D01*
X141415220Y-107089219D01*
X141478477Y-106894534D01*
X141510500Y-106692352D01*
X141510500Y-106487648D01*
X141478477Y-106285466D01*
X141415220Y-106090781D01*
X141415218Y-106090778D01*
X141415218Y-106090776D01*
X141381503Y-106024607D01*
X141322287Y-105908390D01*
X141252154Y-105811859D01*
X141201971Y-105742786D01*
X141057213Y-105598028D01*
X140891614Y-105477715D01*
X140885006Y-105474348D01*
X140798917Y-105430483D01*
X140793602Y-105425463D01*
X140786616Y-105423298D01*
X140768542Y-105401796D01*
X140748123Y-105382511D01*
X140746364Y-105375411D01*
X140741659Y-105369813D01*
X140738079Y-105341953D01*
X140731328Y-105314690D01*
X140733687Y-105307767D01*
X140732755Y-105300513D01*
X140744805Y-105275141D01*
X140753865Y-105248555D01*
X140760329Y-105242453D01*
X140762730Y-105237400D01*
X140778827Y-105224995D01*
X140789748Y-105214690D01*
X140794221Y-105211908D01*
X140891610Y-105162287D01*
X140995726Y-105086642D01*
X140999527Y-105084280D01*
X141029053Y-105076089D01*
X141057914Y-105065792D01*
X141062408Y-105066837D01*
X141066854Y-105065604D01*
X141096127Y-105074678D01*
X141125968Y-105081618D01*
X141131105Y-105085521D01*
X141133591Y-105086292D01*
X141136191Y-105089385D01*
X141152674Y-105101909D01*
X146305922Y-110255157D01*
X146339407Y-110316480D01*
X146336173Y-110381155D01*
X146331522Y-110395468D01*
X146319252Y-110472939D01*
X146299500Y-110597648D01*
X146299500Y-110802352D01*
X146303878Y-110829995D01*
X146331522Y-111004534D01*
X146394781Y-111199223D01*
X146436802Y-111281692D01*
X146479487Y-111365466D01*
X146487715Y-111381613D01*
X146608028Y-111547213D01*
X146752786Y-111691971D01*
X146907749Y-111804556D01*
X146918390Y-111812287D01*
X147008366Y-111858132D01*
X147100776Y-111905218D01*
X147100778Y-111905218D01*
X147100781Y-111905220D01*
X147205137Y-111939127D01*
X147295465Y-111968477D01*
X147389640Y-111983393D01*
X147497648Y-112000500D01*
X147497649Y-112000500D01*
X147702351Y-112000500D01*
X147702352Y-112000500D01*
X147904534Y-111968477D01*
X148099219Y-111905220D01*
X148281610Y-111812287D01*
X148381733Y-111739544D01*
X148447213Y-111691971D01*
X148447215Y-111691968D01*
X148447219Y-111691966D01*
X148591966Y-111547219D01*
X148591968Y-111547215D01*
X148591971Y-111547213D01*
X148668073Y-111442466D01*
X148712287Y-111381610D01*
X148805220Y-111199219D01*
X148868477Y-111004534D01*
X148900500Y-110802352D01*
X148900500Y-110597648D01*
X148876148Y-110443898D01*
X148885103Y-110374605D01*
X148930099Y-110321153D01*
X148996850Y-110300513D01*
X148998621Y-110300500D01*
X150870398Y-110300500D01*
X150937437Y-110320185D01*
X150980882Y-110368204D01*
X150981974Y-110370346D01*
X150987715Y-110381614D01*
X151108028Y-110547213D01*
X151252786Y-110691971D01*
X151407749Y-110804556D01*
X151418390Y-110812287D01*
X151531658Y-110870000D01*
X151600776Y-110905218D01*
X151600778Y-110905218D01*
X151600781Y-110905220D01*
X151661276Y-110924876D01*
X151795465Y-110968477D01*
X151836877Y-110975036D01*
X151997648Y-111000500D01*
X151997649Y-111000500D01*
X152202351Y-111000500D01*
X152202352Y-111000500D01*
X152404534Y-110968477D01*
X152599219Y-110905220D01*
X152781610Y-110812287D01*
X152909513Y-110719361D01*
X152947213Y-110691971D01*
X152947215Y-110691968D01*
X152947219Y-110691966D01*
X153091966Y-110547219D01*
X153091968Y-110547215D01*
X153091971Y-110547213D01*
X153198926Y-110400000D01*
X153212287Y-110381610D01*
X153219117Y-110368204D01*
X153267091Y-110317409D01*
X153329602Y-110300500D01*
X155145932Y-110300500D01*
X155212971Y-110320185D01*
X155256416Y-110368203D01*
X155316657Y-110486433D01*
X155455483Y-110677510D01*
X155622490Y-110844517D01*
X155813567Y-110983343D01*
X155847240Y-111000500D01*
X156024003Y-111090566D01*
X156024005Y-111090566D01*
X156024008Y-111090568D01*
X156144412Y-111129689D01*
X156248631Y-111163553D01*
X156481903Y-111200500D01*
X156481908Y-111200500D01*
X156718097Y-111200500D01*
X156951368Y-111163553D01*
X156983640Y-111153067D01*
X157175992Y-111090568D01*
X157386433Y-110983343D01*
X157577510Y-110844517D01*
X157744517Y-110677510D01*
X157883343Y-110486433D01*
X157943583Y-110368204D01*
X157991558Y-110317409D01*
X158054068Y-110300500D01*
X161645932Y-110300500D01*
X161712971Y-110320185D01*
X161756416Y-110368203D01*
X161816657Y-110486433D01*
X161955483Y-110677510D01*
X162122490Y-110844517D01*
X162313567Y-110983343D01*
X162347240Y-111000500D01*
X162524003Y-111090566D01*
X162524005Y-111090566D01*
X162524008Y-111090568D01*
X162644412Y-111129689D01*
X162748631Y-111163553D01*
X162981903Y-111200500D01*
X162981908Y-111200500D01*
X163218097Y-111200500D01*
X163451368Y-111163553D01*
X163483640Y-111153067D01*
X163675992Y-111090568D01*
X163886433Y-110983343D01*
X164077510Y-110844517D01*
X164244517Y-110677510D01*
X164383343Y-110486433D01*
X164490568Y-110275992D01*
X164563553Y-110051368D01*
X164576388Y-109970332D01*
X164600500Y-109818097D01*
X164600500Y-109581902D01*
X164563553Y-109348631D01*
X164513903Y-109195826D01*
X164490568Y-109124008D01*
X164490566Y-109124005D01*
X164490566Y-109124003D01*
X164383342Y-108913566D01*
X164358955Y-108880000D01*
X164244517Y-108722490D01*
X164077510Y-108555483D01*
X163886433Y-108416657D01*
X163675996Y-108309433D01*
X163451368Y-108236446D01*
X163218097Y-108199500D01*
X163218092Y-108199500D01*
X162981908Y-108199500D01*
X162981903Y-108199500D01*
X162748631Y-108236446D01*
X162524003Y-108309433D01*
X162313566Y-108416657D01*
X162206040Y-108494780D01*
X162122490Y-108555483D01*
X162122488Y-108555485D01*
X162122487Y-108555485D01*
X161955485Y-108722487D01*
X161955485Y-108722488D01*
X161955483Y-108722490D01*
X161950099Y-108729901D01*
X161816657Y-108913566D01*
X161784060Y-108977540D01*
X161763250Y-109018385D01*
X161756417Y-109031795D01*
X161708442Y-109082591D01*
X161645932Y-109099500D01*
X158054068Y-109099500D01*
X157987029Y-109079815D01*
X157943583Y-109031795D01*
X157936753Y-109018390D01*
X157883343Y-108913567D01*
X157744517Y-108722490D01*
X157577510Y-108555483D01*
X157386433Y-108416657D01*
X157175996Y-108309433D01*
X156951368Y-108236446D01*
X156718097Y-108199500D01*
X156718092Y-108199500D01*
X156481908Y-108199500D01*
X156481903Y-108199500D01*
X156248631Y-108236446D01*
X156024003Y-108309433D01*
X155813566Y-108416657D01*
X155706040Y-108494780D01*
X155622490Y-108555483D01*
X155622488Y-108555485D01*
X155622487Y-108555485D01*
X155455485Y-108722487D01*
X155455485Y-108722488D01*
X155455483Y-108722490D01*
X155450099Y-108729901D01*
X155316657Y-108913566D01*
X155284060Y-108977540D01*
X155263250Y-109018385D01*
X155256417Y-109031795D01*
X155208442Y-109082591D01*
X155145932Y-109099500D01*
X153329602Y-109099500D01*
X153262563Y-109079815D01*
X153219117Y-109031795D01*
X153212284Y-109018385D01*
X153091971Y-108852786D01*
X152947213Y-108708028D01*
X152781613Y-108587715D01*
X152781612Y-108587714D01*
X152781610Y-108587713D01*
X152718355Y-108555483D01*
X152599223Y-108494781D01*
X152404534Y-108431522D01*
X152229995Y-108403878D01*
X152202352Y-108399500D01*
X151997648Y-108399500D01*
X151973329Y-108403351D01*
X151795465Y-108431522D01*
X151600776Y-108494781D01*
X151418386Y-108587715D01*
X151252786Y-108708028D01*
X151108028Y-108852786D01*
X150987715Y-109018385D01*
X150980883Y-109031795D01*
X150932909Y-109082591D01*
X150870398Y-109099500D01*
X148686670Y-109099500D01*
X148686654Y-109099499D01*
X148679058Y-109099499D01*
X148520943Y-109099499D01*
X148444579Y-109119961D01*
X148368214Y-109140423D01*
X148368209Y-109140426D01*
X148231290Y-109219475D01*
X148231286Y-109219478D01*
X148044841Y-109405922D01*
X147983517Y-109439406D01*
X147918845Y-109436172D01*
X147904535Y-109431523D01*
X147803443Y-109415511D01*
X147702352Y-109399500D01*
X147497648Y-109399500D01*
X147459599Y-109405526D01*
X147295468Y-109431522D01*
X147286717Y-109434365D01*
X147281154Y-109436173D01*
X147211313Y-109438167D01*
X147155157Y-109405922D01*
X142346917Y-104597682D01*
X150800000Y-104597682D01*
X150800000Y-104802317D01*
X150832009Y-105004417D01*
X150895244Y-105199031D01*
X150988141Y-105381350D01*
X150988147Y-105381359D01*
X151020523Y-105425921D01*
X151020524Y-105425922D01*
X151700000Y-104746446D01*
X151700000Y-104752661D01*
X151727259Y-104854394D01*
X151779920Y-104945606D01*
X151854394Y-105020080D01*
X151945606Y-105072741D01*
X152047339Y-105100000D01*
X152053553Y-105100000D01*
X151374076Y-105779474D01*
X151418650Y-105811859D01*
X151600968Y-105904755D01*
X151795582Y-105967990D01*
X151997683Y-106000000D01*
X152202317Y-106000000D01*
X152404417Y-105967990D01*
X152599031Y-105904755D01*
X152781349Y-105811859D01*
X152825921Y-105779474D01*
X152146447Y-105100000D01*
X152152661Y-105100000D01*
X152254394Y-105072741D01*
X152345606Y-105020080D01*
X152420080Y-104945606D01*
X152472741Y-104854394D01*
X152500000Y-104752661D01*
X152500000Y-104746447D01*
X153179474Y-105425921D01*
X153211859Y-105381349D01*
X153304755Y-105199031D01*
X153342799Y-105081947D01*
X155100000Y-105081947D01*
X155100000Y-105318052D01*
X155136934Y-105551247D01*
X155209897Y-105775802D01*
X155317087Y-105986174D01*
X155377338Y-106069104D01*
X155377340Y-106069105D01*
X156076212Y-105370233D01*
X156087482Y-105412292D01*
X156159890Y-105537708D01*
X156262292Y-105640110D01*
X156387708Y-105712518D01*
X156429765Y-105723787D01*
X155730893Y-106422658D01*
X155813828Y-106482914D01*
X156024197Y-106590102D01*
X156248752Y-106663065D01*
X156248751Y-106663065D01*
X156481948Y-106700000D01*
X156718052Y-106700000D01*
X156951247Y-106663065D01*
X157175802Y-106590102D01*
X157386163Y-106482918D01*
X157386169Y-106482914D01*
X157469104Y-106422658D01*
X157469105Y-106422658D01*
X156770233Y-105723787D01*
X156812292Y-105712518D01*
X156937708Y-105640110D01*
X157040110Y-105537708D01*
X157112518Y-105412292D01*
X157123787Y-105370234D01*
X157822658Y-106069105D01*
X157822658Y-106069104D01*
X157882914Y-105986169D01*
X157882918Y-105986163D01*
X157990102Y-105775802D01*
X158063065Y-105551247D01*
X158100000Y-105318052D01*
X158100000Y-105081947D01*
X161600000Y-105081947D01*
X161600000Y-105318052D01*
X161636934Y-105551247D01*
X161709897Y-105775802D01*
X161817087Y-105986174D01*
X161877338Y-106069104D01*
X161877340Y-106069105D01*
X162576212Y-105370233D01*
X162587482Y-105412292D01*
X162659890Y-105537708D01*
X162762292Y-105640110D01*
X162887708Y-105712518D01*
X162929765Y-105723787D01*
X162230893Y-106422658D01*
X162313828Y-106482914D01*
X162524197Y-106590102D01*
X162748752Y-106663065D01*
X162748751Y-106663065D01*
X162981948Y-106700000D01*
X163218052Y-106700000D01*
X163451247Y-106663065D01*
X163675802Y-106590102D01*
X163886163Y-106482918D01*
X163886169Y-106482914D01*
X163969104Y-106422658D01*
X163969105Y-106422658D01*
X163270233Y-105723787D01*
X163312292Y-105712518D01*
X163437708Y-105640110D01*
X163540110Y-105537708D01*
X163612518Y-105412292D01*
X163623787Y-105370233D01*
X164322658Y-106069105D01*
X164322658Y-106069104D01*
X164382914Y-105986169D01*
X164382918Y-105986163D01*
X164490102Y-105775802D01*
X164563065Y-105551247D01*
X164600000Y-105318052D01*
X164600000Y-105081947D01*
X164563065Y-104848752D01*
X164490102Y-104624197D01*
X164382914Y-104413828D01*
X164322658Y-104330894D01*
X164322658Y-104330893D01*
X163623787Y-105029765D01*
X163612518Y-104987708D01*
X163540110Y-104862292D01*
X163437708Y-104759890D01*
X163312292Y-104687482D01*
X163270234Y-104676212D01*
X163969105Y-103977340D01*
X163969104Y-103977338D01*
X163886174Y-103917087D01*
X163675802Y-103809897D01*
X163451247Y-103736934D01*
X163451248Y-103736934D01*
X163218052Y-103700000D01*
X162981948Y-103700000D01*
X162748752Y-103736934D01*
X162524197Y-103809897D01*
X162313830Y-103917084D01*
X162230894Y-103977340D01*
X162929766Y-104676212D01*
X162887708Y-104687482D01*
X162762292Y-104759890D01*
X162659890Y-104862292D01*
X162587482Y-104987708D01*
X162576212Y-105029765D01*
X161877340Y-104330894D01*
X161817084Y-104413830D01*
X161709897Y-104624197D01*
X161636934Y-104848752D01*
X161600000Y-105081947D01*
X158100000Y-105081947D01*
X158063065Y-104848752D01*
X157990102Y-104624197D01*
X157882914Y-104413828D01*
X157822658Y-104330894D01*
X157822658Y-104330893D01*
X157123787Y-105029765D01*
X157112518Y-104987708D01*
X157040110Y-104862292D01*
X156937708Y-104759890D01*
X156812292Y-104687482D01*
X156770234Y-104676212D01*
X157469105Y-103977340D01*
X157469104Y-103977339D01*
X157386174Y-103917087D01*
X157175802Y-103809897D01*
X156951247Y-103736934D01*
X156951248Y-103736934D01*
X156718052Y-103700000D01*
X156481948Y-103700000D01*
X156248752Y-103736934D01*
X156024197Y-103809897D01*
X155813830Y-103917084D01*
X155730894Y-103977340D01*
X156429766Y-104676212D01*
X156387708Y-104687482D01*
X156262292Y-104759890D01*
X156159890Y-104862292D01*
X156087482Y-104987708D01*
X156076212Y-105029766D01*
X155377340Y-104330894D01*
X155317084Y-104413830D01*
X155209897Y-104624197D01*
X155136934Y-104848752D01*
X155100000Y-105081947D01*
X153342799Y-105081947D01*
X153356833Y-105038756D01*
X153356833Y-105038755D01*
X153367989Y-105004421D01*
X153367989Y-105004418D01*
X153400000Y-104802317D01*
X153400000Y-104597682D01*
X153367990Y-104395582D01*
X153304755Y-104200968D01*
X153243574Y-104080894D01*
X153211859Y-104018650D01*
X153179474Y-103974077D01*
X153179474Y-103974076D01*
X152500000Y-104653551D01*
X152500000Y-104647339D01*
X152472741Y-104545606D01*
X152420080Y-104454394D01*
X152345606Y-104379920D01*
X152254394Y-104327259D01*
X152152661Y-104300000D01*
X152146446Y-104300000D01*
X152825922Y-103620524D01*
X152825921Y-103620523D01*
X152781359Y-103588147D01*
X152781350Y-103588141D01*
X152599031Y-103495244D01*
X152404417Y-103432009D01*
X152202317Y-103400000D01*
X151997683Y-103400000D01*
X151795582Y-103432009D01*
X151600968Y-103495244D01*
X151418644Y-103588143D01*
X151374077Y-103620523D01*
X151374077Y-103620524D01*
X152053554Y-104300000D01*
X152047339Y-104300000D01*
X151945606Y-104327259D01*
X151854394Y-104379920D01*
X151779920Y-104454394D01*
X151727259Y-104545606D01*
X151700000Y-104647339D01*
X151700000Y-104653553D01*
X151020524Y-103974077D01*
X151020523Y-103974077D01*
X150988143Y-104018644D01*
X150895244Y-104200968D01*
X150832009Y-104395582D01*
X150800000Y-104597682D01*
X142346917Y-104597682D01*
X141491719Y-103742484D01*
X141461469Y-103693121D01*
X141415221Y-103550783D01*
X141386922Y-103495244D01*
X141322287Y-103368390D01*
X141314556Y-103357749D01*
X141201971Y-103202786D01*
X141057213Y-103058028D01*
X140946578Y-102977648D01*
X146299500Y-102977648D01*
X146299500Y-103182352D01*
X146303878Y-103209995D01*
X146331522Y-103384534D01*
X146394781Y-103579223D01*
X146452816Y-103693121D01*
X146479487Y-103745466D01*
X146487715Y-103761613D01*
X146608028Y-103927213D01*
X146752786Y-104071971D01*
X146907749Y-104184556D01*
X146918390Y-104192287D01*
X147034607Y-104251503D01*
X147100776Y-104285218D01*
X147100778Y-104285218D01*
X147100781Y-104285220D01*
X147205137Y-104319127D01*
X147295465Y-104348477D01*
X147396557Y-104364488D01*
X147497648Y-104380500D01*
X147497649Y-104380500D01*
X147702351Y-104380500D01*
X147702352Y-104380500D01*
X147904534Y-104348477D01*
X148099219Y-104285220D01*
X148281610Y-104192287D01*
X148434931Y-104080894D01*
X148447213Y-104071971D01*
X148447215Y-104071968D01*
X148447219Y-104071966D01*
X148591966Y-103927219D01*
X148591968Y-103927215D01*
X148591971Y-103927213D01*
X148712284Y-103761614D01*
X148712285Y-103761613D01*
X148712287Y-103761610D01*
X148800671Y-103588147D01*
X148805216Y-103579228D01*
X148805218Y-103579223D01*
X148805220Y-103579219D01*
X148868477Y-103384534D01*
X148900500Y-103182352D01*
X148900500Y-102977648D01*
X148880511Y-102851446D01*
X148868477Y-102775465D01*
X148805218Y-102580776D01*
X148765062Y-102501966D01*
X148712287Y-102398390D01*
X148682375Y-102357219D01*
X148591971Y-102232786D01*
X148447213Y-102088028D01*
X148281613Y-101967715D01*
X148281612Y-101967714D01*
X148281610Y-101967713D01*
X148224653Y-101938691D01*
X148099223Y-101874781D01*
X147904534Y-101811522D01*
X147729995Y-101783878D01*
X147702352Y-101779500D01*
X147497648Y-101779500D01*
X147473329Y-101783351D01*
X147295465Y-101811522D01*
X147100776Y-101874781D01*
X146918386Y-101967715D01*
X146752786Y-102088028D01*
X146608028Y-102232786D01*
X146487715Y-102398386D01*
X146394781Y-102580776D01*
X146331522Y-102775465D01*
X146313305Y-102890485D01*
X146299500Y-102977648D01*
X140946578Y-102977648D01*
X140891614Y-102937715D01*
X140885006Y-102934348D01*
X140798917Y-102890483D01*
X140748123Y-102842511D01*
X140731328Y-102774690D01*
X140753865Y-102708555D01*
X140798917Y-102669516D01*
X140891610Y-102622287D01*
X140948739Y-102580781D01*
X141057213Y-102501971D01*
X141057215Y-102501968D01*
X141057219Y-102501966D01*
X141201966Y-102357219D01*
X141201968Y-102357215D01*
X141201971Y-102357213D01*
X141292371Y-102232786D01*
X141322287Y-102191610D01*
X141415220Y-102009219D01*
X141478477Y-101814534D01*
X141510500Y-101612352D01*
X141510500Y-101407648D01*
X141478477Y-101205466D01*
X141473825Y-101191151D01*
X141471832Y-101121312D01*
X141504075Y-101065158D01*
X143661585Y-98907648D01*
X146299500Y-98907648D01*
X146299500Y-99112351D01*
X146331522Y-99314534D01*
X146394781Y-99509223D01*
X146426004Y-99570500D01*
X146467333Y-99651613D01*
X146487715Y-99691613D01*
X146608028Y-99857213D01*
X146752786Y-100001971D01*
X146863330Y-100082284D01*
X146918390Y-100122287D01*
X147009196Y-100168555D01*
X147100776Y-100215218D01*
X147100778Y-100215218D01*
X147100781Y-100215220D01*
X147193392Y-100245311D01*
X147295465Y-100278477D01*
X147396557Y-100294488D01*
X147497648Y-100310500D01*
X147497649Y-100310500D01*
X147702351Y-100310500D01*
X147702352Y-100310500D01*
X147904534Y-100278477D01*
X148099219Y-100215220D01*
X148281610Y-100122287D01*
X148374590Y-100054732D01*
X148447213Y-100001971D01*
X148447215Y-100001968D01*
X148447219Y-100001966D01*
X148591966Y-99857219D01*
X148591968Y-99857215D01*
X148591971Y-99857213D01*
X148644732Y-99784590D01*
X148712287Y-99691610D01*
X148805220Y-99509219D01*
X148868477Y-99314534D01*
X148900500Y-99112352D01*
X148900500Y-98907648D01*
X148868477Y-98705466D01*
X148805220Y-98510781D01*
X148805218Y-98510778D01*
X148805218Y-98510776D01*
X148754085Y-98410423D01*
X148712287Y-98328390D01*
X148683222Y-98288385D01*
X148591971Y-98162786D01*
X148447213Y-98018028D01*
X148281614Y-97897715D01*
X148173641Y-97842700D01*
X148099223Y-97804781D01*
X147904534Y-97741522D01*
X147729995Y-97713878D01*
X147702352Y-97709500D01*
X147497648Y-97709500D01*
X147473329Y-97713351D01*
X147295465Y-97741522D01*
X147100776Y-97804781D01*
X146918386Y-97897715D01*
X146752786Y-98018028D01*
X146608028Y-98162786D01*
X146487715Y-98328386D01*
X146394781Y-98510776D01*
X146331522Y-98705465D01*
X146299500Y-98907648D01*
X143661585Y-98907648D01*
X145971552Y-96597682D01*
X151300000Y-96597682D01*
X151300000Y-96802317D01*
X151332009Y-97004417D01*
X151395244Y-97199031D01*
X151488141Y-97381350D01*
X151488147Y-97381359D01*
X151520523Y-97425921D01*
X151520524Y-97425922D01*
X152200000Y-96746446D01*
X152200000Y-96752661D01*
X152227259Y-96854394D01*
X152279920Y-96945606D01*
X152354394Y-97020080D01*
X152445606Y-97072741D01*
X152547339Y-97100000D01*
X152553553Y-97100000D01*
X151874076Y-97779474D01*
X151918650Y-97811859D01*
X152100968Y-97904755D01*
X152295582Y-97967990D01*
X152497683Y-98000000D01*
X152702317Y-98000000D01*
X152904417Y-97967990D01*
X153099031Y-97904755D01*
X153281349Y-97811859D01*
X153325922Y-97779474D01*
X152646447Y-97100000D01*
X152652661Y-97100000D01*
X152754394Y-97072741D01*
X152845606Y-97020080D01*
X152920080Y-96945606D01*
X152972741Y-96854394D01*
X153000000Y-96752661D01*
X153000000Y-96746447D01*
X153679474Y-97425921D01*
X153711859Y-97381349D01*
X153804755Y-97199031D01*
X153867990Y-97004417D01*
X153900000Y-96802317D01*
X153900000Y-96597686D01*
X153899809Y-96596481D01*
X153899809Y-96596477D01*
X153899808Y-96596473D01*
X153897507Y-96581947D01*
X155100000Y-96581947D01*
X155100000Y-96818052D01*
X155136934Y-97051247D01*
X155209897Y-97275802D01*
X155317087Y-97486174D01*
X155377338Y-97569104D01*
X155377340Y-97569105D01*
X156076212Y-96870233D01*
X156087482Y-96912292D01*
X156159890Y-97037708D01*
X156262292Y-97140110D01*
X156387708Y-97212518D01*
X156429765Y-97223787D01*
X155730893Y-97922658D01*
X155813828Y-97982914D01*
X156024197Y-98090102D01*
X156248752Y-98163065D01*
X156248751Y-98163065D01*
X156481948Y-98200000D01*
X156718052Y-98200000D01*
X156951247Y-98163065D01*
X157175802Y-98090102D01*
X157386163Y-97982918D01*
X157386169Y-97982914D01*
X157469104Y-97922658D01*
X157469105Y-97922658D01*
X156770233Y-97223787D01*
X156812292Y-97212518D01*
X156937708Y-97140110D01*
X157040110Y-97037708D01*
X157112518Y-96912292D01*
X157123787Y-96870234D01*
X157822658Y-97569105D01*
X157822658Y-97569104D01*
X157882914Y-97486169D01*
X157882918Y-97486163D01*
X157990102Y-97275802D01*
X158063065Y-97051247D01*
X158100000Y-96818052D01*
X158100000Y-96581947D01*
X161600000Y-96581947D01*
X161600000Y-96818052D01*
X161636934Y-97051247D01*
X161709897Y-97275802D01*
X161817087Y-97486174D01*
X161877338Y-97569104D01*
X161877340Y-97569105D01*
X162576212Y-96870233D01*
X162587482Y-96912292D01*
X162659890Y-97037708D01*
X162762292Y-97140110D01*
X162887708Y-97212518D01*
X162929765Y-97223787D01*
X162230893Y-97922658D01*
X162313828Y-97982914D01*
X162524197Y-98090102D01*
X162748752Y-98163065D01*
X162748751Y-98163065D01*
X162981948Y-98200000D01*
X163218052Y-98200000D01*
X163451247Y-98163065D01*
X163675802Y-98090102D01*
X163886163Y-97982918D01*
X163886169Y-97982914D01*
X163969104Y-97922658D01*
X163969105Y-97922658D01*
X163270233Y-97223787D01*
X163312292Y-97212518D01*
X163437708Y-97140110D01*
X163540110Y-97037708D01*
X163612518Y-96912292D01*
X163623787Y-96870233D01*
X164322658Y-97569105D01*
X164322658Y-97569104D01*
X164382914Y-97486169D01*
X164382918Y-97486163D01*
X164490102Y-97275802D01*
X164563065Y-97051247D01*
X164600000Y-96818052D01*
X164600000Y-96581947D01*
X164563065Y-96348752D01*
X164490102Y-96124197D01*
X164382914Y-95913828D01*
X164322658Y-95830894D01*
X164322658Y-95830893D01*
X163623787Y-96529765D01*
X163612518Y-96487708D01*
X163540110Y-96362292D01*
X163437708Y-96259890D01*
X163312292Y-96187482D01*
X163270234Y-96176212D01*
X163969105Y-95477340D01*
X163969104Y-95477338D01*
X163886174Y-95417087D01*
X163675802Y-95309897D01*
X163451247Y-95236934D01*
X163451248Y-95236934D01*
X163218052Y-95200000D01*
X162981948Y-95200000D01*
X162748752Y-95236934D01*
X162524197Y-95309897D01*
X162313830Y-95417084D01*
X162230894Y-95477340D01*
X162929766Y-96176212D01*
X162887708Y-96187482D01*
X162762292Y-96259890D01*
X162659890Y-96362292D01*
X162587482Y-96487708D01*
X162576212Y-96529765D01*
X161877340Y-95830894D01*
X161817084Y-95913830D01*
X161709897Y-96124197D01*
X161636934Y-96348752D01*
X161600000Y-96581947D01*
X158100000Y-96581947D01*
X158063065Y-96348752D01*
X157990102Y-96124197D01*
X157882914Y-95913828D01*
X157822658Y-95830894D01*
X157822658Y-95830893D01*
X157123787Y-96529765D01*
X157112518Y-96487708D01*
X157040110Y-96362292D01*
X156937708Y-96259890D01*
X156812292Y-96187482D01*
X156770234Y-96176212D01*
X157469105Y-95477340D01*
X157469104Y-95477339D01*
X157386174Y-95417087D01*
X157175802Y-95309897D01*
X156951247Y-95236934D01*
X156951248Y-95236934D01*
X156718052Y-95200000D01*
X156481948Y-95200000D01*
X156248752Y-95236934D01*
X156024197Y-95309897D01*
X155813830Y-95417084D01*
X155730894Y-95477340D01*
X156429766Y-96176212D01*
X156387708Y-96187482D01*
X156262292Y-96259890D01*
X156159890Y-96362292D01*
X156087482Y-96487708D01*
X156076212Y-96529766D01*
X155377340Y-95830894D01*
X155317084Y-95913830D01*
X155209897Y-96124197D01*
X155136934Y-96348752D01*
X155100000Y-96581947D01*
X153897507Y-96581947D01*
X153867990Y-96395582D01*
X153804755Y-96200968D01*
X153711859Y-96018650D01*
X153679474Y-95974077D01*
X153679474Y-95974076D01*
X153000000Y-96653551D01*
X153000000Y-96647339D01*
X152972741Y-96545606D01*
X152920080Y-96454394D01*
X152845606Y-96379920D01*
X152754394Y-96327259D01*
X152652661Y-96300000D01*
X152646446Y-96300000D01*
X153325922Y-95620524D01*
X153325921Y-95620523D01*
X153281350Y-95588141D01*
X153099031Y-95495244D01*
X152904417Y-95432009D01*
X152702317Y-95400000D01*
X152497683Y-95400000D01*
X152295582Y-95432009D01*
X152100968Y-95495244D01*
X151918644Y-95588143D01*
X151874077Y-95620523D01*
X151874077Y-95620524D01*
X152553554Y-96300000D01*
X152547339Y-96300000D01*
X152445606Y-96327259D01*
X152354394Y-96379920D01*
X152279920Y-96454394D01*
X152227259Y-96545606D01*
X152200000Y-96647339D01*
X152200000Y-96653553D01*
X151520524Y-95974077D01*
X151520523Y-95974077D01*
X151488143Y-96018644D01*
X151395244Y-96200968D01*
X151332009Y-96395582D01*
X151300000Y-96597682D01*
X145971552Y-96597682D01*
X147958506Y-94610728D01*
X147958511Y-94610724D01*
X147968714Y-94600520D01*
X147968716Y-94600520D01*
X148080520Y-94488716D01*
X148152573Y-94363916D01*
X148152574Y-94363915D01*
X148159576Y-94351787D01*
X148159576Y-94351786D01*
X148159577Y-94351785D01*
X148200500Y-94199058D01*
X148200500Y-94040943D01*
X148200500Y-92619601D01*
X148220185Y-92552562D01*
X148268206Y-92509116D01*
X148281610Y-92502287D01*
X148447219Y-92381966D01*
X148591966Y-92237219D01*
X148591968Y-92237215D01*
X148591971Y-92237213D01*
X148712284Y-92071614D01*
X148712285Y-92071613D01*
X148712287Y-92071610D01*
X148719117Y-92058204D01*
X148767091Y-92007409D01*
X148829602Y-91990500D01*
X151236872Y-91990500D01*
X151303911Y-92010185D01*
X151349666Y-92062989D01*
X151354802Y-92076179D01*
X151394780Y-92199219D01*
X151483320Y-92372989D01*
X151487715Y-92381613D01*
X151608028Y-92547213D01*
X151752786Y-92691971D01*
X151870805Y-92777715D01*
X151918390Y-92812287D01*
X152028135Y-92868205D01*
X152100776Y-92905218D01*
X152100778Y-92905218D01*
X152100781Y-92905220D01*
X152205137Y-92939127D01*
X152295465Y-92968477D01*
X152396557Y-92984488D01*
X152497648Y-93000500D01*
X152497649Y-93000500D01*
X152702351Y-93000500D01*
X152702352Y-93000500D01*
X152904534Y-92968477D01*
X153099219Y-92905220D01*
X153281610Y-92812287D01*
X153394202Y-92730485D01*
X153447213Y-92691971D01*
X153447215Y-92691968D01*
X153447219Y-92691966D01*
X153591966Y-92547219D01*
X153591968Y-92547215D01*
X153591971Y-92547213D01*
X153712284Y-92381614D01*
X153712285Y-92381613D01*
X153712287Y-92381610D01*
X153719117Y-92368204D01*
X153767091Y-92317409D01*
X153829602Y-92300500D01*
X154990807Y-92300500D01*
X155057846Y-92320185D01*
X155103601Y-92372989D01*
X155113280Y-92405102D01*
X155136446Y-92551368D01*
X155209433Y-92775996D01*
X155271612Y-92898028D01*
X155316657Y-92986433D01*
X155455483Y-93177510D01*
X155622490Y-93344517D01*
X155813567Y-93483343D01*
X155912991Y-93534002D01*
X156024003Y-93590566D01*
X156024005Y-93590566D01*
X156024008Y-93590568D01*
X156144412Y-93629689D01*
X156248631Y-93663553D01*
X156481903Y-93700500D01*
X156481908Y-93700500D01*
X156718097Y-93700500D01*
X156951368Y-93663553D01*
X157175992Y-93590568D01*
X157386433Y-93483343D01*
X157577510Y-93344517D01*
X157744517Y-93177510D01*
X157883343Y-92986433D01*
X157943583Y-92868204D01*
X157991558Y-92817409D01*
X158054068Y-92800500D01*
X161645932Y-92800500D01*
X161712971Y-92820185D01*
X161756416Y-92868203D01*
X161816657Y-92986433D01*
X161955483Y-93177510D01*
X162122490Y-93344517D01*
X162313567Y-93483343D01*
X162412991Y-93534002D01*
X162524003Y-93590566D01*
X162524005Y-93590566D01*
X162524008Y-93590568D01*
X162644412Y-93629689D01*
X162748631Y-93663553D01*
X162981903Y-93700500D01*
X162981908Y-93700500D01*
X163218097Y-93700500D01*
X163451368Y-93663553D01*
X163675992Y-93590568D01*
X163886433Y-93483343D01*
X164077510Y-93344517D01*
X164244517Y-93177510D01*
X164383343Y-92986433D01*
X164490568Y-92775992D01*
X164563553Y-92551368D01*
X164570245Y-92509115D01*
X164600500Y-92318097D01*
X164600500Y-92081902D01*
X164563553Y-91848631D01*
X164513483Y-91694534D01*
X164490568Y-91624008D01*
X164490566Y-91624005D01*
X164490566Y-91624003D01*
X164383342Y-91413566D01*
X164244517Y-91222490D01*
X164077510Y-91055483D01*
X163886433Y-90916657D01*
X163675996Y-90809433D01*
X163451368Y-90736446D01*
X163218097Y-90699500D01*
X163218092Y-90699500D01*
X162981908Y-90699500D01*
X162981903Y-90699500D01*
X162748631Y-90736446D01*
X162524003Y-90809433D01*
X162313566Y-90916657D01*
X162204550Y-90995862D01*
X162122490Y-91055483D01*
X162122488Y-91055485D01*
X162122487Y-91055485D01*
X161955485Y-91222487D01*
X161955485Y-91222488D01*
X161955483Y-91222490D01*
X161937205Y-91247648D01*
X161816657Y-91413566D01*
X161756417Y-91531795D01*
X161708442Y-91582591D01*
X161645932Y-91599500D01*
X158054068Y-91599500D01*
X157987029Y-91579815D01*
X157943583Y-91531795D01*
X157923486Y-91492352D01*
X157883343Y-91413567D01*
X157744517Y-91222490D01*
X157577510Y-91055483D01*
X157386433Y-90916657D01*
X157175996Y-90809433D01*
X156951368Y-90736446D01*
X156718097Y-90699500D01*
X156718092Y-90699500D01*
X156481908Y-90699500D01*
X156481903Y-90699500D01*
X156248631Y-90736446D01*
X156024003Y-90809433D01*
X155813566Y-90916657D01*
X155704550Y-90995862D01*
X155622490Y-91055483D01*
X155622488Y-91055485D01*
X155622487Y-91055485D01*
X155614792Y-91063181D01*
X155553469Y-91096666D01*
X155527111Y-91099500D01*
X153829602Y-91099500D01*
X153762563Y-91079815D01*
X153719117Y-91031795D01*
X153712284Y-91018385D01*
X153591971Y-90852786D01*
X153447213Y-90708028D01*
X153281613Y-90587715D01*
X153281612Y-90587714D01*
X153281610Y-90587713D01*
X153193436Y-90542786D01*
X153099223Y-90494781D01*
X152904534Y-90431522D01*
X152729995Y-90403878D01*
X152702352Y-90399500D01*
X152497648Y-90399500D01*
X152473329Y-90403351D01*
X152295465Y-90431522D01*
X152100776Y-90494781D01*
X151918386Y-90587715D01*
X151752786Y-90708028D01*
X151752782Y-90708032D01*
X151707634Y-90753181D01*
X151646311Y-90786666D01*
X151619953Y-90789500D01*
X148829602Y-90789500D01*
X148762563Y-90769815D01*
X148719117Y-90721795D01*
X148712284Y-90708385D01*
X148591971Y-90542786D01*
X148447213Y-90398028D01*
X148281613Y-90277715D01*
X148281612Y-90277714D01*
X148281610Y-90277713D01*
X148203106Y-90237713D01*
X148099223Y-90184781D01*
X147904534Y-90121522D01*
X147729995Y-90093878D01*
X147702352Y-90089500D01*
X147497648Y-90089500D01*
X147473329Y-90093351D01*
X147295465Y-90121522D01*
X147100776Y-90184781D01*
X146918386Y-90277715D01*
X146752786Y-90398028D01*
X146608028Y-90542786D01*
X146487715Y-90708386D01*
X146394781Y-90890776D01*
X146331522Y-91085465D01*
X146299500Y-91287648D01*
X146299500Y-91492351D01*
X146331522Y-91694534D01*
X146394781Y-91889223D01*
X146446385Y-91990500D01*
X146483320Y-92062989D01*
X146487715Y-92071613D01*
X146608028Y-92237213D01*
X146608034Y-92237219D01*
X146752781Y-92381966D01*
X146918390Y-92502287D01*
X146931793Y-92509116D01*
X146982589Y-92557088D01*
X146999500Y-92619601D01*
X146999500Y-93819902D01*
X146979815Y-93886941D01*
X146963181Y-93907583D01*
X141722181Y-99148583D01*
X141660858Y-99182068D01*
X141591166Y-99177084D01*
X141535233Y-99135212D01*
X141510816Y-99069748D01*
X141510500Y-99060902D01*
X141510500Y-98867648D01*
X141478477Y-98665465D01*
X141421296Y-98489481D01*
X141415220Y-98470781D01*
X141415218Y-98470778D01*
X141415218Y-98470776D01*
X141381503Y-98404607D01*
X141322287Y-98288390D01*
X141314556Y-98277749D01*
X141201971Y-98122786D01*
X141057213Y-97978028D01*
X140891614Y-97857715D01*
X140862145Y-97842700D01*
X140798917Y-97810483D01*
X140748123Y-97762511D01*
X140731328Y-97694690D01*
X140753865Y-97628555D01*
X140798917Y-97589516D01*
X140891610Y-97542287D01*
X140968844Y-97486174D01*
X141057213Y-97421971D01*
X141057215Y-97421968D01*
X141057219Y-97421966D01*
X141201966Y-97277219D01*
X141201968Y-97277215D01*
X141201971Y-97277213D01*
X141258772Y-97199031D01*
X141322287Y-97111610D01*
X141415220Y-96929219D01*
X141478477Y-96734534D01*
X141510500Y-96532352D01*
X141510500Y-96327648D01*
X141478477Y-96125466D01*
X141415220Y-95930781D01*
X141415218Y-95930778D01*
X141415218Y-95930776D01*
X141364324Y-95830893D01*
X141322287Y-95748390D01*
X141314556Y-95737749D01*
X141201971Y-95582786D01*
X141057213Y-95438028D01*
X140891614Y-95317715D01*
X140876270Y-95309897D01*
X140798917Y-95270483D01*
X140748123Y-95222511D01*
X140731328Y-95154690D01*
X140753865Y-95088555D01*
X140798917Y-95049516D01*
X140891610Y-95002287D01*
X140912770Y-94986913D01*
X141057213Y-94881971D01*
X141057215Y-94881968D01*
X141057219Y-94881966D01*
X141201966Y-94737219D01*
X141201968Y-94737215D01*
X141201971Y-94737213D01*
X141301282Y-94600521D01*
X141322287Y-94571610D01*
X141415220Y-94389219D01*
X141478477Y-94194534D01*
X141510500Y-93992352D01*
X141510500Y-93787648D01*
X141478477Y-93585466D01*
X141415220Y-93390781D01*
X141415218Y-93390778D01*
X141415218Y-93390776D01*
X141381503Y-93324607D01*
X141322287Y-93208390D01*
X141299852Y-93177510D01*
X141201971Y-93042786D01*
X141057213Y-92898028D01*
X140891614Y-92777715D01*
X140885006Y-92774348D01*
X140798917Y-92730483D01*
X140748123Y-92682511D01*
X140731328Y-92614690D01*
X140753865Y-92548555D01*
X140798917Y-92509516D01*
X140891610Y-92462287D01*
X140970319Y-92405102D01*
X141057213Y-92341971D01*
X141057215Y-92341968D01*
X141057219Y-92341966D01*
X141201966Y-92197219D01*
X141201968Y-92197215D01*
X141201971Y-92197213D01*
X141254732Y-92124590D01*
X141322287Y-92031610D01*
X141415220Y-91849219D01*
X141478477Y-91654534D01*
X141510500Y-91452352D01*
X141510500Y-91247648D01*
X141487035Y-91099500D01*
X141478477Y-91045465D01*
X141415871Y-90852786D01*
X141415220Y-90850781D01*
X141415218Y-90850778D01*
X141415218Y-90850776D01*
X141365490Y-90753181D01*
X141322287Y-90668390D01*
X141263674Y-90587715D01*
X141201971Y-90502786D01*
X141057213Y-90358028D01*
X140891614Y-90237715D01*
X140885006Y-90234348D01*
X140798917Y-90190483D01*
X140748123Y-90142511D01*
X140731328Y-90074690D01*
X140753865Y-90008555D01*
X140798917Y-89969516D01*
X140891610Y-89922287D01*
X140912770Y-89906913D01*
X141057213Y-89801971D01*
X141057215Y-89801968D01*
X141057219Y-89801966D01*
X141201966Y-89657219D01*
X141201968Y-89657215D01*
X141201971Y-89657213D01*
X141254732Y-89584590D01*
X141322287Y-89491610D01*
X141415220Y-89309219D01*
X141478477Y-89114534D01*
X141510500Y-88912352D01*
X141510500Y-88707648D01*
X141478477Y-88505466D01*
X141415220Y-88310781D01*
X141415218Y-88310778D01*
X141415218Y-88310776D01*
X141381503Y-88244607D01*
X141322287Y-88128390D01*
X141314556Y-88117749D01*
X141201971Y-87962786D01*
X141057213Y-87818028D01*
X140891614Y-87697715D01*
X140885006Y-87694348D01*
X140798917Y-87650483D01*
X140748123Y-87602511D01*
X140731328Y-87534690D01*
X140753865Y-87468555D01*
X140798917Y-87429516D01*
X140891610Y-87382287D01*
X140912770Y-87366913D01*
X141057213Y-87261971D01*
X141057215Y-87261968D01*
X141057219Y-87261966D01*
X141201966Y-87117219D01*
X141201968Y-87117215D01*
X141201971Y-87117213D01*
X141254732Y-87044590D01*
X141322287Y-86951610D01*
X141415220Y-86769219D01*
X141478477Y-86574534D01*
X141510500Y-86372352D01*
X141510500Y-86167648D01*
X141478477Y-85965466D01*
X141415220Y-85770781D01*
X141415218Y-85770778D01*
X141415218Y-85770776D01*
X141381503Y-85704607D01*
X141322287Y-85588390D01*
X141314556Y-85577749D01*
X141201971Y-85422786D01*
X141057213Y-85278028D01*
X140891614Y-85157715D01*
X140885006Y-85154348D01*
X140798917Y-85110483D01*
X140748123Y-85062511D01*
X140731328Y-84994690D01*
X140753865Y-84928555D01*
X140798917Y-84889516D01*
X140891610Y-84842287D01*
X140912770Y-84826913D01*
X141057213Y-84721971D01*
X141057215Y-84721968D01*
X141057219Y-84721966D01*
X141201966Y-84577219D01*
X141201968Y-84577215D01*
X141201971Y-84577213D01*
X141254732Y-84504590D01*
X141322287Y-84411610D01*
X141415220Y-84229219D01*
X141478477Y-84034534D01*
X141510500Y-83832352D01*
X141510500Y-83627648D01*
X141478477Y-83425466D01*
X141415220Y-83230781D01*
X141415218Y-83230778D01*
X141415218Y-83230776D01*
X141381503Y-83164607D01*
X141322287Y-83048390D01*
X141314556Y-83037749D01*
X141201971Y-82882786D01*
X141057213Y-82738028D01*
X140891614Y-82617715D01*
X140885006Y-82614348D01*
X140798917Y-82570483D01*
X140748123Y-82522511D01*
X140731328Y-82454690D01*
X140753865Y-82388555D01*
X140798917Y-82349516D01*
X140891610Y-82302287D01*
X140912770Y-82286913D01*
X141057213Y-82181971D01*
X141057215Y-82181968D01*
X141057219Y-82181966D01*
X141201966Y-82037219D01*
X141201968Y-82037215D01*
X141201971Y-82037213D01*
X141322284Y-81871614D01*
X141322285Y-81871613D01*
X141322287Y-81871610D01*
X141329117Y-81858204D01*
X141377091Y-81807409D01*
X141439602Y-81790500D01*
X141903331Y-81790500D01*
X141903347Y-81790501D01*
X141910943Y-81790501D01*
X142069054Y-81790501D01*
X142069057Y-81790501D01*
X142221785Y-81749577D01*
X142271904Y-81720639D01*
X142358716Y-81670520D01*
X142470520Y-81558716D01*
X142470520Y-81558714D01*
X142480728Y-81548507D01*
X142480729Y-81548504D01*
X146535159Y-77494075D01*
X146596480Y-77460592D01*
X146661154Y-77463826D01*
X146675466Y-77468477D01*
X146877648Y-77500500D01*
X146877649Y-77500500D01*
X147082351Y-77500500D01*
X147082352Y-77500500D01*
X147284534Y-77468477D01*
X147479219Y-77405220D01*
X147661610Y-77312287D01*
X147806974Y-77206675D01*
X147827213Y-77191971D01*
X147827215Y-77191968D01*
X147827219Y-77191966D01*
X147971966Y-77047219D01*
X147971968Y-77047215D01*
X147971971Y-77047213D01*
X148047032Y-76943898D01*
X148092287Y-76881610D01*
X148185220Y-76699219D01*
X148248477Y-76504534D01*
X148280500Y-76302352D01*
X148280500Y-76097648D01*
X153299500Y-76097648D01*
X153299500Y-76302351D01*
X153331522Y-76504534D01*
X153394781Y-76699223D01*
X153446385Y-76800500D01*
X153483320Y-76872989D01*
X153487715Y-76881613D01*
X153608028Y-77047213D01*
X153752786Y-77191971D01*
X153860185Y-77269999D01*
X153918390Y-77312287D01*
X154010258Y-77359096D01*
X154100776Y-77405218D01*
X154100778Y-77405218D01*
X154100781Y-77405220D01*
X154205137Y-77439127D01*
X154295465Y-77468477D01*
X154396557Y-77484488D01*
X154497648Y-77500500D01*
X154497649Y-77500500D01*
X154702351Y-77500500D01*
X154702352Y-77500500D01*
X154904534Y-77468477D01*
X155099219Y-77405220D01*
X155281610Y-77312287D01*
X155426974Y-77206675D01*
X155447213Y-77191971D01*
X155447215Y-77191968D01*
X155447219Y-77191966D01*
X155591966Y-77047219D01*
X155591968Y-77047215D01*
X155591971Y-77047213D01*
X155712284Y-76881614D01*
X155712285Y-76881613D01*
X155712287Y-76881610D01*
X155719117Y-76868204D01*
X155767091Y-76817409D01*
X155829602Y-76800500D01*
X158560132Y-76800500D01*
X158627171Y-76820185D01*
X158672926Y-76872989D01*
X158682870Y-76942147D01*
X158682605Y-76943898D01*
X158659500Y-77089778D01*
X158659500Y-77310221D01*
X158693985Y-77527952D01*
X158762103Y-77737603D01*
X158762104Y-77737606D01*
X158862187Y-77934025D01*
X158991752Y-78112358D01*
X158991756Y-78112363D01*
X159147636Y-78268243D01*
X159147641Y-78268247D01*
X159291571Y-78372817D01*
X159325978Y-78397815D01*
X159434617Y-78453170D01*
X159522393Y-78497895D01*
X159522396Y-78497896D01*
X159627221Y-78531955D01*
X159732049Y-78566015D01*
X159949778Y-78600500D01*
X159949779Y-78600500D01*
X160170221Y-78600500D01*
X160170222Y-78600500D01*
X160387951Y-78566015D01*
X160597606Y-78497895D01*
X160794022Y-78397815D01*
X160972365Y-78268242D01*
X161022924Y-78217682D01*
X161084245Y-78184198D01*
X161153936Y-78189182D01*
X161209870Y-78231053D01*
X161226786Y-78262030D01*
X161256646Y-78342087D01*
X161256649Y-78342093D01*
X161342809Y-78457187D01*
X161342812Y-78457190D01*
X161457906Y-78543350D01*
X161457913Y-78543354D01*
X161592620Y-78593596D01*
X161592627Y-78593598D01*
X161652155Y-78599999D01*
X161652172Y-78600000D01*
X162350000Y-78600000D01*
X162350000Y-77575277D01*
X162426306Y-77619333D01*
X162540756Y-77650000D01*
X162659244Y-77650000D01*
X162773694Y-77619333D01*
X162850000Y-77575277D01*
X162850000Y-78600000D01*
X163547828Y-78600000D01*
X163547844Y-78599999D01*
X163607372Y-78593598D01*
X163607379Y-78593596D01*
X163742086Y-78543354D01*
X163742093Y-78543350D01*
X163857187Y-78457190D01*
X163857190Y-78457187D01*
X163943350Y-78342093D01*
X163943354Y-78342086D01*
X163993596Y-78207379D01*
X163993598Y-78207372D01*
X163999999Y-78147844D01*
X164000000Y-78147827D01*
X164000000Y-77450000D01*
X162975278Y-77450000D01*
X163019333Y-77373694D01*
X163050000Y-77259244D01*
X163050000Y-77140756D01*
X163019333Y-77026306D01*
X162975278Y-76950000D01*
X164000000Y-76950000D01*
X164000000Y-76252172D01*
X163999999Y-76252155D01*
X163993598Y-76192627D01*
X163993596Y-76192620D01*
X163943354Y-76057913D01*
X163943350Y-76057906D01*
X163857190Y-75942812D01*
X163857187Y-75942809D01*
X163742093Y-75856649D01*
X163742086Y-75856645D01*
X163607379Y-75806403D01*
X163607372Y-75806401D01*
X163547844Y-75800000D01*
X162850000Y-75800000D01*
X162850000Y-76824722D01*
X162773694Y-76780667D01*
X162659244Y-76750000D01*
X162540756Y-76750000D01*
X162426306Y-76780667D01*
X162350000Y-76824722D01*
X162350000Y-75800000D01*
X161652155Y-75800000D01*
X161592627Y-75806401D01*
X161592620Y-75806403D01*
X161457913Y-75856645D01*
X161457906Y-75856649D01*
X161342812Y-75942809D01*
X161342809Y-75942812D01*
X161256649Y-76057906D01*
X161256643Y-76057918D01*
X161226785Y-76137969D01*
X161184914Y-76193903D01*
X161119449Y-76218319D01*
X161051176Y-76203467D01*
X161022923Y-76182316D01*
X160972363Y-76131756D01*
X160972358Y-76131752D01*
X160794025Y-76002187D01*
X160794024Y-76002186D01*
X160794022Y-76002185D01*
X160731096Y-75970122D01*
X160597606Y-75902104D01*
X160597603Y-75902103D01*
X160387952Y-75833985D01*
X160279086Y-75816742D01*
X160170222Y-75799500D01*
X159949778Y-75799500D01*
X159920008Y-75804214D01*
X159732049Y-75833984D01*
X159661793Y-75856811D01*
X159591952Y-75858805D01*
X159535796Y-75826560D01*
X159428717Y-75719481D01*
X159428716Y-75719480D01*
X159341904Y-75669360D01*
X159341904Y-75669359D01*
X159341900Y-75669358D01*
X159291785Y-75640423D01*
X159139057Y-75599499D01*
X158980943Y-75599499D01*
X158973347Y-75599499D01*
X158973331Y-75599500D01*
X155829602Y-75599500D01*
X155762563Y-75579815D01*
X155719117Y-75531795D01*
X155712284Y-75518385D01*
X155591971Y-75352786D01*
X155447213Y-75208028D01*
X155281613Y-75087715D01*
X155281612Y-75087714D01*
X155281610Y-75087713D01*
X155224653Y-75058691D01*
X155099223Y-74994781D01*
X154904534Y-74931522D01*
X154729995Y-74903878D01*
X154702352Y-74899500D01*
X154497648Y-74899500D01*
X154473329Y-74903351D01*
X154295465Y-74931522D01*
X154100776Y-74994781D01*
X153918386Y-75087715D01*
X153752786Y-75208028D01*
X153608028Y-75352786D01*
X153487715Y-75518386D01*
X153394781Y-75700776D01*
X153331522Y-75895465D01*
X153299500Y-76097648D01*
X148280500Y-76097648D01*
X148274207Y-76057918D01*
X148248477Y-75895465D01*
X148191296Y-75719481D01*
X148185220Y-75700781D01*
X148185218Y-75700778D01*
X148185218Y-75700776D01*
X148151503Y-75634607D01*
X148092287Y-75518390D01*
X148084556Y-75507749D01*
X147971971Y-75352786D01*
X147827213Y-75208028D01*
X147661613Y-75087715D01*
X147661612Y-75087714D01*
X147661610Y-75087713D01*
X147604653Y-75058691D01*
X147479223Y-74994781D01*
X147284534Y-74931522D01*
X147109995Y-74903878D01*
X147082352Y-74899500D01*
X146877648Y-74899500D01*
X146853329Y-74903351D01*
X146675465Y-74931522D01*
X146480776Y-74994781D01*
X146298386Y-75087715D01*
X146132786Y-75208028D01*
X145988028Y-75352786D01*
X145867715Y-75518386D01*
X145774781Y-75700776D01*
X145711522Y-75895465D01*
X145684566Y-76065664D01*
X145679500Y-76097648D01*
X145679500Y-76302352D01*
X145681859Y-76317243D01*
X145711523Y-76504535D01*
X145716172Y-76518845D01*
X145718165Y-76588687D01*
X145685921Y-76644841D01*
X141777584Y-80553181D01*
X141716261Y-80586666D01*
X141689903Y-80589500D01*
X141439602Y-80589500D01*
X141372563Y-80569815D01*
X141329117Y-80521795D01*
X141322284Y-80508385D01*
X141201971Y-80342786D01*
X141057213Y-80198028D01*
X140891613Y-80077715D01*
X140891612Y-80077714D01*
X140891610Y-80077713D01*
X140834653Y-80048691D01*
X140709223Y-79984781D01*
X140514534Y-79921522D01*
X140339995Y-79893878D01*
X140312352Y-79889500D01*
X140107648Y-79889500D01*
X140083329Y-79893351D01*
X139905465Y-79921522D01*
X139710776Y-79984781D01*
X139528386Y-80077715D01*
X139362786Y-80198028D01*
X139218028Y-80342786D01*
X139097715Y-80508386D01*
X139004781Y-80690776D01*
X138941522Y-80885465D01*
X138909500Y-81087648D01*
X138909500Y-81292351D01*
X138941522Y-81494534D01*
X139004781Y-81689223D01*
X139097715Y-81871613D01*
X139218028Y-82037213D01*
X139362786Y-82181971D01*
X139517749Y-82294556D01*
X139528390Y-82302287D01*
X139619840Y-82348883D01*
X139621080Y-82349515D01*
X139671876Y-82397490D01*
X139688671Y-82465311D01*
X139666134Y-82531446D01*
X139621080Y-82570485D01*
X139528386Y-82617715D01*
X139362786Y-82738028D01*
X139218028Y-82882786D01*
X139097715Y-83048386D01*
X139004781Y-83230776D01*
X138941522Y-83425465D01*
X138909500Y-83627648D01*
X138909500Y-83832351D01*
X138941522Y-84034534D01*
X139004781Y-84229223D01*
X139097715Y-84411613D01*
X139218028Y-84577213D01*
X139362786Y-84721971D01*
X139517749Y-84834556D01*
X139528390Y-84842287D01*
X139619840Y-84888883D01*
X139621080Y-84889515D01*
X139671876Y-84937490D01*
X139688671Y-85005311D01*
X139666134Y-85071446D01*
X139621080Y-85110485D01*
X139528386Y-85157715D01*
X139362786Y-85278028D01*
X139218028Y-85422786D01*
X139097715Y-85588386D01*
X139004781Y-85770776D01*
X138941522Y-85965465D01*
X138909500Y-86167648D01*
X138909500Y-86372351D01*
X138941522Y-86574534D01*
X139004781Y-86769223D01*
X139097715Y-86951613D01*
X139218028Y-87117213D01*
X139362786Y-87261971D01*
X139517749Y-87374556D01*
X139528390Y-87382287D01*
X139619840Y-87428883D01*
X139621080Y-87429515D01*
X139671876Y-87477490D01*
X139688671Y-87545311D01*
X139666134Y-87611446D01*
X139621080Y-87650485D01*
X139528386Y-87697715D01*
X139362786Y-87818028D01*
X139218028Y-87962786D01*
X139097715Y-88128386D01*
X139004781Y-88310776D01*
X138941522Y-88505465D01*
X138909500Y-88707648D01*
X138909500Y-88912351D01*
X138941522Y-89114534D01*
X139004781Y-89309223D01*
X139097715Y-89491613D01*
X139218028Y-89657213D01*
X139362786Y-89801971D01*
X139517749Y-89914556D01*
X139528390Y-89922287D01*
X139619840Y-89968883D01*
X139621080Y-89969515D01*
X139671876Y-90017490D01*
X139688671Y-90085311D01*
X139666134Y-90151446D01*
X139621080Y-90190485D01*
X139528386Y-90237715D01*
X139362786Y-90358028D01*
X139218028Y-90502786D01*
X139097715Y-90668386D01*
X139004781Y-90850776D01*
X138941522Y-91045465D01*
X138909500Y-91247648D01*
X138909500Y-91452351D01*
X138941522Y-91654534D01*
X139004781Y-91849223D01*
X139068691Y-91974653D01*
X139086796Y-92010185D01*
X139097715Y-92031613D01*
X139218028Y-92197213D01*
X139362786Y-92341971D01*
X139517749Y-92454556D01*
X139528390Y-92462287D01*
X139619840Y-92508883D01*
X139621080Y-92509515D01*
X139671876Y-92557490D01*
X139688671Y-92625311D01*
X139666134Y-92691446D01*
X139621080Y-92730485D01*
X139528386Y-92777715D01*
X139362786Y-92898028D01*
X139218028Y-93042786D01*
X139097715Y-93208386D01*
X139004781Y-93390776D01*
X138941522Y-93585465D01*
X138909500Y-93787648D01*
X138909500Y-93992351D01*
X138941522Y-94194534D01*
X139004781Y-94389223D01*
X139097715Y-94571613D01*
X139218028Y-94737213D01*
X139362786Y-94881971D01*
X139517749Y-94994556D01*
X139528390Y-95002287D01*
X139619840Y-95048883D01*
X139621080Y-95049515D01*
X139671876Y-95097490D01*
X139688671Y-95165311D01*
X139666134Y-95231446D01*
X139621080Y-95270485D01*
X139528386Y-95317715D01*
X139362786Y-95438028D01*
X139218028Y-95582786D01*
X139097715Y-95748386D01*
X139004781Y-95930776D01*
X138941522Y-96125465D01*
X138909500Y-96327648D01*
X138909500Y-96532351D01*
X138941522Y-96734534D01*
X139004781Y-96929223D01*
X139043095Y-97004417D01*
X139091797Y-97100000D01*
X139097715Y-97111613D01*
X139218028Y-97277213D01*
X139362786Y-97421971D01*
X139451156Y-97486174D01*
X139528390Y-97542287D01*
X139619840Y-97588883D01*
X139621080Y-97589515D01*
X139671876Y-97637490D01*
X139688671Y-97705311D01*
X139666134Y-97771446D01*
X139621080Y-97810485D01*
X139528386Y-97857715D01*
X139362786Y-97978028D01*
X139218028Y-98122786D01*
X139097715Y-98288386D01*
X139004781Y-98470776D01*
X138941522Y-98665465D01*
X138909500Y-98867648D01*
X138909500Y-99072351D01*
X138941522Y-99274534D01*
X139004781Y-99469223D01*
X139097715Y-99651613D01*
X139218028Y-99817213D01*
X139362786Y-99961971D01*
X139517749Y-100074556D01*
X139528390Y-100082287D01*
X139619840Y-100128883D01*
X139621080Y-100129515D01*
X139671876Y-100177490D01*
X139688671Y-100245311D01*
X139666134Y-100311446D01*
X139621080Y-100350485D01*
X139528386Y-100397715D01*
X139362786Y-100518028D01*
X139218028Y-100662786D01*
X139097715Y-100828386D01*
X139004781Y-101010776D01*
X138941522Y-101205465D01*
X138909500Y-101407648D01*
X138909500Y-101612351D01*
X138941522Y-101814534D01*
X139004781Y-102009223D01*
X139097715Y-102191613D01*
X139218028Y-102357213D01*
X139362786Y-102501971D01*
X139471261Y-102580781D01*
X139528390Y-102622287D01*
X139619840Y-102668883D01*
X139621080Y-102669515D01*
X139671876Y-102717490D01*
X139688671Y-102785311D01*
X139666134Y-102851446D01*
X139621080Y-102890485D01*
X139528386Y-102937715D01*
X139362786Y-103058028D01*
X139218028Y-103202786D01*
X139097715Y-103368386D01*
X139004781Y-103550776D01*
X138941522Y-103745465D01*
X138909500Y-103947648D01*
X138909500Y-104152351D01*
X138941522Y-104354534D01*
X139004781Y-104549223D01*
X139068691Y-104674653D01*
X139081607Y-104700001D01*
X139097715Y-104731613D01*
X139218028Y-104897213D01*
X139362786Y-105041971D01*
X139517749Y-105154556D01*
X139528390Y-105162287D01*
X139600504Y-105199031D01*
X139621080Y-105209515D01*
X139671876Y-105257490D01*
X139688671Y-105325311D01*
X139666134Y-105391446D01*
X139621080Y-105430485D01*
X139528386Y-105477715D01*
X139362786Y-105598028D01*
X139218028Y-105742786D01*
X139097715Y-105908386D01*
X139004781Y-106090776D01*
X138941522Y-106285465D01*
X138909500Y-106487648D01*
X138909500Y-106692351D01*
X138941522Y-106894534D01*
X139004781Y-107089223D01*
X139097715Y-107271613D01*
X139218028Y-107437213D01*
X139362786Y-107581971D01*
X139517749Y-107694556D01*
X139528390Y-107702287D01*
X139600424Y-107738990D01*
X139621629Y-107749795D01*
X139672425Y-107797770D01*
X139689220Y-107865591D01*
X139666682Y-107931726D01*
X139621629Y-107970765D01*
X139528650Y-108018140D01*
X139363105Y-108138417D01*
X139363104Y-108138417D01*
X139218417Y-108283104D01*
X139218417Y-108283105D01*
X139098140Y-108448650D01*
X139005244Y-108630970D01*
X138942009Y-108825586D01*
X138933391Y-108880000D01*
X139776988Y-108880000D01*
X139744075Y-108937007D01*
X139710000Y-109064174D01*
X139710000Y-109195826D01*
X139744075Y-109322993D01*
X139776988Y-109380000D01*
X138933391Y-109380000D01*
X138942009Y-109434413D01*
X139005244Y-109629029D01*
X139098142Y-109811353D01*
X139122308Y-109844614D01*
X139145789Y-109910420D01*
X139129964Y-109978474D01*
X139079859Y-110027169D01*
X139021991Y-110041500D01*
X126782097Y-110041500D01*
X126715058Y-110021815D01*
X126694416Y-110005181D01*
X126264077Y-109574842D01*
X126230592Y-109513519D01*
X126233828Y-109448841D01*
X126238477Y-109434534D01*
X126270500Y-109232352D01*
X126270500Y-109027648D01*
X126252431Y-108913566D01*
X126238477Y-108825465D01*
X126175218Y-108630776D01*
X126105924Y-108494781D01*
X126082287Y-108448390D01*
X126046767Y-108399500D01*
X125961971Y-108282786D01*
X125817213Y-108138028D01*
X125651614Y-108017715D01*
X125645006Y-108014348D01*
X125558917Y-107970483D01*
X125508123Y-107922511D01*
X125491328Y-107854690D01*
X125513865Y-107788555D01*
X125558917Y-107749516D01*
X125651610Y-107702287D01*
X125672770Y-107686913D01*
X125817213Y-107581971D01*
X125817215Y-107581968D01*
X125817219Y-107581966D01*
X125961966Y-107437219D01*
X125961968Y-107437215D01*
X125961971Y-107437213D01*
X126014732Y-107364590D01*
X126082287Y-107271610D01*
X126175220Y-107089219D01*
X126238477Y-106894534D01*
X126270500Y-106692352D01*
X126270500Y-106487648D01*
X126238477Y-106285466D01*
X126175220Y-106090781D01*
X126175218Y-106090778D01*
X126175218Y-106090776D01*
X126141503Y-106024607D01*
X126082287Y-105908390D01*
X126012154Y-105811859D01*
X125961971Y-105742786D01*
X125817213Y-105598028D01*
X125651614Y-105477715D01*
X125645006Y-105474348D01*
X125558917Y-105430483D01*
X125508123Y-105382511D01*
X125491328Y-105314690D01*
X125513865Y-105248555D01*
X125558917Y-105209516D01*
X125651610Y-105162287D01*
X125734714Y-105101909D01*
X125817213Y-105041971D01*
X125817215Y-105041968D01*
X125817219Y-105041966D01*
X125961966Y-104897219D01*
X125961968Y-104897215D01*
X125961971Y-104897213D01*
X126030916Y-104802317D01*
X126082287Y-104731610D01*
X126175220Y-104549219D01*
X126238477Y-104354534D01*
X126270500Y-104152352D01*
X126270500Y-103947648D01*
X126241035Y-103761614D01*
X126238477Y-103745465D01*
X126197881Y-103620524D01*
X126175220Y-103550781D01*
X126175218Y-103550778D01*
X126175218Y-103550776D01*
X126141503Y-103484607D01*
X126082287Y-103368390D01*
X126074556Y-103357749D01*
X125961971Y-103202786D01*
X125817213Y-103058028D01*
X125651614Y-102937715D01*
X125645006Y-102934348D01*
X125558917Y-102890483D01*
X125508123Y-102842511D01*
X125491328Y-102774690D01*
X125513865Y-102708555D01*
X125558917Y-102669516D01*
X125651610Y-102622287D01*
X125708739Y-102580781D01*
X125817213Y-102501971D01*
X125817215Y-102501968D01*
X125817219Y-102501966D01*
X125961966Y-102357219D01*
X125961968Y-102357215D01*
X125961971Y-102357213D01*
X126052371Y-102232786D01*
X126082287Y-102191610D01*
X126175220Y-102009219D01*
X126238477Y-101814534D01*
X126270500Y-101612352D01*
X126270500Y-101407648D01*
X126238477Y-101205466D01*
X126175220Y-101010781D01*
X126175218Y-101010778D01*
X126175218Y-101010776D01*
X126141503Y-100944607D01*
X126082287Y-100828390D01*
X126074556Y-100817749D01*
X125961971Y-100662786D01*
X125817213Y-100518028D01*
X125651614Y-100397715D01*
X125645006Y-100394348D01*
X125558917Y-100350483D01*
X125508123Y-100302511D01*
X125491328Y-100234690D01*
X125513865Y-100168555D01*
X125558917Y-100129516D01*
X125651610Y-100082287D01*
X125672770Y-100066913D01*
X125817213Y-99961971D01*
X125817215Y-99961968D01*
X125817219Y-99961966D01*
X125961966Y-99817219D01*
X125961968Y-99817215D01*
X125961971Y-99817213D01*
X126053223Y-99691613D01*
X126082287Y-99651610D01*
X126175220Y-99469219D01*
X126238477Y-99274534D01*
X126270500Y-99072352D01*
X126270500Y-98867648D01*
X126238477Y-98665465D01*
X126181296Y-98489481D01*
X126175220Y-98470781D01*
X126175218Y-98470778D01*
X126175218Y-98470776D01*
X126141503Y-98404607D01*
X126082287Y-98288390D01*
X126074556Y-98277749D01*
X125961971Y-98122786D01*
X125817213Y-97978028D01*
X125651614Y-97857715D01*
X125622145Y-97842700D01*
X125558917Y-97810483D01*
X125508123Y-97762511D01*
X125491328Y-97694690D01*
X125513865Y-97628555D01*
X125558917Y-97589516D01*
X125651610Y-97542287D01*
X125728844Y-97486174D01*
X125817213Y-97421971D01*
X125817215Y-97421968D01*
X125817219Y-97421966D01*
X125961966Y-97277219D01*
X125961968Y-97277215D01*
X125961971Y-97277213D01*
X126018772Y-97199031D01*
X126082287Y-97111610D01*
X126175220Y-96929219D01*
X126238477Y-96734534D01*
X126270500Y-96532352D01*
X126270500Y-96327648D01*
X126238477Y-96125466D01*
X126175220Y-95930781D01*
X126175218Y-95930778D01*
X126175218Y-95930776D01*
X126124324Y-95830893D01*
X126082287Y-95748390D01*
X126074556Y-95737749D01*
X125961971Y-95582786D01*
X125817213Y-95438028D01*
X125651614Y-95317715D01*
X125636270Y-95309897D01*
X125558917Y-95270483D01*
X125508123Y-95222511D01*
X125491328Y-95154690D01*
X125513865Y-95088555D01*
X125558917Y-95049516D01*
X125651610Y-95002287D01*
X125672770Y-94986913D01*
X125817213Y-94881971D01*
X125817215Y-94881968D01*
X125817219Y-94881966D01*
X125961966Y-94737219D01*
X125961968Y-94737215D01*
X125961971Y-94737213D01*
X126061282Y-94600521D01*
X126082287Y-94571610D01*
X126175220Y-94389219D01*
X126238477Y-94194534D01*
X126270500Y-93992352D01*
X126270500Y-93787648D01*
X126238477Y-93585466D01*
X126175220Y-93390781D01*
X126175218Y-93390778D01*
X126175218Y-93390776D01*
X126141503Y-93324607D01*
X126082287Y-93208390D01*
X126059852Y-93177510D01*
X125961971Y-93042786D01*
X125817213Y-92898028D01*
X125651614Y-92777715D01*
X125645006Y-92774348D01*
X125558917Y-92730483D01*
X125508123Y-92682511D01*
X125491328Y-92614690D01*
X125513865Y-92548555D01*
X125558917Y-92509516D01*
X125651610Y-92462287D01*
X125730319Y-92405102D01*
X125817213Y-92341971D01*
X125817215Y-92341968D01*
X125817219Y-92341966D01*
X125961966Y-92197219D01*
X125961968Y-92197215D01*
X125961971Y-92197213D01*
X126014732Y-92124590D01*
X126082287Y-92031610D01*
X126175220Y-91849219D01*
X126238477Y-91654534D01*
X126270500Y-91452352D01*
X126270500Y-91247648D01*
X126247035Y-91099500D01*
X126238477Y-91045465D01*
X126175871Y-90852786D01*
X126175220Y-90850781D01*
X126175218Y-90850778D01*
X126175218Y-90850776D01*
X126125490Y-90753181D01*
X126082287Y-90668390D01*
X126023674Y-90587715D01*
X125961971Y-90502786D01*
X125817213Y-90358028D01*
X125651614Y-90237715D01*
X125645006Y-90234348D01*
X125558917Y-90190483D01*
X125508123Y-90142511D01*
X125491328Y-90074690D01*
X125513865Y-90008555D01*
X125558917Y-89969516D01*
X125651610Y-89922287D01*
X125672770Y-89906913D01*
X125817213Y-89801971D01*
X125817215Y-89801968D01*
X125817219Y-89801966D01*
X125961966Y-89657219D01*
X125961968Y-89657215D01*
X125961971Y-89657213D01*
X126014732Y-89584590D01*
X126082287Y-89491610D01*
X126175220Y-89309219D01*
X126238477Y-89114534D01*
X126270500Y-88912352D01*
X126270500Y-88707648D01*
X126238477Y-88505466D01*
X126175220Y-88310781D01*
X126175218Y-88310778D01*
X126175218Y-88310776D01*
X126141503Y-88244607D01*
X126082287Y-88128390D01*
X126074556Y-88117749D01*
X125961971Y-87962786D01*
X125817213Y-87818028D01*
X125651614Y-87697715D01*
X125645006Y-87694348D01*
X125558917Y-87650483D01*
X125508123Y-87602511D01*
X125491328Y-87534690D01*
X125513865Y-87468555D01*
X125558917Y-87429516D01*
X125651610Y-87382287D01*
X125672770Y-87366913D01*
X125817213Y-87261971D01*
X125817215Y-87261968D01*
X125817219Y-87261966D01*
X125961966Y-87117219D01*
X125961968Y-87117215D01*
X125961971Y-87117213D01*
X126014732Y-87044590D01*
X126082287Y-86951610D01*
X126175220Y-86769219D01*
X126238477Y-86574534D01*
X126270500Y-86372352D01*
X126270500Y-86167648D01*
X126238477Y-85965466D01*
X126175220Y-85770781D01*
X126175218Y-85770778D01*
X126175218Y-85770776D01*
X126141503Y-85704607D01*
X126082287Y-85588390D01*
X126074556Y-85577749D01*
X125961971Y-85422786D01*
X125817213Y-85278028D01*
X125651614Y-85157715D01*
X125645006Y-85154348D01*
X125558917Y-85110483D01*
X125508123Y-85062511D01*
X125491328Y-84994690D01*
X125513865Y-84928555D01*
X125558917Y-84889516D01*
X125651610Y-84842287D01*
X125672770Y-84826913D01*
X125817213Y-84721971D01*
X125817215Y-84721968D01*
X125817219Y-84721966D01*
X125961966Y-84577219D01*
X125961968Y-84577215D01*
X125961971Y-84577213D01*
X126014732Y-84504590D01*
X126082287Y-84411610D01*
X126175220Y-84229219D01*
X126238477Y-84034534D01*
X126270500Y-83832352D01*
X126270500Y-83627648D01*
X126238477Y-83425466D01*
X126175220Y-83230781D01*
X126175218Y-83230778D01*
X126175218Y-83230776D01*
X126141503Y-83164607D01*
X126082287Y-83048390D01*
X126074556Y-83037749D01*
X125961971Y-82882786D01*
X125817213Y-82738028D01*
X125651614Y-82617715D01*
X125645006Y-82614348D01*
X125558917Y-82570483D01*
X125508123Y-82522511D01*
X125491328Y-82454690D01*
X125513865Y-82388555D01*
X125558917Y-82349516D01*
X125651610Y-82302287D01*
X125672770Y-82286913D01*
X125817213Y-82181971D01*
X125817215Y-82181968D01*
X125817219Y-82181966D01*
X125961966Y-82037219D01*
X125961968Y-82037215D01*
X125961971Y-82037213D01*
X126014732Y-81964590D01*
X126082287Y-81871610D01*
X126175220Y-81689219D01*
X126238477Y-81494534D01*
X126270500Y-81292352D01*
X126270500Y-81087648D01*
X126238477Y-80885466D01*
X126175220Y-80690781D01*
X126175218Y-80690778D01*
X126175218Y-80690776D01*
X126141503Y-80624607D01*
X126082287Y-80508390D01*
X126074556Y-80497749D01*
X125961971Y-80342786D01*
X125817213Y-80198028D01*
X125651613Y-80077715D01*
X125651612Y-80077714D01*
X125651610Y-80077713D01*
X125594653Y-80048691D01*
X125469223Y-79984781D01*
X125274534Y-79921522D01*
X125099995Y-79893878D01*
X125072352Y-79889500D01*
X124867648Y-79889500D01*
X124843329Y-79893351D01*
X124665465Y-79921522D01*
X124470776Y-79984781D01*
X124288386Y-80077715D01*
X124122786Y-80198028D01*
X123978028Y-80342786D01*
X123857715Y-80508386D01*
X123764781Y-80690776D01*
X123701522Y-80885465D01*
X123669500Y-81087648D01*
X123669500Y-81292351D01*
X123701522Y-81494534D01*
X123764781Y-81689223D01*
X123857715Y-81871613D01*
X123978028Y-82037213D01*
X124122786Y-82181971D01*
X124277749Y-82294556D01*
X124288390Y-82302287D01*
X124379840Y-82348883D01*
X124381080Y-82349515D01*
X124431876Y-82397490D01*
X124448671Y-82465311D01*
X124426134Y-82531446D01*
X124381080Y-82570485D01*
X124288386Y-82617715D01*
X124122786Y-82738028D01*
X123978028Y-82882786D01*
X123857715Y-83048386D01*
X123764781Y-83230776D01*
X123701522Y-83425465D01*
X123669500Y-83627648D01*
X123669500Y-83832351D01*
X123701522Y-84034534D01*
X123764781Y-84229223D01*
X123857715Y-84411613D01*
X123978028Y-84577213D01*
X124122786Y-84721971D01*
X124277749Y-84834556D01*
X124288390Y-84842287D01*
X124379840Y-84888883D01*
X124381080Y-84889515D01*
X124431876Y-84937490D01*
X124448671Y-85005311D01*
X124426134Y-85071446D01*
X124381080Y-85110485D01*
X124288386Y-85157715D01*
X124122786Y-85278028D01*
X123978028Y-85422786D01*
X123857715Y-85588386D01*
X123764781Y-85770776D01*
X123701522Y-85965465D01*
X123669500Y-86167648D01*
X123669500Y-86372351D01*
X123701522Y-86574534D01*
X123764781Y-86769223D01*
X123857715Y-86951613D01*
X123978028Y-87117213D01*
X124122786Y-87261971D01*
X124277749Y-87374556D01*
X124288390Y-87382287D01*
X124379840Y-87428883D01*
X124381080Y-87429515D01*
X124431876Y-87477490D01*
X124448671Y-87545311D01*
X124426134Y-87611446D01*
X124381080Y-87650485D01*
X124288386Y-87697715D01*
X124122786Y-87818028D01*
X123978028Y-87962786D01*
X123857715Y-88128386D01*
X123764781Y-88310776D01*
X123701522Y-88505465D01*
X123669500Y-88707648D01*
X123669500Y-88912351D01*
X123701522Y-89114534D01*
X123764781Y-89309223D01*
X123857715Y-89491613D01*
X123978028Y-89657213D01*
X124122786Y-89801971D01*
X124277749Y-89914556D01*
X124288390Y-89922287D01*
X124379840Y-89968883D01*
X124381080Y-89969515D01*
X124431876Y-90017490D01*
X124448671Y-90085311D01*
X124426134Y-90151446D01*
X124381080Y-90190485D01*
X124288386Y-90237715D01*
X124122786Y-90358028D01*
X123978028Y-90502786D01*
X123857715Y-90668386D01*
X123764781Y-90850776D01*
X123701522Y-91045465D01*
X123669500Y-91247648D01*
X123669500Y-91452351D01*
X123701522Y-91654534D01*
X123764781Y-91849223D01*
X123828691Y-91974653D01*
X123846796Y-92010185D01*
X123857715Y-92031613D01*
X123978028Y-92197213D01*
X124122786Y-92341971D01*
X124277749Y-92454556D01*
X124288390Y-92462287D01*
X124379840Y-92508883D01*
X124381080Y-92509515D01*
X124431876Y-92557490D01*
X124448671Y-92625311D01*
X124426134Y-92691446D01*
X124381080Y-92730485D01*
X124288386Y-92777715D01*
X124122786Y-92898028D01*
X123978028Y-93042786D01*
X123857715Y-93208386D01*
X123764781Y-93390776D01*
X123701522Y-93585465D01*
X123669500Y-93787648D01*
X123669500Y-93992351D01*
X123701522Y-94194534D01*
X123764781Y-94389223D01*
X123857715Y-94571613D01*
X123978028Y-94737213D01*
X124122786Y-94881971D01*
X124277749Y-94994556D01*
X124288390Y-95002287D01*
X124379840Y-95048883D01*
X124381080Y-95049515D01*
X124431876Y-95097490D01*
X124448671Y-95165311D01*
X124426134Y-95231446D01*
X124381080Y-95270485D01*
X124288386Y-95317715D01*
X124122786Y-95438028D01*
X123978028Y-95582786D01*
X123857715Y-95748386D01*
X123764781Y-95930776D01*
X123701522Y-96125465D01*
X123669500Y-96327648D01*
X123669500Y-96532351D01*
X123701522Y-96734534D01*
X123764781Y-96929223D01*
X123803095Y-97004417D01*
X123851797Y-97100000D01*
X123857715Y-97111613D01*
X123978028Y-97277213D01*
X124122786Y-97421971D01*
X124211156Y-97486174D01*
X124288390Y-97542287D01*
X124379840Y-97588883D01*
X124381080Y-97589515D01*
X124431876Y-97637490D01*
X124448671Y-97705311D01*
X124426134Y-97771446D01*
X124381080Y-97810485D01*
X124288386Y-97857715D01*
X124122786Y-97978028D01*
X123978028Y-98122786D01*
X123857715Y-98288385D01*
X123850883Y-98301795D01*
X123802909Y-98352591D01*
X123740398Y-98369500D01*
X112336669Y-98369500D01*
X112336653Y-98369499D01*
X112329057Y-98369499D01*
X112170943Y-98369499D01*
X112063587Y-98398265D01*
X112018210Y-98410424D01*
X112018209Y-98410425D01*
X111968096Y-98439359D01*
X111968095Y-98439360D01*
X111924689Y-98464420D01*
X111881285Y-98489479D01*
X111881282Y-98489481D01*
X111769478Y-98601286D01*
X101014526Y-109356237D01*
X100953203Y-109389722D01*
X100900478Y-109389158D01*
X100900448Y-109389349D01*
X100899156Y-109389144D01*
X100897903Y-109389131D01*
X100895636Y-109388586D01*
X100713232Y-109359697D01*
X100699361Y-109357500D01*
X100500639Y-109357500D01*
X100435214Y-109367862D01*
X100304362Y-109388587D01*
X100115370Y-109449993D01*
X100115367Y-109449994D01*
X99938305Y-109540213D01*
X99777533Y-109657021D01*
X99637021Y-109797533D01*
X99520213Y-109958305D01*
X99440485Y-110114780D01*
X99392510Y-110165576D01*
X99324689Y-110182371D01*
X99258554Y-110159833D01*
X99219515Y-110114780D01*
X99177565Y-110032450D01*
X99139787Y-109958306D01*
X99022981Y-109797536D01*
X98882464Y-109657019D01*
X98721694Y-109540213D01*
X98701844Y-109530099D01*
X98544632Y-109449994D01*
X98544629Y-109449993D01*
X98355637Y-109388587D01*
X98257498Y-109373043D01*
X98159361Y-109357500D01*
X97960639Y-109357500D01*
X97895214Y-109367862D01*
X97764362Y-109388587D01*
X97575370Y-109449993D01*
X97575367Y-109449994D01*
X97398305Y-109540213D01*
X97237533Y-109657021D01*
X97097021Y-109797533D01*
X97097021Y-109797534D01*
X97097019Y-109797536D01*
X97082081Y-109818097D01*
X97006817Y-109921688D01*
X96951487Y-109964353D01*
X96881873Y-109970332D01*
X96820078Y-109937726D01*
X96785721Y-109876887D01*
X96782499Y-109848802D01*
X96782499Y-109810129D01*
X96782498Y-109810123D01*
X96782497Y-109810116D01*
X96776091Y-109750517D01*
X96741219Y-109657021D01*
X96725797Y-109615671D01*
X96725793Y-109615664D01*
X96639547Y-109500455D01*
X96639544Y-109500452D01*
X96524335Y-109414206D01*
X96524328Y-109414202D01*
X96389482Y-109363908D01*
X96389483Y-109363908D01*
X96329883Y-109357501D01*
X96329881Y-109357500D01*
X96329873Y-109357500D01*
X96329864Y-109357500D01*
X94710129Y-109357500D01*
X94710123Y-109357501D01*
X94650516Y-109363908D01*
X94515671Y-109414202D01*
X94515664Y-109414206D01*
X94400455Y-109500452D01*
X94400452Y-109500455D01*
X94314206Y-109615664D01*
X94314202Y-109615671D01*
X94263908Y-109750517D01*
X94258819Y-109797859D01*
X94257501Y-109810123D01*
X94257500Y-109810135D01*
X92100500Y-109810135D01*
X92100500Y-76260135D01*
X101327500Y-76260135D01*
X101327500Y-78279870D01*
X101327501Y-78279876D01*
X101333908Y-78339483D01*
X101384202Y-78474328D01*
X101384206Y-78474335D01*
X101470452Y-78589544D01*
X101470455Y-78589547D01*
X101585664Y-78675793D01*
X101585671Y-78675797D01*
X101720517Y-78726091D01*
X101720516Y-78726091D01*
X101727444Y-78726835D01*
X101780127Y-78732500D01*
X103799872Y-78732499D01*
X103859483Y-78726091D01*
X103994331Y-78675796D01*
X104109546Y-78589546D01*
X104195796Y-78474331D01*
X104203689Y-78453168D01*
X104245558Y-78397236D01*
X104311022Y-78372817D01*
X104379295Y-78387667D01*
X104392757Y-78396183D01*
X104563744Y-78520414D01*
X104768782Y-78624887D01*
X104987646Y-78696001D01*
X105214933Y-78732000D01*
X105445067Y-78732000D01*
X105672353Y-78696001D01*
X105891217Y-78624887D01*
X106096255Y-78520414D01*
X106171899Y-78465454D01*
X106171899Y-78465453D01*
X105443895Y-77737449D01*
X105515659Y-77718221D01*
X105625341Y-77654896D01*
X105714896Y-77565341D01*
X105778221Y-77455659D01*
X105797449Y-77383895D01*
X106525453Y-78111899D01*
X106548249Y-78110105D01*
X106554699Y-78105132D01*
X106624312Y-78099151D01*
X106686108Y-78131755D01*
X106700006Y-78147795D01*
X106754468Y-78222755D01*
X106917245Y-78385532D01*
X107103483Y-78520842D01*
X107192138Y-78566014D01*
X107308594Y-78625352D01*
X107308597Y-78625353D01*
X107418063Y-78660920D01*
X107527531Y-78696488D01*
X107754899Y-78732500D01*
X107754900Y-78732500D01*
X107985100Y-78732500D01*
X107985101Y-78732500D01*
X108212469Y-78696488D01*
X108431405Y-78625352D01*
X108636517Y-78520842D01*
X108822755Y-78385532D01*
X108985532Y-78222755D01*
X109039682Y-78148223D01*
X109095012Y-78105558D01*
X109164625Y-78099579D01*
X109226420Y-78132185D01*
X109240317Y-78148223D01*
X109294468Y-78222755D01*
X109457245Y-78385532D01*
X109643483Y-78520842D01*
X109732138Y-78566014D01*
X109848594Y-78625352D01*
X109848597Y-78625353D01*
X109958063Y-78660920D01*
X110067531Y-78696488D01*
X110294899Y-78732500D01*
X110294900Y-78732500D01*
X110525100Y-78732500D01*
X110525101Y-78732500D01*
X110752469Y-78696488D01*
X110971405Y-78625352D01*
X111176517Y-78520842D01*
X111362755Y-78385532D01*
X111525532Y-78222755D01*
X111660842Y-78036517D01*
X111765352Y-77831405D01*
X111836488Y-77612469D01*
X111872500Y-77385101D01*
X111872500Y-77154899D01*
X111836488Y-76927531D01*
X111800708Y-76817409D01*
X111765353Y-76708597D01*
X111765352Y-76708594D01*
X111704256Y-76588687D01*
X111660842Y-76503483D01*
X111525532Y-76317245D01*
X111362755Y-76154468D01*
X111176517Y-76019158D01*
X111143206Y-76002185D01*
X110971405Y-75914647D01*
X110971402Y-75914646D01*
X110752470Y-75843512D01*
X110565565Y-75813909D01*
X110525101Y-75807500D01*
X110294899Y-75807500D01*
X110254441Y-75813908D01*
X110067529Y-75843512D01*
X109848597Y-75914646D01*
X109848594Y-75914647D01*
X109643482Y-76019158D01*
X109537227Y-76096357D01*
X109457245Y-76154468D01*
X109457243Y-76154470D01*
X109457242Y-76154470D01*
X109294469Y-76317243D01*
X109240318Y-76391776D01*
X109184987Y-76434441D01*
X109115374Y-76440420D01*
X109053579Y-76407814D01*
X109039682Y-76391776D01*
X108985532Y-76317245D01*
X108822755Y-76154468D01*
X108636517Y-76019158D01*
X108603206Y-76002185D01*
X108431405Y-75914647D01*
X108431402Y-75914646D01*
X108212470Y-75843512D01*
X108025565Y-75813909D01*
X107985101Y-75807500D01*
X107754899Y-75807500D01*
X107714441Y-75813908D01*
X107527529Y-75843512D01*
X107308597Y-75914646D01*
X107308594Y-75914647D01*
X107103482Y-76019158D01*
X106997227Y-76096357D01*
X106917245Y-76154468D01*
X106917243Y-76154470D01*
X106917242Y-76154470D01*
X106754470Y-76317242D01*
X106754468Y-76317245D01*
X106700007Y-76392202D01*
X106644679Y-76434867D01*
X106575066Y-76440846D01*
X106555369Y-76430453D01*
X106525453Y-76428098D01*
X105797449Y-77156103D01*
X105778221Y-77084341D01*
X105714896Y-76974659D01*
X105625341Y-76885104D01*
X105515659Y-76821779D01*
X105443895Y-76802550D01*
X106171900Y-76074545D01*
X106096253Y-76019585D01*
X106096247Y-76019581D01*
X105891217Y-75915112D01*
X105672353Y-75843998D01*
X105445067Y-75808000D01*
X105214933Y-75808000D01*
X104987646Y-75843998D01*
X104768782Y-75915112D01*
X104563744Y-76019585D01*
X104392757Y-76143816D01*
X104326950Y-76167296D01*
X104258896Y-76151471D01*
X104210202Y-76101365D01*
X104203689Y-76086830D01*
X104195798Y-76065673D01*
X104195793Y-76065664D01*
X104109547Y-75950455D01*
X104109544Y-75950452D01*
X103994335Y-75864206D01*
X103994328Y-75864202D01*
X103859482Y-75813908D01*
X103859483Y-75813908D01*
X103799883Y-75807501D01*
X103799881Y-75807500D01*
X103799873Y-75807500D01*
X103799864Y-75807500D01*
X101780129Y-75807500D01*
X101780123Y-75807501D01*
X101720516Y-75813908D01*
X101585671Y-75864202D01*
X101585664Y-75864206D01*
X101470455Y-75950452D01*
X101470452Y-75950455D01*
X101384206Y-76065664D01*
X101384202Y-76065671D01*
X101333908Y-76200517D01*
X101327501Y-76260116D01*
X101327500Y-76260135D01*
X92100500Y-76260135D01*
X92100500Y-73824500D01*
X92120185Y-73757461D01*
X92172989Y-73711706D01*
X92224500Y-73700500D01*
X165975500Y-73700500D01*
X166042539Y-73720185D01*
G37*
G04 #@! TD.AperFunction*
M02*
