G04 #@! TF.GenerationSoftware,KiCad,Pcbnew,9.0.4*
G04 #@! TF.CreationDate,2025-08-25T12:39:34+03:00*
G04 #@! TF.ProjectId,power supply,706f7765-7220-4737-9570-706c792e6b69,rev?*
G04 #@! TF.SameCoordinates,Original*
G04 #@! TF.FileFunction,Soldermask,Bot*
G04 #@! TF.FilePolarity,Negative*
%FSLAX46Y46*%
G04 Gerber Fmt 4.6, Leading zero omitted, Abs format (unit mm)*
G04 Created by KiCad (PCBNEW 9.0.4) date 2025-08-25 12:39:34*
%MOMM*%
%LPD*%
G01*
G04 APERTURE LIST*
G04 APERTURE END LIST*
G36*
X146832228Y-122934448D02*
G01*
X146977117Y-122994463D01*
X147107515Y-123081592D01*
X147218408Y-123192485D01*
X147305537Y-123322883D01*
X147365552Y-123467772D01*
X147396148Y-123621586D01*
X147396148Y-123778414D01*
X147365552Y-123932228D01*
X147305537Y-124077117D01*
X147218408Y-124207515D01*
X147107515Y-124318408D01*
X146977117Y-124405537D01*
X146832228Y-124465552D01*
X146678414Y-124496148D01*
X146521586Y-124496148D01*
X146367772Y-124465552D01*
X146222883Y-124405537D01*
X146092485Y-124318408D01*
X145981592Y-124207515D01*
X145894463Y-124077117D01*
X145834448Y-123932228D01*
X145803852Y-123778414D01*
X145803852Y-123621586D01*
X145834448Y-123467772D01*
X145894463Y-123322883D01*
X145981592Y-123192485D01*
X146092485Y-123081592D01*
X146222883Y-122994463D01*
X146367772Y-122934448D01*
X146521586Y-122903852D01*
X146678414Y-122903852D01*
X146832228Y-122934448D01*
G37*
G36*
X156890285Y-121743060D02*
G01*
X157071397Y-121818079D01*
X157234393Y-121926990D01*
X157373010Y-122065607D01*
X157481921Y-122228603D01*
X157556940Y-122409715D01*
X157595185Y-122601983D01*
X157595185Y-122798017D01*
X157556940Y-122990285D01*
X157481921Y-123171397D01*
X157373010Y-123334393D01*
X157234393Y-123473010D01*
X157071397Y-123581921D01*
X156890285Y-123656940D01*
X156698017Y-123695185D01*
X156501983Y-123695185D01*
X156309715Y-123656940D01*
X156128603Y-123581921D01*
X155965607Y-123473010D01*
X155826990Y-123334393D01*
X155718079Y-123171397D01*
X155643060Y-122990285D01*
X155604815Y-122798017D01*
X155604815Y-122601983D01*
X155643060Y-122409715D01*
X155718079Y-122228603D01*
X155826990Y-122065607D01*
X155965607Y-121926990D01*
X156128603Y-121818079D01*
X156309715Y-121743060D01*
X156501983Y-121704815D01*
X156698017Y-121704815D01*
X156890285Y-121743060D01*
G37*
G36*
X163390285Y-121743060D02*
G01*
X163571397Y-121818079D01*
X163734393Y-121926990D01*
X163873010Y-122065607D01*
X163981921Y-122228603D01*
X164056940Y-122409715D01*
X164095185Y-122601983D01*
X164095185Y-122798017D01*
X164056940Y-122990285D01*
X163981921Y-123171397D01*
X163873010Y-123334393D01*
X163734393Y-123473010D01*
X163571397Y-123581921D01*
X163390285Y-123656940D01*
X163198017Y-123695185D01*
X163001983Y-123695185D01*
X162809715Y-123656940D01*
X162628603Y-123581921D01*
X162465607Y-123473010D01*
X162326990Y-123334393D01*
X162218079Y-123171397D01*
X162143060Y-122990285D01*
X162104815Y-122798017D01*
X162104815Y-122601983D01*
X162143060Y-122409715D01*
X162218079Y-122228603D01*
X162326990Y-122065607D01*
X162465607Y-121926990D01*
X162628603Y-121818079D01*
X162809715Y-121743060D01*
X163001983Y-121704815D01*
X163198017Y-121704815D01*
X163390285Y-121743060D01*
G37*
G36*
X151832228Y-121934448D02*
G01*
X151977117Y-121994463D01*
X152107515Y-122081592D01*
X152218408Y-122192485D01*
X152305537Y-122322883D01*
X152365552Y-122467772D01*
X152396148Y-122621586D01*
X152396148Y-122778414D01*
X152365552Y-122932228D01*
X152305537Y-123077117D01*
X152218408Y-123207515D01*
X152107515Y-123318408D01*
X151977117Y-123405537D01*
X151832228Y-123465552D01*
X151678414Y-123496148D01*
X151521586Y-123496148D01*
X151367772Y-123465552D01*
X151222883Y-123405537D01*
X151092485Y-123318408D01*
X150981592Y-123207515D01*
X150894463Y-123077117D01*
X150834448Y-122932228D01*
X150803852Y-122778414D01*
X150803852Y-122621586D01*
X150834448Y-122467772D01*
X150894463Y-122322883D01*
X150981592Y-122192485D01*
X151092485Y-122081592D01*
X151222883Y-121994463D01*
X151367772Y-121934448D01*
X151521586Y-121903852D01*
X151678414Y-121903852D01*
X151832228Y-121934448D01*
G37*
G36*
X156890285Y-117243060D02*
G01*
X157071397Y-117318079D01*
X157234393Y-117426990D01*
X157373010Y-117565607D01*
X157481921Y-117728603D01*
X157556940Y-117909715D01*
X157595185Y-118101983D01*
X157595185Y-118298017D01*
X157556940Y-118490285D01*
X157481921Y-118671397D01*
X157373010Y-118834393D01*
X157234393Y-118973010D01*
X157071397Y-119081921D01*
X156890285Y-119156940D01*
X156698017Y-119195185D01*
X156501983Y-119195185D01*
X156309715Y-119156940D01*
X156128603Y-119081921D01*
X155965607Y-118973010D01*
X155826990Y-118834393D01*
X155718079Y-118671397D01*
X155643060Y-118490285D01*
X155604815Y-118298017D01*
X155604815Y-118101983D01*
X155643060Y-117909715D01*
X155718079Y-117728603D01*
X155826990Y-117565607D01*
X155965607Y-117426990D01*
X156128603Y-117318079D01*
X156309715Y-117243060D01*
X156501983Y-117204815D01*
X156698017Y-117204815D01*
X156890285Y-117243060D01*
G37*
G36*
X163390285Y-117243060D02*
G01*
X163571397Y-117318079D01*
X163734393Y-117426990D01*
X163873010Y-117565607D01*
X163981921Y-117728603D01*
X164056940Y-117909715D01*
X164095185Y-118101983D01*
X164095185Y-118298017D01*
X164056940Y-118490285D01*
X163981921Y-118671397D01*
X163873010Y-118834393D01*
X163734393Y-118973010D01*
X163571397Y-119081921D01*
X163390285Y-119156940D01*
X163198017Y-119195185D01*
X163001983Y-119195185D01*
X162809715Y-119156940D01*
X162628603Y-119081921D01*
X162465607Y-118973010D01*
X162326990Y-118834393D01*
X162218079Y-118671397D01*
X162143060Y-118490285D01*
X162104815Y-118298017D01*
X162104815Y-118101983D01*
X162143060Y-117909715D01*
X162218079Y-117728603D01*
X162326990Y-117565607D01*
X162465607Y-117426990D01*
X162628603Y-117318079D01*
X162809715Y-117243060D01*
X163001983Y-117204815D01*
X163198017Y-117204815D01*
X163390285Y-117243060D01*
G37*
G36*
X151832228Y-116934448D02*
G01*
X151977117Y-116994463D01*
X152107515Y-117081592D01*
X152218408Y-117192485D01*
X152305537Y-117322883D01*
X152365552Y-117467772D01*
X152396148Y-117621586D01*
X152396148Y-117778414D01*
X152365552Y-117932228D01*
X152305537Y-118077117D01*
X152218408Y-118207515D01*
X152107515Y-118318408D01*
X151977117Y-118405537D01*
X151832228Y-118465552D01*
X151678414Y-118496148D01*
X151521586Y-118496148D01*
X151367772Y-118465552D01*
X151222883Y-118405537D01*
X151092485Y-118318408D01*
X150981592Y-118207515D01*
X150894463Y-118077117D01*
X150834448Y-117932228D01*
X150803852Y-117778414D01*
X150803852Y-117621586D01*
X150834448Y-117467772D01*
X150894463Y-117322883D01*
X150981592Y-117192485D01*
X151092485Y-117081592D01*
X151222883Y-116994463D01*
X151367772Y-116934448D01*
X151521586Y-116903852D01*
X151678414Y-116903852D01*
X151832228Y-116934448D01*
G37*
G36*
X141010000Y-117550000D02*
G01*
X139410000Y-117550000D01*
X139410000Y-115950000D01*
X141010000Y-115950000D01*
X141010000Y-117550000D01*
G37*
G36*
X125202228Y-115984448D02*
G01*
X125347117Y-116044463D01*
X125477515Y-116131592D01*
X125588408Y-116242485D01*
X125675537Y-116372883D01*
X125735552Y-116517772D01*
X125766148Y-116671586D01*
X125766148Y-116828414D01*
X125735552Y-116982228D01*
X125675537Y-117127117D01*
X125588408Y-117257515D01*
X125477515Y-117368408D01*
X125347117Y-117455537D01*
X125202228Y-117515552D01*
X125048414Y-117546148D01*
X124891586Y-117546148D01*
X124737772Y-117515552D01*
X124592883Y-117455537D01*
X124462485Y-117368408D01*
X124351592Y-117257515D01*
X124264463Y-117127117D01*
X124204448Y-116982228D01*
X124173852Y-116828414D01*
X124173852Y-116671586D01*
X124204448Y-116517772D01*
X124264463Y-116372883D01*
X124351592Y-116242485D01*
X124462485Y-116131592D01*
X124592883Y-116044463D01*
X124737772Y-115984448D01*
X124891586Y-115953852D01*
X125048414Y-115953852D01*
X125202228Y-115984448D01*
G37*
G36*
X146832228Y-115314448D02*
G01*
X146977117Y-115374463D01*
X147107515Y-115461592D01*
X147218408Y-115572485D01*
X147305537Y-115702883D01*
X147365552Y-115847772D01*
X147396148Y-116001586D01*
X147396148Y-116158414D01*
X147365552Y-116312228D01*
X147305537Y-116457117D01*
X147218408Y-116587515D01*
X147107515Y-116698408D01*
X146977117Y-116785537D01*
X146832228Y-116845552D01*
X146678414Y-116876148D01*
X146521586Y-116876148D01*
X146367772Y-116845552D01*
X146222883Y-116785537D01*
X146092485Y-116698408D01*
X145981592Y-116587515D01*
X145894463Y-116457117D01*
X145834448Y-116312228D01*
X145803852Y-116158414D01*
X145803852Y-116001586D01*
X145834448Y-115847772D01*
X145894463Y-115702883D01*
X145981592Y-115572485D01*
X146092485Y-115461592D01*
X146222883Y-115374463D01*
X146367772Y-115314448D01*
X146521586Y-115283852D01*
X146678414Y-115283852D01*
X146832228Y-115314448D01*
G37*
G36*
X125202228Y-113444448D02*
G01*
X125347117Y-113504463D01*
X125477515Y-113591592D01*
X125588408Y-113702485D01*
X125675537Y-113832883D01*
X125735552Y-113977772D01*
X125766148Y-114131586D01*
X125766148Y-114288414D01*
X125735552Y-114442228D01*
X125675537Y-114587117D01*
X125588408Y-114717515D01*
X125477515Y-114828408D01*
X125347117Y-114915537D01*
X125202228Y-114975552D01*
X125048414Y-115006148D01*
X124891586Y-115006148D01*
X124737772Y-114975552D01*
X124592883Y-114915537D01*
X124462485Y-114828408D01*
X124351592Y-114717515D01*
X124264463Y-114587117D01*
X124204448Y-114442228D01*
X124173852Y-114288414D01*
X124173852Y-114131586D01*
X124204448Y-113977772D01*
X124264463Y-113832883D01*
X124351592Y-113702485D01*
X124462485Y-113591592D01*
X124592883Y-113504463D01*
X124737772Y-113444448D01*
X124891586Y-113413852D01*
X125048414Y-113413852D01*
X125202228Y-113444448D01*
G37*
G36*
X140442228Y-113444448D02*
G01*
X140587117Y-113504463D01*
X140717515Y-113591592D01*
X140828408Y-113702485D01*
X140915537Y-113832883D01*
X140975552Y-113977772D01*
X141006148Y-114131586D01*
X141006148Y-114288414D01*
X140975552Y-114442228D01*
X140915537Y-114587117D01*
X140828408Y-114717515D01*
X140717515Y-114828408D01*
X140587117Y-114915537D01*
X140442228Y-114975552D01*
X140288414Y-115006148D01*
X140131586Y-115006148D01*
X139977772Y-114975552D01*
X139832883Y-114915537D01*
X139702485Y-114828408D01*
X139591592Y-114717515D01*
X139504463Y-114587117D01*
X139444448Y-114442228D01*
X139413852Y-114288414D01*
X139413852Y-114131586D01*
X139444448Y-113977772D01*
X139504463Y-113832883D01*
X139591592Y-113702485D01*
X139702485Y-113591592D01*
X139832883Y-113504463D01*
X139977772Y-113444448D01*
X140131586Y-113413852D01*
X140288414Y-113413852D01*
X140442228Y-113444448D01*
G37*
G36*
X125202228Y-110904448D02*
G01*
X125347117Y-110964463D01*
X125477515Y-111051592D01*
X125588408Y-111162485D01*
X125675537Y-111292883D01*
X125735552Y-111437772D01*
X125766148Y-111591586D01*
X125766148Y-111748414D01*
X125735552Y-111902228D01*
X125675537Y-112047117D01*
X125588408Y-112177515D01*
X125477515Y-112288408D01*
X125347117Y-112375537D01*
X125202228Y-112435552D01*
X125048414Y-112466148D01*
X124891586Y-112466148D01*
X124737772Y-112435552D01*
X124592883Y-112375537D01*
X124462485Y-112288408D01*
X124351592Y-112177515D01*
X124264463Y-112047117D01*
X124204448Y-111902228D01*
X124173852Y-111748414D01*
X124173852Y-111591586D01*
X124204448Y-111437772D01*
X124264463Y-111292883D01*
X124351592Y-111162485D01*
X124462485Y-111051592D01*
X124592883Y-110964463D01*
X124737772Y-110904448D01*
X124891586Y-110873852D01*
X125048414Y-110873852D01*
X125202228Y-110904448D01*
G37*
G36*
X140442228Y-110904448D02*
G01*
X140587117Y-110964463D01*
X140717515Y-111051592D01*
X140828408Y-111162485D01*
X140915537Y-111292883D01*
X140975552Y-111437772D01*
X141006148Y-111591586D01*
X141006148Y-111748414D01*
X140975552Y-111902228D01*
X140915537Y-112047117D01*
X140828408Y-112177515D01*
X140717515Y-112288408D01*
X140587117Y-112375537D01*
X140442228Y-112435552D01*
X140288414Y-112466148D01*
X140131586Y-112466148D01*
X139977772Y-112435552D01*
X139832883Y-112375537D01*
X139702485Y-112288408D01*
X139591592Y-112177515D01*
X139504463Y-112047117D01*
X139444448Y-111902228D01*
X139413852Y-111748414D01*
X139413852Y-111591586D01*
X139444448Y-111437772D01*
X139504463Y-111292883D01*
X139591592Y-111162485D01*
X139702485Y-111051592D01*
X139832883Y-110964463D01*
X139977772Y-110904448D01*
X140131586Y-110873852D01*
X140288414Y-110873852D01*
X140442228Y-110904448D01*
G37*
G36*
X147832228Y-109934448D02*
G01*
X147977117Y-109994463D01*
X148107515Y-110081592D01*
X148218408Y-110192485D01*
X148305537Y-110322883D01*
X148365552Y-110467772D01*
X148396148Y-110621586D01*
X148396148Y-110778414D01*
X148365552Y-110932228D01*
X148305537Y-111077117D01*
X148218408Y-111207515D01*
X148107515Y-111318408D01*
X147977117Y-111405537D01*
X147832228Y-111465552D01*
X147678414Y-111496148D01*
X147521586Y-111496148D01*
X147367772Y-111465552D01*
X147222883Y-111405537D01*
X147092485Y-111318408D01*
X146981592Y-111207515D01*
X146894463Y-111077117D01*
X146834448Y-110932228D01*
X146803852Y-110778414D01*
X146803852Y-110621586D01*
X146834448Y-110467772D01*
X146894463Y-110322883D01*
X146981592Y-110192485D01*
X147092485Y-110081592D01*
X147222883Y-109994463D01*
X147367772Y-109934448D01*
X147521586Y-109903852D01*
X147678414Y-109903852D01*
X147832228Y-109934448D01*
G37*
G36*
X96282000Y-111382000D02*
G01*
X94758000Y-111382000D01*
X94758000Y-109858000D01*
X96282000Y-109858000D01*
X96282000Y-111382000D01*
G37*
G36*
X98281197Y-109890811D02*
G01*
X98419204Y-109947976D01*
X98543408Y-110030966D01*
X98649034Y-110136592D01*
X98732024Y-110260796D01*
X98789189Y-110398803D01*
X98818331Y-110545311D01*
X98818331Y-110694689D01*
X98789189Y-110841197D01*
X98732024Y-110979204D01*
X98649034Y-111103408D01*
X98543408Y-111209034D01*
X98419204Y-111292024D01*
X98281197Y-111349189D01*
X98134689Y-111378331D01*
X97985311Y-111378331D01*
X97838803Y-111349189D01*
X97700796Y-111292024D01*
X97576592Y-111209034D01*
X97470966Y-111103408D01*
X97387976Y-110979204D01*
X97330811Y-110841197D01*
X97301669Y-110694689D01*
X97301669Y-110545311D01*
X97330811Y-110398803D01*
X97387976Y-110260796D01*
X97470966Y-110136592D01*
X97576592Y-110030966D01*
X97700796Y-109947976D01*
X97838803Y-109890811D01*
X97985311Y-109861669D01*
X98134689Y-109861669D01*
X98281197Y-109890811D01*
G37*
G36*
X100821197Y-109890811D02*
G01*
X100959204Y-109947976D01*
X101083408Y-110030966D01*
X101189034Y-110136592D01*
X101272024Y-110260796D01*
X101329189Y-110398803D01*
X101358331Y-110545311D01*
X101358331Y-110694689D01*
X101329189Y-110841197D01*
X101272024Y-110979204D01*
X101189034Y-111103408D01*
X101083408Y-111209034D01*
X100959204Y-111292024D01*
X100821197Y-111349189D01*
X100674689Y-111378331D01*
X100525311Y-111378331D01*
X100378803Y-111349189D01*
X100240796Y-111292024D01*
X100116592Y-111209034D01*
X100010966Y-111103408D01*
X99927976Y-110979204D01*
X99870811Y-110841197D01*
X99841669Y-110694689D01*
X99841669Y-110545311D01*
X99870811Y-110398803D01*
X99927976Y-110260796D01*
X100010966Y-110136592D01*
X100116592Y-110030966D01*
X100240796Y-109947976D01*
X100378803Y-109890811D01*
X100525311Y-109861669D01*
X100674689Y-109861669D01*
X100821197Y-109890811D01*
G37*
G36*
X103361197Y-109890811D02*
G01*
X103499204Y-109947976D01*
X103623408Y-110030966D01*
X103729034Y-110136592D01*
X103812024Y-110260796D01*
X103869189Y-110398803D01*
X103898331Y-110545311D01*
X103898331Y-110694689D01*
X103869189Y-110841197D01*
X103812024Y-110979204D01*
X103729034Y-111103408D01*
X103623408Y-111209034D01*
X103499204Y-111292024D01*
X103361197Y-111349189D01*
X103214689Y-111378331D01*
X103065311Y-111378331D01*
X102918803Y-111349189D01*
X102780796Y-111292024D01*
X102656592Y-111209034D01*
X102550966Y-111103408D01*
X102467976Y-110979204D01*
X102410811Y-110841197D01*
X102381669Y-110694689D01*
X102381669Y-110545311D01*
X102410811Y-110398803D01*
X102467976Y-110260796D01*
X102550966Y-110136592D01*
X102656592Y-110030966D01*
X102780796Y-109947976D01*
X102918803Y-109890811D01*
X103065311Y-109861669D01*
X103214689Y-109861669D01*
X103361197Y-109890811D01*
G37*
G36*
X105901197Y-109890811D02*
G01*
X106039204Y-109947976D01*
X106163408Y-110030966D01*
X106269034Y-110136592D01*
X106352024Y-110260796D01*
X106409189Y-110398803D01*
X106438331Y-110545311D01*
X106438331Y-110694689D01*
X106409189Y-110841197D01*
X106352024Y-110979204D01*
X106269034Y-111103408D01*
X106163408Y-111209034D01*
X106039204Y-111292024D01*
X105901197Y-111349189D01*
X105754689Y-111378331D01*
X105605311Y-111378331D01*
X105458803Y-111349189D01*
X105320796Y-111292024D01*
X105196592Y-111209034D01*
X105090966Y-111103408D01*
X105007976Y-110979204D01*
X104950811Y-110841197D01*
X104921669Y-110694689D01*
X104921669Y-110545311D01*
X104950811Y-110398803D01*
X105007976Y-110260796D01*
X105090966Y-110136592D01*
X105196592Y-110030966D01*
X105320796Y-109947976D01*
X105458803Y-109890811D01*
X105605311Y-109861669D01*
X105754689Y-109861669D01*
X105901197Y-109890811D01*
G37*
G36*
X156890285Y-108743060D02*
G01*
X157071397Y-108818079D01*
X157234393Y-108926990D01*
X157373010Y-109065607D01*
X157481921Y-109228603D01*
X157556940Y-109409715D01*
X157595185Y-109601983D01*
X157595185Y-109798017D01*
X157556940Y-109990285D01*
X157481921Y-110171397D01*
X157373010Y-110334393D01*
X157234393Y-110473010D01*
X157071397Y-110581921D01*
X156890285Y-110656940D01*
X156698017Y-110695185D01*
X156501983Y-110695185D01*
X156309715Y-110656940D01*
X156128603Y-110581921D01*
X155965607Y-110473010D01*
X155826990Y-110334393D01*
X155718079Y-110171397D01*
X155643060Y-109990285D01*
X155604815Y-109798017D01*
X155604815Y-109601983D01*
X155643060Y-109409715D01*
X155718079Y-109228603D01*
X155826990Y-109065607D01*
X155965607Y-108926990D01*
X156128603Y-108818079D01*
X156309715Y-108743060D01*
X156501983Y-108704815D01*
X156698017Y-108704815D01*
X156890285Y-108743060D01*
G37*
G36*
X163390285Y-108743060D02*
G01*
X163571397Y-108818079D01*
X163734393Y-108926990D01*
X163873010Y-109065607D01*
X163981921Y-109228603D01*
X164056940Y-109409715D01*
X164095185Y-109601983D01*
X164095185Y-109798017D01*
X164056940Y-109990285D01*
X163981921Y-110171397D01*
X163873010Y-110334393D01*
X163734393Y-110473010D01*
X163571397Y-110581921D01*
X163390285Y-110656940D01*
X163198017Y-110695185D01*
X163001983Y-110695185D01*
X162809715Y-110656940D01*
X162628603Y-110581921D01*
X162465607Y-110473010D01*
X162326990Y-110334393D01*
X162218079Y-110171397D01*
X162143060Y-109990285D01*
X162104815Y-109798017D01*
X162104815Y-109601983D01*
X162143060Y-109409715D01*
X162218079Y-109228603D01*
X162326990Y-109065607D01*
X162465607Y-108926990D01*
X162628603Y-108818079D01*
X162809715Y-108743060D01*
X163001983Y-108704815D01*
X163198017Y-108704815D01*
X163390285Y-108743060D01*
G37*
G36*
X152332228Y-108934448D02*
G01*
X152477117Y-108994463D01*
X152607515Y-109081592D01*
X152718408Y-109192485D01*
X152805537Y-109322883D01*
X152865552Y-109467772D01*
X152896148Y-109621586D01*
X152896148Y-109778414D01*
X152865552Y-109932228D01*
X152805537Y-110077117D01*
X152718408Y-110207515D01*
X152607515Y-110318408D01*
X152477117Y-110405537D01*
X152332228Y-110465552D01*
X152178414Y-110496148D01*
X152021586Y-110496148D01*
X151867772Y-110465552D01*
X151722883Y-110405537D01*
X151592485Y-110318408D01*
X151481592Y-110207515D01*
X151394463Y-110077117D01*
X151334448Y-109932228D01*
X151303852Y-109778414D01*
X151303852Y-109621586D01*
X151334448Y-109467772D01*
X151394463Y-109322883D01*
X151481592Y-109192485D01*
X151592485Y-109081592D01*
X151722883Y-108994463D01*
X151867772Y-108934448D01*
X152021586Y-108903852D01*
X152178414Y-108903852D01*
X152332228Y-108934448D01*
G37*
G36*
X125202228Y-108364448D02*
G01*
X125347117Y-108424463D01*
X125477515Y-108511592D01*
X125588408Y-108622485D01*
X125675537Y-108752883D01*
X125735552Y-108897772D01*
X125766148Y-109051586D01*
X125766148Y-109208414D01*
X125735552Y-109362228D01*
X125675537Y-109507117D01*
X125588408Y-109637515D01*
X125477515Y-109748408D01*
X125347117Y-109835537D01*
X125202228Y-109895552D01*
X125048414Y-109926148D01*
X124891586Y-109926148D01*
X124737772Y-109895552D01*
X124592883Y-109835537D01*
X124462485Y-109748408D01*
X124351592Y-109637515D01*
X124264463Y-109507117D01*
X124204448Y-109362228D01*
X124173852Y-109208414D01*
X124173852Y-109051586D01*
X124204448Y-108897772D01*
X124264463Y-108752883D01*
X124351592Y-108622485D01*
X124462485Y-108511592D01*
X124592883Y-108424463D01*
X124737772Y-108364448D01*
X124891586Y-108333852D01*
X125048414Y-108333852D01*
X125202228Y-108364448D01*
G37*
G36*
X140442228Y-108364448D02*
G01*
X140587117Y-108424463D01*
X140717515Y-108511592D01*
X140828408Y-108622485D01*
X140915537Y-108752883D01*
X140975552Y-108897772D01*
X141006148Y-109051586D01*
X141006148Y-109208414D01*
X140975552Y-109362228D01*
X140915537Y-109507117D01*
X140828408Y-109637515D01*
X140717515Y-109748408D01*
X140587117Y-109835537D01*
X140442228Y-109895552D01*
X140288414Y-109926148D01*
X140131586Y-109926148D01*
X139977772Y-109895552D01*
X139832883Y-109835537D01*
X139702485Y-109748408D01*
X139591592Y-109637515D01*
X139504463Y-109507117D01*
X139444448Y-109362228D01*
X139413852Y-109208414D01*
X139413852Y-109051586D01*
X139444448Y-108897772D01*
X139504463Y-108752883D01*
X139591592Y-108622485D01*
X139702485Y-108511592D01*
X139832883Y-108424463D01*
X139977772Y-108364448D01*
X140131586Y-108333852D01*
X140288414Y-108333852D01*
X140442228Y-108364448D01*
G37*
G36*
X125202228Y-105824448D02*
G01*
X125347117Y-105884463D01*
X125477515Y-105971592D01*
X125588408Y-106082485D01*
X125675537Y-106212883D01*
X125735552Y-106357772D01*
X125766148Y-106511586D01*
X125766148Y-106668414D01*
X125735552Y-106822228D01*
X125675537Y-106967117D01*
X125588408Y-107097515D01*
X125477515Y-107208408D01*
X125347117Y-107295537D01*
X125202228Y-107355552D01*
X125048414Y-107386148D01*
X124891586Y-107386148D01*
X124737772Y-107355552D01*
X124592883Y-107295537D01*
X124462485Y-107208408D01*
X124351592Y-107097515D01*
X124264463Y-106967117D01*
X124204448Y-106822228D01*
X124173852Y-106668414D01*
X124173852Y-106511586D01*
X124204448Y-106357772D01*
X124264463Y-106212883D01*
X124351592Y-106082485D01*
X124462485Y-105971592D01*
X124592883Y-105884463D01*
X124737772Y-105824448D01*
X124891586Y-105793852D01*
X125048414Y-105793852D01*
X125202228Y-105824448D01*
G37*
G36*
X140442228Y-105824448D02*
G01*
X140587117Y-105884463D01*
X140717515Y-105971592D01*
X140828408Y-106082485D01*
X140915537Y-106212883D01*
X140975552Y-106357772D01*
X141006148Y-106511586D01*
X141006148Y-106668414D01*
X140975552Y-106822228D01*
X140915537Y-106967117D01*
X140828408Y-107097515D01*
X140717515Y-107208408D01*
X140587117Y-107295537D01*
X140442228Y-107355552D01*
X140288414Y-107386148D01*
X140131586Y-107386148D01*
X139977772Y-107355552D01*
X139832883Y-107295537D01*
X139702485Y-107208408D01*
X139591592Y-107097515D01*
X139504463Y-106967117D01*
X139444448Y-106822228D01*
X139413852Y-106668414D01*
X139413852Y-106511586D01*
X139444448Y-106357772D01*
X139504463Y-106212883D01*
X139591592Y-106082485D01*
X139702485Y-105971592D01*
X139832883Y-105884463D01*
X139977772Y-105824448D01*
X140131586Y-105793852D01*
X140288414Y-105793852D01*
X140442228Y-105824448D01*
G37*
G36*
X156890285Y-104243060D02*
G01*
X157071397Y-104318079D01*
X157234393Y-104426990D01*
X157373010Y-104565607D01*
X157481921Y-104728603D01*
X157556940Y-104909715D01*
X157595185Y-105101983D01*
X157595185Y-105298017D01*
X157556940Y-105490285D01*
X157481921Y-105671397D01*
X157373010Y-105834393D01*
X157234393Y-105973010D01*
X157071397Y-106081921D01*
X156890285Y-106156940D01*
X156698017Y-106195185D01*
X156501983Y-106195185D01*
X156309715Y-106156940D01*
X156128603Y-106081921D01*
X155965607Y-105973010D01*
X155826990Y-105834393D01*
X155718079Y-105671397D01*
X155643060Y-105490285D01*
X155604815Y-105298017D01*
X155604815Y-105101983D01*
X155643060Y-104909715D01*
X155718079Y-104728603D01*
X155826990Y-104565607D01*
X155965607Y-104426990D01*
X156128603Y-104318079D01*
X156309715Y-104243060D01*
X156501983Y-104204815D01*
X156698017Y-104204815D01*
X156890285Y-104243060D01*
G37*
G36*
X163390285Y-104243060D02*
G01*
X163571397Y-104318079D01*
X163734393Y-104426990D01*
X163873010Y-104565607D01*
X163981921Y-104728603D01*
X164056940Y-104909715D01*
X164095185Y-105101983D01*
X164095185Y-105298017D01*
X164056940Y-105490285D01*
X163981921Y-105671397D01*
X163873010Y-105834393D01*
X163734393Y-105973010D01*
X163571397Y-106081921D01*
X163390285Y-106156940D01*
X163198017Y-106195185D01*
X163001983Y-106195185D01*
X162809715Y-106156940D01*
X162628603Y-106081921D01*
X162465607Y-105973010D01*
X162326990Y-105834393D01*
X162218079Y-105671397D01*
X162143060Y-105490285D01*
X162104815Y-105298017D01*
X162104815Y-105101983D01*
X162143060Y-104909715D01*
X162218079Y-104728603D01*
X162326990Y-104565607D01*
X162465607Y-104426990D01*
X162628603Y-104318079D01*
X162809715Y-104243060D01*
X163001983Y-104204815D01*
X163198017Y-104204815D01*
X163390285Y-104243060D01*
G37*
G36*
X152332228Y-103934448D02*
G01*
X152477117Y-103994463D01*
X152607515Y-104081592D01*
X152718408Y-104192485D01*
X152805537Y-104322883D01*
X152865552Y-104467772D01*
X152896148Y-104621586D01*
X152896148Y-104778414D01*
X152865552Y-104932228D01*
X152805537Y-105077117D01*
X152718408Y-105207515D01*
X152607515Y-105318408D01*
X152477117Y-105405537D01*
X152332228Y-105465552D01*
X152178414Y-105496148D01*
X152021586Y-105496148D01*
X151867772Y-105465552D01*
X151722883Y-105405537D01*
X151592485Y-105318408D01*
X151481592Y-105207515D01*
X151394463Y-105077117D01*
X151334448Y-104932228D01*
X151303852Y-104778414D01*
X151303852Y-104621586D01*
X151334448Y-104467772D01*
X151394463Y-104322883D01*
X151481592Y-104192485D01*
X151592485Y-104081592D01*
X151722883Y-103994463D01*
X151867772Y-103934448D01*
X152021586Y-103903852D01*
X152178414Y-103903852D01*
X152332228Y-103934448D01*
G37*
G36*
X125202228Y-103284448D02*
G01*
X125347117Y-103344463D01*
X125477515Y-103431592D01*
X125588408Y-103542485D01*
X125675537Y-103672883D01*
X125735552Y-103817772D01*
X125766148Y-103971586D01*
X125766148Y-104128414D01*
X125735552Y-104282228D01*
X125675537Y-104427117D01*
X125588408Y-104557515D01*
X125477515Y-104668408D01*
X125347117Y-104755537D01*
X125202228Y-104815552D01*
X125048414Y-104846148D01*
X124891586Y-104846148D01*
X124737772Y-104815552D01*
X124592883Y-104755537D01*
X124462485Y-104668408D01*
X124351592Y-104557515D01*
X124264463Y-104427117D01*
X124204448Y-104282228D01*
X124173852Y-104128414D01*
X124173852Y-103971586D01*
X124204448Y-103817772D01*
X124264463Y-103672883D01*
X124351592Y-103542485D01*
X124462485Y-103431592D01*
X124592883Y-103344463D01*
X124737772Y-103284448D01*
X124891586Y-103253852D01*
X125048414Y-103253852D01*
X125202228Y-103284448D01*
G37*
G36*
X140442228Y-103284448D02*
G01*
X140587117Y-103344463D01*
X140717515Y-103431592D01*
X140828408Y-103542485D01*
X140915537Y-103672883D01*
X140975552Y-103817772D01*
X141006148Y-103971586D01*
X141006148Y-104128414D01*
X140975552Y-104282228D01*
X140915537Y-104427117D01*
X140828408Y-104557515D01*
X140717515Y-104668408D01*
X140587117Y-104755537D01*
X140442228Y-104815552D01*
X140288414Y-104846148D01*
X140131586Y-104846148D01*
X139977772Y-104815552D01*
X139832883Y-104755537D01*
X139702485Y-104668408D01*
X139591592Y-104557515D01*
X139504463Y-104427117D01*
X139444448Y-104282228D01*
X139413852Y-104128414D01*
X139413852Y-103971586D01*
X139444448Y-103817772D01*
X139504463Y-103672883D01*
X139591592Y-103542485D01*
X139702485Y-103431592D01*
X139832883Y-103344463D01*
X139977772Y-103284448D01*
X140131586Y-103253852D01*
X140288414Y-103253852D01*
X140442228Y-103284448D01*
G37*
G36*
X147832228Y-102314448D02*
G01*
X147977117Y-102374463D01*
X148107515Y-102461592D01*
X148218408Y-102572485D01*
X148305537Y-102702883D01*
X148365552Y-102847772D01*
X148396148Y-103001586D01*
X148396148Y-103158414D01*
X148365552Y-103312228D01*
X148305537Y-103457117D01*
X148218408Y-103587515D01*
X148107515Y-103698408D01*
X147977117Y-103785537D01*
X147832228Y-103845552D01*
X147678414Y-103876148D01*
X147521586Y-103876148D01*
X147367772Y-103845552D01*
X147222883Y-103785537D01*
X147092485Y-103698408D01*
X146981592Y-103587515D01*
X146894463Y-103457117D01*
X146834448Y-103312228D01*
X146803852Y-103158414D01*
X146803852Y-103001586D01*
X146834448Y-102847772D01*
X146894463Y-102702883D01*
X146981592Y-102572485D01*
X147092485Y-102461592D01*
X147222883Y-102374463D01*
X147367772Y-102314448D01*
X147521586Y-102283852D01*
X147678414Y-102283852D01*
X147832228Y-102314448D01*
G37*
G36*
X125202228Y-100744448D02*
G01*
X125347117Y-100804463D01*
X125477515Y-100891592D01*
X125588408Y-101002485D01*
X125675537Y-101132883D01*
X125735552Y-101277772D01*
X125766148Y-101431586D01*
X125766148Y-101588414D01*
X125735552Y-101742228D01*
X125675537Y-101887117D01*
X125588408Y-102017515D01*
X125477515Y-102128408D01*
X125347117Y-102215537D01*
X125202228Y-102275552D01*
X125048414Y-102306148D01*
X124891586Y-102306148D01*
X124737772Y-102275552D01*
X124592883Y-102215537D01*
X124462485Y-102128408D01*
X124351592Y-102017515D01*
X124264463Y-101887117D01*
X124204448Y-101742228D01*
X124173852Y-101588414D01*
X124173852Y-101431586D01*
X124204448Y-101277772D01*
X124264463Y-101132883D01*
X124351592Y-101002485D01*
X124462485Y-100891592D01*
X124592883Y-100804463D01*
X124737772Y-100744448D01*
X124891586Y-100713852D01*
X125048414Y-100713852D01*
X125202228Y-100744448D01*
G37*
G36*
X140442228Y-100744448D02*
G01*
X140587117Y-100804463D01*
X140717515Y-100891592D01*
X140828408Y-101002485D01*
X140915537Y-101132883D01*
X140975552Y-101277772D01*
X141006148Y-101431586D01*
X141006148Y-101588414D01*
X140975552Y-101742228D01*
X140915537Y-101887117D01*
X140828408Y-102017515D01*
X140717515Y-102128408D01*
X140587117Y-102215537D01*
X140442228Y-102275552D01*
X140288414Y-102306148D01*
X140131586Y-102306148D01*
X139977772Y-102275552D01*
X139832883Y-102215537D01*
X139702485Y-102128408D01*
X139591592Y-102017515D01*
X139504463Y-101887117D01*
X139444448Y-101742228D01*
X139413852Y-101588414D01*
X139413852Y-101431586D01*
X139444448Y-101277772D01*
X139504463Y-101132883D01*
X139591592Y-101002485D01*
X139702485Y-100891592D01*
X139832883Y-100804463D01*
X139977772Y-100744448D01*
X140131586Y-100713852D01*
X140288414Y-100713852D01*
X140442228Y-100744448D01*
G37*
G36*
X147832228Y-98244448D02*
G01*
X147977117Y-98304463D01*
X148107515Y-98391592D01*
X148218408Y-98502485D01*
X148305537Y-98632883D01*
X148365552Y-98777772D01*
X148396148Y-98931586D01*
X148396148Y-99088414D01*
X148365552Y-99242228D01*
X148305537Y-99387117D01*
X148218408Y-99517515D01*
X148107515Y-99628408D01*
X147977117Y-99715537D01*
X147832228Y-99775552D01*
X147678414Y-99806148D01*
X147521586Y-99806148D01*
X147367772Y-99775552D01*
X147222883Y-99715537D01*
X147092485Y-99628408D01*
X146981592Y-99517515D01*
X146894463Y-99387117D01*
X146834448Y-99242228D01*
X146803852Y-99088414D01*
X146803852Y-98931586D01*
X146834448Y-98777772D01*
X146894463Y-98632883D01*
X146981592Y-98502485D01*
X147092485Y-98391592D01*
X147222883Y-98304463D01*
X147367772Y-98244448D01*
X147521586Y-98213852D01*
X147678414Y-98213852D01*
X147832228Y-98244448D01*
G37*
G36*
X125202228Y-98204448D02*
G01*
X125347117Y-98264463D01*
X125477515Y-98351592D01*
X125588408Y-98462485D01*
X125675537Y-98592883D01*
X125735552Y-98737772D01*
X125766148Y-98891586D01*
X125766148Y-99048414D01*
X125735552Y-99202228D01*
X125675537Y-99347117D01*
X125588408Y-99477515D01*
X125477515Y-99588408D01*
X125347117Y-99675537D01*
X125202228Y-99735552D01*
X125048414Y-99766148D01*
X124891586Y-99766148D01*
X124737772Y-99735552D01*
X124592883Y-99675537D01*
X124462485Y-99588408D01*
X124351592Y-99477515D01*
X124264463Y-99347117D01*
X124204448Y-99202228D01*
X124173852Y-99048414D01*
X124173852Y-98891586D01*
X124204448Y-98737772D01*
X124264463Y-98592883D01*
X124351592Y-98462485D01*
X124462485Y-98351592D01*
X124592883Y-98264463D01*
X124737772Y-98204448D01*
X124891586Y-98173852D01*
X125048414Y-98173852D01*
X125202228Y-98204448D01*
G37*
G36*
X140442228Y-98204448D02*
G01*
X140587117Y-98264463D01*
X140717515Y-98351592D01*
X140828408Y-98462485D01*
X140915537Y-98592883D01*
X140975552Y-98737772D01*
X141006148Y-98891586D01*
X141006148Y-99048414D01*
X140975552Y-99202228D01*
X140915537Y-99347117D01*
X140828408Y-99477515D01*
X140717515Y-99588408D01*
X140587117Y-99675537D01*
X140442228Y-99735552D01*
X140288414Y-99766148D01*
X140131586Y-99766148D01*
X139977772Y-99735552D01*
X139832883Y-99675537D01*
X139702485Y-99588408D01*
X139591592Y-99477515D01*
X139504463Y-99347117D01*
X139444448Y-99202228D01*
X139413852Y-99048414D01*
X139413852Y-98891586D01*
X139444448Y-98737772D01*
X139504463Y-98592883D01*
X139591592Y-98462485D01*
X139702485Y-98351592D01*
X139832883Y-98264463D01*
X139977772Y-98204448D01*
X140131586Y-98173852D01*
X140288414Y-98173852D01*
X140442228Y-98204448D01*
G37*
G36*
X156890285Y-95743060D02*
G01*
X157071397Y-95818079D01*
X157234393Y-95926990D01*
X157373010Y-96065607D01*
X157481921Y-96228603D01*
X157556940Y-96409715D01*
X157595185Y-96601983D01*
X157595185Y-96798017D01*
X157556940Y-96990285D01*
X157481921Y-97171397D01*
X157373010Y-97334393D01*
X157234393Y-97473010D01*
X157071397Y-97581921D01*
X156890285Y-97656940D01*
X156698017Y-97695185D01*
X156501983Y-97695185D01*
X156309715Y-97656940D01*
X156128603Y-97581921D01*
X155965607Y-97473010D01*
X155826990Y-97334393D01*
X155718079Y-97171397D01*
X155643060Y-96990285D01*
X155604815Y-96798017D01*
X155604815Y-96601983D01*
X155643060Y-96409715D01*
X155718079Y-96228603D01*
X155826990Y-96065607D01*
X155965607Y-95926990D01*
X156128603Y-95818079D01*
X156309715Y-95743060D01*
X156501983Y-95704815D01*
X156698017Y-95704815D01*
X156890285Y-95743060D01*
G37*
G36*
X163390285Y-95743060D02*
G01*
X163571397Y-95818079D01*
X163734393Y-95926990D01*
X163873010Y-96065607D01*
X163981921Y-96228603D01*
X164056940Y-96409715D01*
X164095185Y-96601983D01*
X164095185Y-96798017D01*
X164056940Y-96990285D01*
X163981921Y-97171397D01*
X163873010Y-97334393D01*
X163734393Y-97473010D01*
X163571397Y-97581921D01*
X163390285Y-97656940D01*
X163198017Y-97695185D01*
X163001983Y-97695185D01*
X162809715Y-97656940D01*
X162628603Y-97581921D01*
X162465607Y-97473010D01*
X162326990Y-97334393D01*
X162218079Y-97171397D01*
X162143060Y-96990285D01*
X162104815Y-96798017D01*
X162104815Y-96601983D01*
X162143060Y-96409715D01*
X162218079Y-96228603D01*
X162326990Y-96065607D01*
X162465607Y-95926990D01*
X162628603Y-95818079D01*
X162809715Y-95743060D01*
X163001983Y-95704815D01*
X163198017Y-95704815D01*
X163390285Y-95743060D01*
G37*
G36*
X152832228Y-95934448D02*
G01*
X152977117Y-95994463D01*
X153107515Y-96081592D01*
X153218408Y-96192485D01*
X153305537Y-96322883D01*
X153365552Y-96467772D01*
X153396148Y-96621586D01*
X153396148Y-96778414D01*
X153365552Y-96932228D01*
X153305537Y-97077117D01*
X153218408Y-97207515D01*
X153107515Y-97318408D01*
X152977117Y-97405537D01*
X152832228Y-97465552D01*
X152678414Y-97496148D01*
X152521586Y-97496148D01*
X152367772Y-97465552D01*
X152222883Y-97405537D01*
X152092485Y-97318408D01*
X151981592Y-97207515D01*
X151894463Y-97077117D01*
X151834448Y-96932228D01*
X151803852Y-96778414D01*
X151803852Y-96621586D01*
X151834448Y-96467772D01*
X151894463Y-96322883D01*
X151981592Y-96192485D01*
X152092485Y-96081592D01*
X152222883Y-95994463D01*
X152367772Y-95934448D01*
X152521586Y-95903852D01*
X152678414Y-95903852D01*
X152832228Y-95934448D01*
G37*
G36*
X125202228Y-95664448D02*
G01*
X125347117Y-95724463D01*
X125477515Y-95811592D01*
X125588408Y-95922485D01*
X125675537Y-96052883D01*
X125735552Y-96197772D01*
X125766148Y-96351586D01*
X125766148Y-96508414D01*
X125735552Y-96662228D01*
X125675537Y-96807117D01*
X125588408Y-96937515D01*
X125477515Y-97048408D01*
X125347117Y-97135537D01*
X125202228Y-97195552D01*
X125048414Y-97226148D01*
X124891586Y-97226148D01*
X124737772Y-97195552D01*
X124592883Y-97135537D01*
X124462485Y-97048408D01*
X124351592Y-96937515D01*
X124264463Y-96807117D01*
X124204448Y-96662228D01*
X124173852Y-96508414D01*
X124173852Y-96351586D01*
X124204448Y-96197772D01*
X124264463Y-96052883D01*
X124351592Y-95922485D01*
X124462485Y-95811592D01*
X124592883Y-95724463D01*
X124737772Y-95664448D01*
X124891586Y-95633852D01*
X125048414Y-95633852D01*
X125202228Y-95664448D01*
G37*
G36*
X140442228Y-95664448D02*
G01*
X140587117Y-95724463D01*
X140717515Y-95811592D01*
X140828408Y-95922485D01*
X140915537Y-96052883D01*
X140975552Y-96197772D01*
X141006148Y-96351586D01*
X141006148Y-96508414D01*
X140975552Y-96662228D01*
X140915537Y-96807117D01*
X140828408Y-96937515D01*
X140717515Y-97048408D01*
X140587117Y-97135537D01*
X140442228Y-97195552D01*
X140288414Y-97226148D01*
X140131586Y-97226148D01*
X139977772Y-97195552D01*
X139832883Y-97135537D01*
X139702485Y-97048408D01*
X139591592Y-96937515D01*
X139504463Y-96807117D01*
X139444448Y-96662228D01*
X139413852Y-96508414D01*
X139413852Y-96351586D01*
X139444448Y-96197772D01*
X139504463Y-96052883D01*
X139591592Y-95922485D01*
X139702485Y-95811592D01*
X139832883Y-95724463D01*
X139977772Y-95664448D01*
X140131586Y-95633852D01*
X140288414Y-95633852D01*
X140442228Y-95664448D01*
G37*
G36*
X125202228Y-93124448D02*
G01*
X125347117Y-93184463D01*
X125477515Y-93271592D01*
X125588408Y-93382485D01*
X125675537Y-93512883D01*
X125735552Y-93657772D01*
X125766148Y-93811586D01*
X125766148Y-93968414D01*
X125735552Y-94122228D01*
X125675537Y-94267117D01*
X125588408Y-94397515D01*
X125477515Y-94508408D01*
X125347117Y-94595537D01*
X125202228Y-94655552D01*
X125048414Y-94686148D01*
X124891586Y-94686148D01*
X124737772Y-94655552D01*
X124592883Y-94595537D01*
X124462485Y-94508408D01*
X124351592Y-94397515D01*
X124264463Y-94267117D01*
X124204448Y-94122228D01*
X124173852Y-93968414D01*
X124173852Y-93811586D01*
X124204448Y-93657772D01*
X124264463Y-93512883D01*
X124351592Y-93382485D01*
X124462485Y-93271592D01*
X124592883Y-93184463D01*
X124737772Y-93124448D01*
X124891586Y-93093852D01*
X125048414Y-93093852D01*
X125202228Y-93124448D01*
G37*
G36*
X140442228Y-93124448D02*
G01*
X140587117Y-93184463D01*
X140717515Y-93271592D01*
X140828408Y-93382485D01*
X140915537Y-93512883D01*
X140975552Y-93657772D01*
X141006148Y-93811586D01*
X141006148Y-93968414D01*
X140975552Y-94122228D01*
X140915537Y-94267117D01*
X140828408Y-94397515D01*
X140717515Y-94508408D01*
X140587117Y-94595537D01*
X140442228Y-94655552D01*
X140288414Y-94686148D01*
X140131586Y-94686148D01*
X139977772Y-94655552D01*
X139832883Y-94595537D01*
X139702485Y-94508408D01*
X139591592Y-94397515D01*
X139504463Y-94267117D01*
X139444448Y-94122228D01*
X139413852Y-93968414D01*
X139413852Y-93811586D01*
X139444448Y-93657772D01*
X139504463Y-93512883D01*
X139591592Y-93382485D01*
X139702485Y-93271592D01*
X139832883Y-93184463D01*
X139977772Y-93124448D01*
X140131586Y-93093852D01*
X140288414Y-93093852D01*
X140442228Y-93124448D01*
G37*
G36*
X156890285Y-91243060D02*
G01*
X157071397Y-91318079D01*
X157234393Y-91426990D01*
X157373010Y-91565607D01*
X157481921Y-91728603D01*
X157556940Y-91909715D01*
X157595185Y-92101983D01*
X157595185Y-92298017D01*
X157556940Y-92490285D01*
X157481921Y-92671397D01*
X157373010Y-92834393D01*
X157234393Y-92973010D01*
X157071397Y-93081921D01*
X156890285Y-93156940D01*
X156698017Y-93195185D01*
X156501983Y-93195185D01*
X156309715Y-93156940D01*
X156128603Y-93081921D01*
X155965607Y-92973010D01*
X155826990Y-92834393D01*
X155718079Y-92671397D01*
X155643060Y-92490285D01*
X155604815Y-92298017D01*
X155604815Y-92101983D01*
X155643060Y-91909715D01*
X155718079Y-91728603D01*
X155826990Y-91565607D01*
X155965607Y-91426990D01*
X156128603Y-91318079D01*
X156309715Y-91243060D01*
X156501983Y-91204815D01*
X156698017Y-91204815D01*
X156890285Y-91243060D01*
G37*
G36*
X163390285Y-91243060D02*
G01*
X163571397Y-91318079D01*
X163734393Y-91426990D01*
X163873010Y-91565607D01*
X163981921Y-91728603D01*
X164056940Y-91909715D01*
X164095185Y-92101983D01*
X164095185Y-92298017D01*
X164056940Y-92490285D01*
X163981921Y-92671397D01*
X163873010Y-92834393D01*
X163734393Y-92973010D01*
X163571397Y-93081921D01*
X163390285Y-93156940D01*
X163198017Y-93195185D01*
X163001983Y-93195185D01*
X162809715Y-93156940D01*
X162628603Y-93081921D01*
X162465607Y-92973010D01*
X162326990Y-92834393D01*
X162218079Y-92671397D01*
X162143060Y-92490285D01*
X162104815Y-92298017D01*
X162104815Y-92101983D01*
X162143060Y-91909715D01*
X162218079Y-91728603D01*
X162326990Y-91565607D01*
X162465607Y-91426990D01*
X162628603Y-91318079D01*
X162809715Y-91243060D01*
X163001983Y-91204815D01*
X163198017Y-91204815D01*
X163390285Y-91243060D01*
G37*
G36*
X152832228Y-90934448D02*
G01*
X152977117Y-90994463D01*
X153107515Y-91081592D01*
X153218408Y-91192485D01*
X153305537Y-91322883D01*
X153365552Y-91467772D01*
X153396148Y-91621586D01*
X153396148Y-91778414D01*
X153365552Y-91932228D01*
X153305537Y-92077117D01*
X153218408Y-92207515D01*
X153107515Y-92318408D01*
X152977117Y-92405537D01*
X152832228Y-92465552D01*
X152678414Y-92496148D01*
X152521586Y-92496148D01*
X152367772Y-92465552D01*
X152222883Y-92405537D01*
X152092485Y-92318408D01*
X151981592Y-92207515D01*
X151894463Y-92077117D01*
X151834448Y-91932228D01*
X151803852Y-91778414D01*
X151803852Y-91621586D01*
X151834448Y-91467772D01*
X151894463Y-91322883D01*
X151981592Y-91192485D01*
X152092485Y-91081592D01*
X152222883Y-90994463D01*
X152367772Y-90934448D01*
X152521586Y-90903852D01*
X152678414Y-90903852D01*
X152832228Y-90934448D01*
G37*
G36*
X147832228Y-90624448D02*
G01*
X147977117Y-90684463D01*
X148107515Y-90771592D01*
X148218408Y-90882485D01*
X148305537Y-91012883D01*
X148365552Y-91157772D01*
X148396148Y-91311586D01*
X148396148Y-91468414D01*
X148365552Y-91622228D01*
X148305537Y-91767117D01*
X148218408Y-91897515D01*
X148107515Y-92008408D01*
X147977117Y-92095537D01*
X147832228Y-92155552D01*
X147678414Y-92186148D01*
X147521586Y-92186148D01*
X147367772Y-92155552D01*
X147222883Y-92095537D01*
X147092485Y-92008408D01*
X146981592Y-91897515D01*
X146894463Y-91767117D01*
X146834448Y-91622228D01*
X146803852Y-91468414D01*
X146803852Y-91311586D01*
X146834448Y-91157772D01*
X146894463Y-91012883D01*
X146981592Y-90882485D01*
X147092485Y-90771592D01*
X147222883Y-90684463D01*
X147367772Y-90624448D01*
X147521586Y-90593852D01*
X147678414Y-90593852D01*
X147832228Y-90624448D01*
G37*
G36*
X125202228Y-90584448D02*
G01*
X125347117Y-90644463D01*
X125477515Y-90731592D01*
X125588408Y-90842485D01*
X125675537Y-90972883D01*
X125735552Y-91117772D01*
X125766148Y-91271586D01*
X125766148Y-91428414D01*
X125735552Y-91582228D01*
X125675537Y-91727117D01*
X125588408Y-91857515D01*
X125477515Y-91968408D01*
X125347117Y-92055537D01*
X125202228Y-92115552D01*
X125048414Y-92146148D01*
X124891586Y-92146148D01*
X124737772Y-92115552D01*
X124592883Y-92055537D01*
X124462485Y-91968408D01*
X124351592Y-91857515D01*
X124264463Y-91727117D01*
X124204448Y-91582228D01*
X124173852Y-91428414D01*
X124173852Y-91271586D01*
X124204448Y-91117772D01*
X124264463Y-90972883D01*
X124351592Y-90842485D01*
X124462485Y-90731592D01*
X124592883Y-90644463D01*
X124737772Y-90584448D01*
X124891586Y-90553852D01*
X125048414Y-90553852D01*
X125202228Y-90584448D01*
G37*
G36*
X140442228Y-90584448D02*
G01*
X140587117Y-90644463D01*
X140717515Y-90731592D01*
X140828408Y-90842485D01*
X140915537Y-90972883D01*
X140975552Y-91117772D01*
X141006148Y-91271586D01*
X141006148Y-91428414D01*
X140975552Y-91582228D01*
X140915537Y-91727117D01*
X140828408Y-91857515D01*
X140717515Y-91968408D01*
X140587117Y-92055537D01*
X140442228Y-92115552D01*
X140288414Y-92146148D01*
X140131586Y-92146148D01*
X139977772Y-92115552D01*
X139832883Y-92055537D01*
X139702485Y-91968408D01*
X139591592Y-91857515D01*
X139504463Y-91727117D01*
X139444448Y-91582228D01*
X139413852Y-91428414D01*
X139413852Y-91271586D01*
X139444448Y-91117772D01*
X139504463Y-90972883D01*
X139591592Y-90842485D01*
X139702485Y-90731592D01*
X139832883Y-90644463D01*
X139977772Y-90584448D01*
X140131586Y-90553852D01*
X140288414Y-90553852D01*
X140442228Y-90584448D01*
G37*
G36*
X125202228Y-88044448D02*
G01*
X125347117Y-88104463D01*
X125477515Y-88191592D01*
X125588408Y-88302485D01*
X125675537Y-88432883D01*
X125735552Y-88577772D01*
X125766148Y-88731586D01*
X125766148Y-88888414D01*
X125735552Y-89042228D01*
X125675537Y-89187117D01*
X125588408Y-89317515D01*
X125477515Y-89428408D01*
X125347117Y-89515537D01*
X125202228Y-89575552D01*
X125048414Y-89606148D01*
X124891586Y-89606148D01*
X124737772Y-89575552D01*
X124592883Y-89515537D01*
X124462485Y-89428408D01*
X124351592Y-89317515D01*
X124264463Y-89187117D01*
X124204448Y-89042228D01*
X124173852Y-88888414D01*
X124173852Y-88731586D01*
X124204448Y-88577772D01*
X124264463Y-88432883D01*
X124351592Y-88302485D01*
X124462485Y-88191592D01*
X124592883Y-88104463D01*
X124737772Y-88044448D01*
X124891586Y-88013852D01*
X125048414Y-88013852D01*
X125202228Y-88044448D01*
G37*
G36*
X140442228Y-88044448D02*
G01*
X140587117Y-88104463D01*
X140717515Y-88191592D01*
X140828408Y-88302485D01*
X140915537Y-88432883D01*
X140975552Y-88577772D01*
X141006148Y-88731586D01*
X141006148Y-88888414D01*
X140975552Y-89042228D01*
X140915537Y-89187117D01*
X140828408Y-89317515D01*
X140717515Y-89428408D01*
X140587117Y-89515537D01*
X140442228Y-89575552D01*
X140288414Y-89606148D01*
X140131586Y-89606148D01*
X139977772Y-89575552D01*
X139832883Y-89515537D01*
X139702485Y-89428408D01*
X139591592Y-89317515D01*
X139504463Y-89187117D01*
X139444448Y-89042228D01*
X139413852Y-88888414D01*
X139413852Y-88731586D01*
X139444448Y-88577772D01*
X139504463Y-88432883D01*
X139591592Y-88302485D01*
X139702485Y-88191592D01*
X139832883Y-88104463D01*
X139977772Y-88044448D01*
X140131586Y-88013852D01*
X140288414Y-88013852D01*
X140442228Y-88044448D01*
G37*
G36*
X125202228Y-85504448D02*
G01*
X125347117Y-85564463D01*
X125477515Y-85651592D01*
X125588408Y-85762485D01*
X125675537Y-85892883D01*
X125735552Y-86037772D01*
X125766148Y-86191586D01*
X125766148Y-86348414D01*
X125735552Y-86502228D01*
X125675537Y-86647117D01*
X125588408Y-86777515D01*
X125477515Y-86888408D01*
X125347117Y-86975537D01*
X125202228Y-87035552D01*
X125048414Y-87066148D01*
X124891586Y-87066148D01*
X124737772Y-87035552D01*
X124592883Y-86975537D01*
X124462485Y-86888408D01*
X124351592Y-86777515D01*
X124264463Y-86647117D01*
X124204448Y-86502228D01*
X124173852Y-86348414D01*
X124173852Y-86191586D01*
X124204448Y-86037772D01*
X124264463Y-85892883D01*
X124351592Y-85762485D01*
X124462485Y-85651592D01*
X124592883Y-85564463D01*
X124737772Y-85504448D01*
X124891586Y-85473852D01*
X125048414Y-85473852D01*
X125202228Y-85504448D01*
G37*
G36*
X140442228Y-85504448D02*
G01*
X140587117Y-85564463D01*
X140717515Y-85651592D01*
X140828408Y-85762485D01*
X140915537Y-85892883D01*
X140975552Y-86037772D01*
X141006148Y-86191586D01*
X141006148Y-86348414D01*
X140975552Y-86502228D01*
X140915537Y-86647117D01*
X140828408Y-86777515D01*
X140717515Y-86888408D01*
X140587117Y-86975537D01*
X140442228Y-87035552D01*
X140288414Y-87066148D01*
X140131586Y-87066148D01*
X139977772Y-87035552D01*
X139832883Y-86975537D01*
X139702485Y-86888408D01*
X139591592Y-86777515D01*
X139504463Y-86647117D01*
X139444448Y-86502228D01*
X139413852Y-86348414D01*
X139413852Y-86191586D01*
X139444448Y-86037772D01*
X139504463Y-85892883D01*
X139591592Y-85762485D01*
X139702485Y-85651592D01*
X139832883Y-85564463D01*
X139977772Y-85504448D01*
X140131586Y-85473852D01*
X140288414Y-85473852D01*
X140442228Y-85504448D01*
G37*
G36*
X125202228Y-82964448D02*
G01*
X125347117Y-83024463D01*
X125477515Y-83111592D01*
X125588408Y-83222485D01*
X125675537Y-83352883D01*
X125735552Y-83497772D01*
X125766148Y-83651586D01*
X125766148Y-83808414D01*
X125735552Y-83962228D01*
X125675537Y-84107117D01*
X125588408Y-84237515D01*
X125477515Y-84348408D01*
X125347117Y-84435537D01*
X125202228Y-84495552D01*
X125048414Y-84526148D01*
X124891586Y-84526148D01*
X124737772Y-84495552D01*
X124592883Y-84435537D01*
X124462485Y-84348408D01*
X124351592Y-84237515D01*
X124264463Y-84107117D01*
X124204448Y-83962228D01*
X124173852Y-83808414D01*
X124173852Y-83651586D01*
X124204448Y-83497772D01*
X124264463Y-83352883D01*
X124351592Y-83222485D01*
X124462485Y-83111592D01*
X124592883Y-83024463D01*
X124737772Y-82964448D01*
X124891586Y-82933852D01*
X125048414Y-82933852D01*
X125202228Y-82964448D01*
G37*
G36*
X140442228Y-82964448D02*
G01*
X140587117Y-83024463D01*
X140717515Y-83111592D01*
X140828408Y-83222485D01*
X140915537Y-83352883D01*
X140975552Y-83497772D01*
X141006148Y-83651586D01*
X141006148Y-83808414D01*
X140975552Y-83962228D01*
X140915537Y-84107117D01*
X140828408Y-84237515D01*
X140717515Y-84348408D01*
X140587117Y-84435537D01*
X140442228Y-84495552D01*
X140288414Y-84526148D01*
X140131586Y-84526148D01*
X139977772Y-84495552D01*
X139832883Y-84435537D01*
X139702485Y-84348408D01*
X139591592Y-84237515D01*
X139504463Y-84107117D01*
X139444448Y-83962228D01*
X139413852Y-83808414D01*
X139413852Y-83651586D01*
X139444448Y-83497772D01*
X139504463Y-83352883D01*
X139591592Y-83222485D01*
X139702485Y-83111592D01*
X139832883Y-83024463D01*
X139977772Y-82964448D01*
X140131586Y-82933852D01*
X140288414Y-82933852D01*
X140442228Y-82964448D01*
G37*
G36*
X125202228Y-80424448D02*
G01*
X125347117Y-80484463D01*
X125477515Y-80571592D01*
X125588408Y-80682485D01*
X125675537Y-80812883D01*
X125735552Y-80957772D01*
X125766148Y-81111586D01*
X125766148Y-81268414D01*
X125735552Y-81422228D01*
X125675537Y-81567117D01*
X125588408Y-81697515D01*
X125477515Y-81808408D01*
X125347117Y-81895537D01*
X125202228Y-81955552D01*
X125048414Y-81986148D01*
X124891586Y-81986148D01*
X124737772Y-81955552D01*
X124592883Y-81895537D01*
X124462485Y-81808408D01*
X124351592Y-81697515D01*
X124264463Y-81567117D01*
X124204448Y-81422228D01*
X124173852Y-81268414D01*
X124173852Y-81111586D01*
X124204448Y-80957772D01*
X124264463Y-80812883D01*
X124351592Y-80682485D01*
X124462485Y-80571592D01*
X124592883Y-80484463D01*
X124737772Y-80424448D01*
X124891586Y-80393852D01*
X125048414Y-80393852D01*
X125202228Y-80424448D01*
G37*
G36*
X140442228Y-80424448D02*
G01*
X140587117Y-80484463D01*
X140717515Y-80571592D01*
X140828408Y-80682485D01*
X140915537Y-80812883D01*
X140975552Y-80957772D01*
X141006148Y-81111586D01*
X141006148Y-81268414D01*
X140975552Y-81422228D01*
X140915537Y-81567117D01*
X140828408Y-81697515D01*
X140717515Y-81808408D01*
X140587117Y-81895537D01*
X140442228Y-81955552D01*
X140288414Y-81986148D01*
X140131586Y-81986148D01*
X139977772Y-81955552D01*
X139832883Y-81895537D01*
X139702485Y-81808408D01*
X139591592Y-81697515D01*
X139504463Y-81567117D01*
X139444448Y-81422228D01*
X139413852Y-81268414D01*
X139413852Y-81111586D01*
X139444448Y-80957772D01*
X139504463Y-80812883D01*
X139591592Y-80682485D01*
X139702485Y-80571592D01*
X139832883Y-80484463D01*
X139977772Y-80424448D01*
X140131586Y-80393852D01*
X140288414Y-80393852D01*
X140442228Y-80424448D01*
G37*
G36*
X103752000Y-78232000D02*
G01*
X101828000Y-78232000D01*
X101828000Y-76308000D01*
X103752000Y-76308000D01*
X103752000Y-78232000D01*
G37*
G36*
X105609254Y-76349423D02*
G01*
X105783484Y-76421592D01*
X105940286Y-76526364D01*
X106073636Y-76659714D01*
X106178408Y-76816516D01*
X106250577Y-76990746D01*
X106287368Y-77175708D01*
X106287368Y-77364292D01*
X106250577Y-77549254D01*
X106178408Y-77723484D01*
X106073636Y-77880286D01*
X105940286Y-78013636D01*
X105783484Y-78118408D01*
X105609254Y-78190577D01*
X105424292Y-78227368D01*
X105235708Y-78227368D01*
X105050746Y-78190577D01*
X104876516Y-78118408D01*
X104719714Y-78013636D01*
X104586364Y-77880286D01*
X104481592Y-77723484D01*
X104409423Y-77549254D01*
X104372632Y-77364292D01*
X104372632Y-77175708D01*
X104409423Y-76990746D01*
X104481592Y-76816516D01*
X104586364Y-76659714D01*
X104719714Y-76526364D01*
X104876516Y-76421592D01*
X105050746Y-76349423D01*
X105235708Y-76312632D01*
X105424292Y-76312632D01*
X105609254Y-76349423D01*
G37*
G36*
X108149254Y-76349423D02*
G01*
X108323484Y-76421592D01*
X108480286Y-76526364D01*
X108613636Y-76659714D01*
X108718408Y-76816516D01*
X108790577Y-76990746D01*
X108827368Y-77175708D01*
X108827368Y-77364292D01*
X108790577Y-77549254D01*
X108718408Y-77723484D01*
X108613636Y-77880286D01*
X108480286Y-78013636D01*
X108323484Y-78118408D01*
X108149254Y-78190577D01*
X107964292Y-78227368D01*
X107775708Y-78227368D01*
X107590746Y-78190577D01*
X107416516Y-78118408D01*
X107259714Y-78013636D01*
X107126364Y-77880286D01*
X107021592Y-77723484D01*
X106949423Y-77549254D01*
X106912632Y-77364292D01*
X106912632Y-77175708D01*
X106949423Y-76990746D01*
X107021592Y-76816516D01*
X107126364Y-76659714D01*
X107259714Y-76526364D01*
X107416516Y-76421592D01*
X107590746Y-76349423D01*
X107775708Y-76312632D01*
X107964292Y-76312632D01*
X108149254Y-76349423D01*
G37*
G36*
X110689254Y-76349423D02*
G01*
X110863484Y-76421592D01*
X111020286Y-76526364D01*
X111153636Y-76659714D01*
X111258408Y-76816516D01*
X111330577Y-76990746D01*
X111367368Y-77175708D01*
X111367368Y-77364292D01*
X111330577Y-77549254D01*
X111258408Y-77723484D01*
X111153636Y-77880286D01*
X111020286Y-78013636D01*
X110863484Y-78118408D01*
X110689254Y-78190577D01*
X110504292Y-78227368D01*
X110315708Y-78227368D01*
X110130746Y-78190577D01*
X109956516Y-78118408D01*
X109799714Y-78013636D01*
X109666364Y-77880286D01*
X109561592Y-77723484D01*
X109489423Y-77549254D01*
X109452632Y-77364292D01*
X109452632Y-77175708D01*
X109489423Y-76990746D01*
X109561592Y-76816516D01*
X109666364Y-76659714D01*
X109799714Y-76526364D01*
X109956516Y-76421592D01*
X110130746Y-76349423D01*
X110315708Y-76312632D01*
X110504292Y-76312632D01*
X110689254Y-76349423D01*
G37*
G36*
X163500000Y-78100000D02*
G01*
X161700000Y-78100000D01*
X161700000Y-76300000D01*
X163500000Y-76300000D01*
X163500000Y-78100000D01*
G37*
G36*
X160321256Y-76338754D02*
G01*
X160484257Y-76406271D01*
X160630954Y-76504291D01*
X160755709Y-76629046D01*
X160853729Y-76775743D01*
X160921246Y-76938744D01*
X160955666Y-77111785D01*
X160955666Y-77288215D01*
X160921246Y-77461256D01*
X160853729Y-77624257D01*
X160755709Y-77770954D01*
X160630954Y-77895709D01*
X160484257Y-77993729D01*
X160321256Y-78061246D01*
X160148215Y-78095666D01*
X159971785Y-78095666D01*
X159798744Y-78061246D01*
X159635743Y-77993729D01*
X159489046Y-77895709D01*
X159364291Y-77770954D01*
X159266271Y-77624257D01*
X159198754Y-77461256D01*
X159164334Y-77288215D01*
X159164334Y-77111785D01*
X159198754Y-76938744D01*
X159266271Y-76775743D01*
X159364291Y-76629046D01*
X159489046Y-76504291D01*
X159635743Y-76406271D01*
X159798744Y-76338754D01*
X159971785Y-76304334D01*
X160148215Y-76304334D01*
X160321256Y-76338754D01*
G37*
G36*
X147212228Y-75434448D02*
G01*
X147357117Y-75494463D01*
X147487515Y-75581592D01*
X147598408Y-75692485D01*
X147685537Y-75822883D01*
X147745552Y-75967772D01*
X147776148Y-76121586D01*
X147776148Y-76278414D01*
X147745552Y-76432228D01*
X147685537Y-76577117D01*
X147598408Y-76707515D01*
X147487515Y-76818408D01*
X147357117Y-76905537D01*
X147212228Y-76965552D01*
X147058414Y-76996148D01*
X146901586Y-76996148D01*
X146747772Y-76965552D01*
X146602883Y-76905537D01*
X146472485Y-76818408D01*
X146361592Y-76707515D01*
X146274463Y-76577117D01*
X146214448Y-76432228D01*
X146183852Y-76278414D01*
X146183852Y-76121586D01*
X146214448Y-75967772D01*
X146274463Y-75822883D01*
X146361592Y-75692485D01*
X146472485Y-75581592D01*
X146602883Y-75494463D01*
X146747772Y-75434448D01*
X146901586Y-75403852D01*
X147058414Y-75403852D01*
X147212228Y-75434448D01*
G37*
G36*
X154832228Y-75434448D02*
G01*
X154977117Y-75494463D01*
X155107515Y-75581592D01*
X155218408Y-75692485D01*
X155305537Y-75822883D01*
X155365552Y-75967772D01*
X155396148Y-76121586D01*
X155396148Y-76278414D01*
X155365552Y-76432228D01*
X155305537Y-76577117D01*
X155218408Y-76707515D01*
X155107515Y-76818408D01*
X154977117Y-76905537D01*
X154832228Y-76965552D01*
X154678414Y-76996148D01*
X154521586Y-76996148D01*
X154367772Y-76965552D01*
X154222883Y-76905537D01*
X154092485Y-76818408D01*
X153981592Y-76707515D01*
X153894463Y-76577117D01*
X153834448Y-76432228D01*
X153803852Y-76278414D01*
X153803852Y-76121586D01*
X153834448Y-75967772D01*
X153894463Y-75822883D01*
X153981592Y-75692485D01*
X154092485Y-75581592D01*
X154222883Y-75494463D01*
X154367772Y-75434448D01*
X154521586Y-75403852D01*
X154678414Y-75403852D01*
X154832228Y-75434448D01*
G37*
M02*
